<svg xmlns="http://www.w3.org/2000/svg"><symbol id="icon-arrow-left-sm" viewBox="0 0 20 20"><title>icon-arrow-left-sm</title><path d="M10.4 16.4l.9-.8-4.9-5h10.5V9.4H6.4l4.9-5-.9-.8-6 6-.4.4z"/></symbol><symbol id="icon-arrow-right-sm" viewBox="0 0 20 20"><title>icon-arrow-right-sm</title><path d="M10.4 16.4l-.8-.8 4.9-5H4V9.4h10.5l-4.9-5 .8-.8 6 6 .5.4z"/></symbol><symbol id="icon-arrow-right" viewBox="0 0 60 60"><title>icon-arrow-right</title><path d="M29.6 60l-2.2-2.1 26.4-26.4H.1v-3h53.7L27.4 2.1 29.6 0l28.9 28.9 1.1 1.1z"/></symbol><symbol id="icon-asterisk" viewBox="0 0 108 107"><title>icon-asterisk</title><path d="M107.143 59V48.44h-13.6l-36.64 4.16 28.8-23.04 9.6-9.6-7.52-7.52-9.6 9.6-23.04 28.8 4.16-36.64V.6h-10.56v13.6l4 36.48-23.04-28.64-9.6-9.6-7.36 7.52 9.6 9.6 28.8 23.04-36.8-4.16-13.6.16V59h13.6l36.64-4-28.8 23.04-9.6 9.6 7.52 7.52 9.6-9.6 23.04-28.8-4 36.64V107h10.56V93.4l-4.16-36.8 23.2 28.96 9.6 9.6 7.36-7.52-9.6-9.6L57.063 55l36.48 4h13.6z" xmlns="http://www.w3.org/2000.1/svg"/></symbol><symbol id="icon-circle" viewBox="0 0 114 113"><title>icon-circle</title><path d="M57.258 112.88c30.88 0 55.84-24.96 55.84-56.32 0-30.88-24.96-55.84-55.84-55.84C25.898.72.938 25.68.938 56.56c0 31.36 24.96 56.32 56.32 56.32z" xmlns="http://www.w3.org/2000/svg"/></symbol><symbol id="icon-diamond-hollow-thick" viewBox="0 0 120 118"><title>icon-diamond-hollow-thick</title><path d="M59.502 15.381l43.957 43.247-43.872 43.161-43.956-43.247 43.871-43.16zm0-15.381L0 58.542l59.587 58.628 59.503-58.542L59.502 0z"/></symbol><symbol id="icon-diamond" viewBox="0 0 120 118"><title>icon-diamond</title><path d="M59.502 0L0 58.542l59.587 58.628 59.503-58.542L59.502 0z"/></symbol><symbol id="icon-error" viewBox="0 0 20 20"><title>icon-error</title><path d="M10 2c-4.4 0-8 3.6-8 8s3.6 8 8 8 8-3.6 8-8-3.6-8-8-8zm-6.8 8c0-3.7 3-6.8 6.8-6.8 1.6 0 3.1.6 4.3 1.6l-9.5 9.5c-1-1.2-1.6-2.7-1.6-4.3zm6.8 6.8c-1.6 0-3.1-.6-4.3-1.6l9.5-9.5c1 1.2 1.6 2.7 1.6 4.3 0 3.7-3.1 6.8-6.8 6.8z"/></symbol><symbol id="icon-flair-arrow" viewBox="0 0 82.1 28.1"><title>icon-flair-arrow</title><path d="M1.4 28.1L0 26.7 12.6 14 0 1.4 1.4 0l13 13h63.8L66.7 1.4 68.1 0l13.3 13.3.7.7-.7.7-13.3 13.4-1.4-1.4L78.3 15H14.5L1.4 28.1zM14 14z"/></symbol><symbol id="icon-linkout-sm" viewBox="0 0 20 20"><title>icon-linkout-sm</title><path d="M10 3.4v1.2h4.5l-10.9 11 .8.8 11-10.9V10h1.2V3.4z"/></symbol><symbol id="icon-linkout" viewBox="0 0 55.8 55.8"><title>icon-linkout</title><path d="M26.7 0v3h23.9L0 53.6l2.1 2.2L52.8 5.1V29h3V0z"/></symbol><symbol id="icon-plus" viewBox="0 0 60 60"><title>icon-plus</title><path d="M60 28.5H31.5V0h-3v28.5H0v3h28.5V60h3V31.5H60z"/></symbol><symbol id="icon-square" viewBox="0 0 108 107"><title>icon-square</title><path d="M.75.6V107h106.56V.6H.75z"/></symbol><symbol id="icon-triangle" viewBox="0 0 120 107"><title>icon-triangle</title><path d="M59.52.6L0 107h119.04L59.52.6z"/></symbol><symbol preserveAspectRatio="xMinYMax slice" id="line" viewBox="0 0 16 100"><title>line</title><path d="M0 0h16v100H0z"/></symbol><symbol preserveAspectRatio="xMidYMin meet" id="logo-bottom" viewBox="0 0 1026 600"><title>logo-bottom</title><path d="M1025.2 587.7L520.8 83.3V0h-16v83.3L.3 587.7 11.7 599 512.8 97.9 1013.9 599z"/></symbol><symbol id="logo-home" viewBox="0 0 791 417"><title>logo-home</title><path fill-rule="evenodd" clip-rule="evenodd" d="M215.307 53.295c0-29.161-14.8-53.295-49.899-53.295h-44.431v107.062h44.431c35.099 0 49.899-24.322 49.899-53.767zm-80.976 42.957V10.778h28.658c28.657 0 38.304 15.304 38.304 42.486 0 27.214-9.804 42.988-38.304 42.988h-28.658zm129.87 13.387c26.709 0 36.073-15.146 37.676-27.37h-11.752c-2.42 10.15-9.647 17.534-25.421 17.534-16.089 0-26.71-8.044-27.684-30.104h64.699c.315-1.917.315-3.55.315-5.625 0-23.505-13.669-40.097-37.833-40.097-26.709 0-39.907 18.666-39.907 42.674 0 24.29 12.224 42.988 39.907 42.988zm.188-75.826c14.958 0 24.479 7.73 25.107 26.239h-52.161c1.759-19.012 11.752-26.24 27.054-26.24z"/><path d="M321.327 80.163c.974 10.936 7.101 19.64 25.609 19.64 14.172 0 19.797-4.996 19.797-14.046 0-7.73-4.494-11.91-14.643-13.356l-18.665-2.733c-14.015-1.949-21.902-9.365-21.902-21.746 0-14.958 11.941-24.134 32.208-24.134 21.085 0 33.151 10.622 34.125 25.768H365.13c-.817-8.359-6.944-15.932-21.744-15.932-13.701 0-19.325 5.468-19.325 13.355 0 5.625 2.891 10.465 13.04 11.91l17.063 2.42c18.507 2.734 25.263 10.621 25.263 23.82 0 16.434-11.438 24.479-32.836 24.479-26.238 0-36.859-12.538-37.173-29.445h11.909zM405.822 0h-16.591v13.355h16.591V0zm-14.831 26.553h12.883v80.478h-12.883V26.553z"/><path fill-rule="evenodd" clip-rule="evenodd" d="M452.61 105.271c14.486 0 24.479-5.153 29.946-15.618v17.378c0 17.22-7.887 23.82-26.898 23.82-17.879 0-24.635-8.045-25.609-18.666h-12.726c1.445 18.351 14.329 28.816 38.304 28.816 29.286 0 39.75-12.382 39.75-33.813V26.553h-12.884v13.859c-5.467-10.308-15.302-16.09-29.945-16.09-25.264 0-37.173 15.775-37.173 40.412.031 24.762 11.94 40.537 37.235 40.537zm3.048-70.83c17.063 0 26.898 8.547 26.898 30.261 0 21.903-9.804 30.42-26.898 30.42-18.35 0-27.054-8.705-27.054-30.42 0-21.714 8.704-30.261 27.054-30.261z"/><path d="M551.466 34.755c-17.88 0-27.369 13.858-27.369 41.543v30.733h-12.883V26.553h12.883v21.118c4.996-14.644 14.988-23.663 30.92-23.663 20.11 0 28.657 10.936 28.657 31.707v51.316h-12.883V57.129c0-17.22-7.573-22.374-19.325-22.374zM613.368 0h-16.591v13.355h16.591V0zm-14.831 26.553h12.883v80.478h-12.883V26.553zm72.68-2.576c-15.931 0-25.923 9.018-30.92 23.662V26.553h-12.883v80.478h12.883V76.298c0-27.685 9.49-41.543 27.369-41.543 11.752 0 19.325 5.154 19.325 22.374v49.902h12.884V55.715c0-20.771-8.516-31.738-28.658-31.738z"/><path fill-rule="evenodd" clip-rule="evenodd" d="M778.148 40.412V26.554H791v80.666c0 21.431-10.464 33.812-39.749 33.812-23.976 0-36.859-10.464-38.305-28.816h12.727c.974 10.621 7.729 18.666 25.609 18.666 18.979 0 26.866-6.599 26.866-23.82V89.685c-5.467 10.464-15.46 15.618-29.945 15.618-25.264 0-37.173-15.775-37.173-40.57 0-24.636 11.909-40.41 37.173-40.41 14.642 0 24.478 5.781 29.945 16.089zm-53.952 24.322c0 21.714 8.704 30.419 27.055 30.419 17.062 0 26.897-8.548 26.866-30.42 0-21.713-9.804-30.26-26.866-30.26-18.351 0-27.055 8.547-27.055 30.26zM68.721 186.44c0-14.486-9.992-24.636-32.02-24.636-22.215 0-34.281 10.935-34.784 27.999h12.726c.817-10.465 6.756-17.881 22.53-17.881 15.617 0 19.796 6.285 19.796 14.487 0 6.127-3.55 8.359-12.066 9.804l-20.456 3.394C7.07 202.529 0 210.763 0 223.772c0 15.304 11.092 23.348 26.552 23.348 18.665 0 27.212-11.281 30.26-20.928 0 5.97.471 11.91 1.131 18.823h11.752c-.817-7.888-.974-14.172-.974-19.954V186.44zM56.97 206.897c0 15.304-8.861 30.105-27.84 30.105-9.49 0-16.089-4.494-16.089-13.67 0-8.704 5.154-12.884 16.089-15.146l13.354-2.734c6.128-1.289 10.464-2.577 14.486-5.468v6.913zm120.756-68.913c22.844 0 30.731 11.753 30.731 26.553 0 15.461-9.332 23.191-20.142 25.14 11.752 1.445 21.902 9.647 21.902 26.553 0 17.535-10.621 28.816-32.837 28.816h-56.403V137.984h56.749zm-1.603 96.284c14.958 0 20.111-8.045 20.111-19.483 0-12.727-6.599-20.143-22.719-20.112h-39.184v39.595h41.792zm-41.792-49.745h38.87c15.146 0 21.242-6.285 21.242-18.037 0-12.099-4.525-17.724-19.482-17.724h-40.63v35.761zm125.534 63.1c26.709 0 36.073-15.146 37.675-27.37h-11.752c-2.419 10.15-9.647 17.534-25.421 17.534-16.088 0-26.709-8.044-27.683-30.104h64.699c.314-1.917.314-3.551.314-5.625 0-23.505-13.669-40.097-37.832-40.097-26.71 0-39.907 18.666-39.907 42.674 0 24.291 12.223 42.988 39.907 42.988zm.157-75.827c14.957 0 24.478 7.731 25.106 26.24h-52.161c1.791-19.012 11.783-26.24 27.055-26.24z"/><path d="M327.957 234.582h25.578v10.433h-18.979c-15.46 0-19.482-5.939-19.482-18.823v-51.505h-15.303v-7.259l16.434-4.022 4.808-16.718h6.913v18.038h42.609l5.216-18.038h6.913v18.038h26.552v9.961h-26.552v59.864h25.609v10.464h-18.979c-15.46 0-19.482-5.939-19.482-18.823v-51.505h-41.855v59.895z"/><path fill-rule="evenodd" clip-rule="evenodd" d="M489.752 220.253H478c-2.42 10.15-9.647 17.534-25.421 17.534-16.088 0-26.709-8.044-27.683-30.104h64.699c.314-1.917.314-3.551.314-5.625 0-23.505-13.669-40.097-37.833-40.097-26.709 0-39.906 18.666-39.906 42.674 0 24.322 12.223 42.988 39.906 42.988 26.741 0 36.073-15.146 37.676-27.37zm-37.519-48.457c14.958 0 24.479 7.731 25.107 26.24h-52.161c1.791-19.012 11.783-26.24 27.054-26.24z"/><path d="M543.924 176.133c-23.818-.817-28.971 16.592-28.971 39.28h.031v29.602h-12.883v-80.478h12.883v21.243c4.808-13.355 14.14-22.374 29.443-22.374h2.891v12.727h-3.394zM164.34 374.64c-26.709 0-39.121-15.304-39.121-45.251 0-29.947 12.726-45.251 39.435-45.251 23.19 0 35.099 10.779 37.362 31.707h13.511c-2.576-26.553-17.533-42.831-50.559-42.831-36.858 0-53.764 24.134-53.764 56.344 0 32.524 16.592 56.343 53.45 56.343 34.282 0 49.585-18.194 51.345-45.408H202.33c-1.446 21.809-13.669 34.347-37.99 34.347zm77.614-51.033c4.996-14.643 14.988-23.662 30.919-23.662 20.111 0 28.658 10.967 28.658 31.738v51.347h-12.883v-49.901c0-17.221-7.573-22.374-19.325-22.374-17.88 0-27.369 13.858-27.369 41.543v30.732H229.07V270.343h12.884v53.264zm89.303-47.639h-16.592v13.355h16.592v-13.355zm-14.832 26.553h12.883v80.478h-12.883v-80.478zm64.668 72.622c-16.906 0-27.212-9.019-27.212-32.367 0-23.191 10.621-32.367 27.683-32.367 14.957 0 23.033 8.359 24.95 21.557h12.066c-1.288-18.666-13.355-32.021-37.519-32.021-26.08 0-40.252 18.194-40.252 42.831 0 24.637 13.857 42.831 40.252 42.831 24.478 0 37.519-14.801 38.461-33.31h-12.223c-1.571 13.67-9.929 22.846-26.206 22.846z"/><path fill-rule="evenodd" clip-rule="evenodd" d="M464.708 299.787c22.027 0 32.02 10.151 32.02 24.637h-.032v38.589c0 5.782.158 12.067.975 19.955h-11.753c-.659-6.914-1.131-12.853-1.131-18.824-3.048 9.648-11.595 20.929-30.26 20.929-15.46 0-26.552-8.045-26.552-23.348 0-13.041 7.102-21.243 24.478-24.134l20.457-3.394c8.515-1.445 12.066-3.677 12.066-9.804 0-8.202-4.179-14.487-19.796-14.487-15.775 0-21.713 7.416-22.53 17.88h-12.727c.503-17.063 12.569-27.999 34.785-27.999zm-7.573 75.199c18.98 0 27.841-14.801 27.841-30.105v-6.913c-4.022 2.891-8.359 4.179-14.486 5.468l-13.355 2.734c-10.935 2.262-16.088 6.442-16.088 15.146 0 9.176 6.599 13.67 16.088 13.67zm87.826-74.696c14.587 0 24.403 5.738 29.883 15.972v-13.741h12.883v80.667c0 21.431-10.463 33.812-39.749 33.812-23.975 0-36.859-10.464-38.304-28.816H522.4c.974 10.621 7.73 18.666 25.609 18.666 19.011 0 26.898-6.599 26.898-23.82v-17.377c-5.467 10.464-15.46 15.618-29.946 15.618-25.263 0-37.172-15.775-37.172-40.569 0-24.637 11.909-40.412 37.172-40.412zm3.08 70.831c-18.351 0-27.055-8.705-27.055-30.419 0-21.746 8.704-30.262 27.055-30.262 17.062 0 26.898 8.548 26.898 30.262-.032 21.871-9.836 30.419-26.898 30.419zm50.433-28.502c0-24.008 13.355-42.674 40.567-42.674 27.054 0 40.409 18.854 40.409 42.674 0 24.165-13.355 42.988-40.409 42.988-27.212 0-40.567-18.666-40.567-42.988zm13.04.157c0 22.563 9.333 32.367 27.527 32.367 18.193 0 27.369-9.836 27.369-32.367 0-22.72-9.176-32.367-27.369-32.367-18.194 0-27.527 9.679-27.527 32.367z"/></symbol><symbol preserveAspectRatio="xMidYMax meet" id="logo-top" viewBox="0 0 1024.9 599"><title>logo-top</title><path d="M0 11.3l504.4 504.4V599h16v-83.3l504.5-504.4L1013.5 0 512.4 501.1 11.3 0z"/></symbol><symbol id="logo" viewBox="0 0 230 167"><title>logo</title><path fill-rule="evenodd" clip-rule="evenodd" d="M80.503 0c8.386 0 11.919 5.802 11.919 12.81 0 7.076-3.533 12.917-11.927 12.917H69.881V0h10.622zm-7.425 2.594V23.14h6.845c6.814 0 9.156-3.791 9.156-10.33 0-6.54-2.311-10.216-9.156-10.216h-6.845zm40.038 17.176c-.39 2.94-2.618 6.578-9.004 6.578-6.616 0-9.538-4.49-9.538-10.33 0-5.764 3.15-10.254 9.538-10.254 5.776 0 9.042 3.983 9.042 9.632 0 .499 0 .89-.077 1.35H97.618c.229 5.304 2.77 7.238 6.616 7.238 3.769 0 5.494-1.773 6.074-4.213h2.808zm-2.969-5.333c-.152-4.452-2.419-6.31-5.997-6.31-3.655 0-6.036 1.735-6.463 6.31h12.46z"/><path d="M125.103 17.414c2.427.346 3.503 1.351 3.503 3.209 0 2.164-1.343 3.361-4.739 3.369-4.426 0-5.891-2.088-6.12-4.72h-2.846c.076 4.06 2.61 7.076 8.882 7.076 5.113 0 7.844-1.934 7.844-5.879 0-3.17-1.61-5.065-6.035-5.725l-4.075-.584c-2.419-.345-3.113-1.512-3.113-2.863 0-1.895 1.35-3.208 4.616-3.208 3.541 0 5.006 1.82 5.196 3.83h3.037c-.236-3.638-3.121-6.194-8.157-6.194-4.845 0-7.691 2.203-7.691 5.803 0 2.985 1.885 4.766 5.234 5.226l4.464.66zm8.882-14.206h3.96V0h-3.96v3.208zm.42 3.178v19.34h3.075V6.387h-3.075z"/><path fill-rule="evenodd" clip-rule="evenodd" d="M156.281 21.551c-1.312 2.518-3.693 3.753-7.157 3.753-6.036 0-8.882-3.791-8.874-9.754 0-5.918 2.846-9.71 8.882-9.71 3.502 0 5.852 1.39 7.157 3.869V6.386h3.075v19.371c0 5.15-2.503 8.128-9.5 8.128-5.73 0-8.813-2.51-9.156-6.923h3.037c.228 2.556 1.838 4.49 6.112 4.49 4.54 0 6.424-1.589 6.424-5.726v-4.175zm0-5.994c0-5.226-2.35-7.276-6.424-7.276-4.388 0-6.463 2.05-6.463 7.276 0 5.227 2.075 7.314 6.463 7.314 4.082 0 6.424-2.049 6.424-7.314z"/><path d="M163.134 25.727h3.075v-7.392c0-6.654 2.266-9.985 6.539-9.985 2.808 0 4.617 1.244 4.617 5.38v11.997h3.075V13.385c0-4.989-2.038-7.621-6.845-7.621-3.807 0-6.196 2.164-7.386 5.687V6.386h-3.075v19.34zm20.442-22.519h3.96V0h-3.96v3.208zm.427 22.519h3.075V6.386h-3.075v19.34zm24.212 0V13.385c0-4.989-2.038-7.621-6.845-7.621-3.807 0-6.196 2.164-7.386 5.687V6.386h-3.075v19.34h3.075v-7.39c0-6.655 2.266-9.986 6.539-9.986 2.808 0 4.617 1.244 4.617 5.38v11.997h3.075z"/><path fill-rule="evenodd" clip-rule="evenodd" d="M226.917 9.709V6.386H230V25.75c0 5.15-2.503 8.127-9.5 8.127-5.731 0-8.813-2.51-9.157-6.923h3.037c.229 2.556 1.839 4.49 6.112 4.49 4.54 0 6.425-1.588 6.425-5.725v-4.175c-1.312 2.517-3.693 3.753-7.157 3.753-6.036 0-8.882-3.792-8.882-9.748 0-5.917 2.846-9.708 8.882-9.708 3.502 0 5.852 1.389 7.157 3.868zm-12.888 5.84c0 5.227 2.076 7.315 6.463 7.315 4.075 0 6.425-2.05 6.425-7.315 0-5.226-2.35-7.275-6.425-7.275-4.387 0-6.463 2.049-6.463 7.276zM49.828 38.889c5.265 0 7.653 2.433 7.653 5.917h.008v9.295c0 1.389.038 2.9.229 4.797H54.91c-.153-1.666-.267-3.094-.267-4.529-.733 2.318-2.77 5.028-7.234 5.028-3.693 0-6.348-1.935-6.348-5.611 0-3.131 1.694-5.104 5.845-5.802l4.883-.814c2.038-.345 2.884-.882 2.884-2.356 0-1.972-1-3.484-4.73-3.484-3.77 0-5.197 1.773-5.388 4.29h-3.037c.115-4.098 3-6.731 8.31-6.731zM48.02 56.956c4.54 0 6.653-3.561 6.653-7.238V48.06c-.961.691-1.999 1.006-3.464 1.313l-3.19.66c-2.617.545-3.845 1.55-3.845 3.638 0 2.203 1.58 3.285 3.846 3.285zm35.535-23.8c5.463 0 7.348 2.824 7.348 6.385 0 3.715-2.228 5.572-4.807 6.033 2.808.353 5.234 2.325 5.234 6.385 0 4.214-2.533 6.923-7.844 6.923H70.003V33.156h13.552zm-.382 23.14c3.58 0 4.808-1.934 4.808-4.682 0-3.055-1.58-4.835-5.426-4.835h-9.362v9.517h9.98zm-9.98-11.95h9.286c3.617 0 5.082-1.512 5.082-4.344 0-2.901-1.076-4.252-4.655-4.252h-9.713v8.596zm38.999 8.588c-.389 2.94-2.617 6.578-9.004 6.578-6.615 0-9.538-4.49-9.538-10.33 0-5.765 3.152-10.255 9.538-10.255 5.777 0 9.042 3.984 9.042 9.632 0 .5 0 .89-.076 1.351h-15.46c.23 5.304 2.77 7.238 6.616 7.238 3.77 0 5.494-1.773 6.074-4.214h2.808zm-2.968-5.342c-.153-4.451-2.419-6.308-5.998-6.308-3.655 0-6.035 1.742-6.463 6.308h12.461z"/><path d="M121.036 58.89h4.525v-2.517h-6.112V41.982h10.004v12.38c0 3.093.961 4.528 4.654 4.528h4.54v-2.517h-6.112V41.982h6.349v-2.395h-6.349v-4.336h-1.655l-1.244 4.336h-10.179v-4.336h-1.656l-1.152 4.022-3.923.967v1.742h3.656v12.38c0 3.093.961 4.528 4.654 4.528z"/><path fill-rule="evenodd" clip-rule="evenodd" d="M155.312 52.934h2.808c-.381 2.94-2.617 6.578-9.004 6.578-6.615 0-9.538-4.49-9.538-10.33 0-5.765 3.152-10.255 9.538-10.255 5.777 0 9.043 3.984 9.043 9.632 0 .5 0 .89-.077 1.351h-15.459c.229 5.304 2.77 7.238 6.616 7.238 3.769 0 5.493-1.773 6.073-4.214zm-.16-5.342c-.152-4.451-2.419-6.308-5.997-6.308-3.648 0-6.036 1.742-6.463 6.308h12.46z"/><path d="M161.066 58.89h3.075v-7.123c0-5.456 1.228-9.632 6.921-9.44h.809v-3.054h-.695c-3.647 0-5.883 2.172-7.035 5.38v-5.104h-3.075v19.34zM92.674 81.8h-3.266c-.351 5.219-3.274 8.235-9.073 8.235-6.387 0-9.347-3.669-9.347-10.868 0-7.191 3.037-10.868 9.423-10.868 5.532 0 8.379 2.594 8.92 7.622h3.228c-.618-6.386-4.197-10.293-12.08-10.293-8.812 0-12.849 5.803-12.849 13.54 0 7.812 3.968 13.538 12.774 13.538 8.195 0 11.85-4.367 12.27-10.906zm20.434 10.253V79.712c0-4.996-2.037-7.621-6.845-7.621-3.807 0-6.196 2.164-7.386 5.687v-12.81h-3.075v27.085h3.075v-7.39c0-6.655 2.266-9.986 6.539-9.986 2.808 0 4.617 1.244 4.617 5.38v11.996h3.075zm6.631-19.348h-3.075v19.34h3.075v-19.34zm.465-6.385h-3.96v3.207h3.96V66.32zm21.106 18.342h-2.922c-.382 3.285-2.388 5.496-6.265 5.488-4.036 0-6.501-2.164-6.501-7.775 0-5.572 2.541-7.775 6.616-7.775 3.571 0 5.501 2.011 5.959 5.181h2.885c-.313-4.49-3.198-7.698-8.966-7.698-6.227 0-9.615 4.375-9.615 10.292 0 5.918 3.304 10.292 9.615 10.292 5.845 0 8.966-3.553 9.194-8.005z"/><path fill-rule="evenodd" clip-rule="evenodd" d="M152.1 72.052c5.265 0 7.653 2.433 7.653 5.918h.008v9.287c0 1.389.038 2.9.229 4.796h-2.808c-.153-1.665-.267-3.1-.267-4.528-.733 2.318-2.77 5.027-7.234 5.027-3.693 0-6.349-1.934-6.349-5.61 0-3.132 1.694-5.104 5.845-5.802l4.884-.814c2.037-.345 2.884-.883 2.884-2.356 0-1.973-.999-3.485-4.731-3.485-3.769 0-5.196 1.781-5.387 4.298h-3.037c.115-4.098 2.999-6.73 8.31-6.73zm-1.808 18.067c4.54 0 6.653-3.56 6.653-7.237v-1.658c-.961.69-1.999 1.005-3.464 1.313l-3.189.66c-2.618.544-3.846 1.55-3.846 3.637 0 2.203 1.579 3.285 3.846 3.285zm20.983-17.951c3.503 0 5.853 1.389 7.158 3.868h.008v-3.331h3.075v19.371c0 5.15-2.503 8.128-9.5 8.128-5.731 0-8.814-2.51-9.157-6.923h3.037c.229 2.556 1.839 4.49 6.112 4.49 4.54 0 6.425-1.589 6.425-5.725V87.87c-1.313 2.517-3.693 3.753-7.158 3.753-6.035 0-8.881-3.792-8.881-9.748 0-5.917 2.846-9.708 8.881-9.708zm-5.73 9.708c0 5.227 2.075 7.315 6.463 7.315 4.075 0 6.425-2.057 6.425-7.315 0-5.226-2.35-7.276-6.425-7.276-4.388 0-6.463 2.05-6.463 7.276zm18.519.469c0-5.764 3.19-10.254 9.691-10.254 6.463 0 9.653 4.52 9.653 10.254 0 5.802-3.19 10.33-9.653 10.33-6.501 0-9.691-4.49-9.691-10.33zm3.113.038c0 5.419 2.229 7.775 6.578 7.775s6.539-2.364 6.539-7.775c0-5.457-2.19-7.775-6.539-7.775s-6.578 2.318-6.578 7.775z"/><path d="M2.428 72.459l26.256 26.408L54.94 72.458l2.428 2.443L30.4 102.025v35.409l26.967 27.124L54.94 167l-26.256-26.409L2.428 167 0 164.558l26.967-27.124v-35.409L0 74.901l2.428-2.442z"/></symbol><symbol id="nav-close" viewBox="0 0 43.1 42.1"><title>nav-close</title><path d="M0 2.065L2.12-.056l16.97 16.97-2.12 2.122zm0 37.99l16.97-16.97 2.122 2.121-16.97 16.97zm24-14.989l2.121-2.122 16.97 16.97-2.12 2.122zm0-8.01L40.97.086l2.121 2.121-16.97 16.97z"/></symbol><symbol id="nav-open" viewBox="0 0 50 18"><title>nav-open</title><path d="M0 0h50v3H0zm0 15h50v3H0z"/></symbol></svg>