<svg width="108" height="107" viewBox="0 0 108 107" xmlns="http://www.w3.org/2000.1/svg"><path d="M107.143 59V48.44H93.5425L56.9025 52.6L85.7025 29.56L95.3025 19.96L87.7825 12.44L78.1825 22.04L55.1425 50.84L59.3025 14.2V0.599997H48.7425V14.2L52.7425 50.68L29.7025 22.04L20.1025 12.44L12.7425 19.96L22.3425 29.56L51.1425 52.6L14.3425 48.44L0.7425 48.6V59H14.3425L50.9825 55L22.1825 78.04L12.5825 87.64L20.1025 95.16L29.7025 85.56L52.7425 56.76L48.7425 93.4V107H59.3025V93.4L55.1425 56.6L78.3425 85.56L87.9425 95.16L95.3025 87.64L85.7025 78.04L57.0625 55L93.5425 59H107.143Z"/></svg>
