<?xml version="1.0" encoding="utf-8"?>
<!-- Generator: Adobe Illustrator 21.1.0, SVG Export Plug-In . SVG Version: 6.00 Build 0)  -->
<svg version="1.1" id="Layer_1" xmlns="http://www.w3.org/2000/svg" xmlns:xlink="http://www.w3.org/1999/xlink" x="0px" y="0px"
	 viewBox="0 0 20 20" style="enable-background:new 0 0 20 20;" xml:space="preserve">
<path d="M10,2c-4.4,0-8,3.6-8,8s3.6,8,8,8s8-3.6,8-8S14.4,2,10,2z M3.2,10c0-3.7,3-6.8,6.8-6.8c1.6,0,3.1,0.6,4.3,1.6l-9.5,9.5
	C3.8,13.1,3.2,11.6,3.2,10z M10,16.8c-1.6,0-3.1-0.6-4.3-1.6l9.5-9.5c1,1.2,1.6,2.7,1.6,4.3C16.8,13.7,13.7,16.8,10,16.8z"/>
</svg>
