<svg width="230" height="167" viewBox="0 0 230 167" xmlns="http://www.w3.org/2000/svg">
<path fill-rule="evenodd" clip-rule="evenodd" d="M80.5028 0C88.8887 0 92.4217 5.80231 92.4217 12.8094C92.4217 19.8858 88.8887 25.7265 80.4951 25.7265H69.8811V0H80.5028ZM73.0783 2.59414V23.14H79.9229C86.7369 23.14 89.0795 19.3485 89.0795 12.8094C89.0795 6.27047 86.7675 2.59414 79.9229 2.59414H73.0783Z" fill="#000000"/>
<path fill-rule="evenodd" clip-rule="evenodd" d="M113.116 19.7707C112.726 22.7102 110.498 26.3481 104.112 26.3481C97.496 26.3481 94.5735 21.8582 94.5735 16.0176C94.5735 10.2537 97.7249 5.7639 104.112 5.7639C109.888 5.7639 113.154 9.74715 113.154 15.396C113.154 15.8948 113.154 16.2862 113.077 16.7467H97.618C97.8469 22.0501 100.388 23.9842 104.234 23.9842C108.003 23.9842 109.728 22.2113 110.308 19.7707H113.116ZM110.147 14.4366C109.995 9.98512 107.728 8.12775 104.15 8.12775C100.495 8.12775 98.114 9.86229 97.6867 14.4366H110.147Z" fill="#000000"/>
<path d="M125.103 17.4144C127.53 17.7598 128.606 18.7652 128.606 20.6226C128.606 22.7869 127.263 23.9842 123.867 23.9919C119.441 23.9919 117.976 21.9043 117.747 19.2718H114.901C114.977 23.3319 117.511 26.3481 123.783 26.3481C128.896 26.3481 131.627 24.4141 131.627 20.4691C131.627 17.2994 130.017 15.4036 125.592 14.7436L121.517 14.1602C119.098 13.8149 118.404 12.6483 118.404 11.2975C118.404 9.40182 119.754 8.08943 123.02 8.08943C126.561 8.08943 128.026 9.90839 128.216 11.9192H131.253C131.017 8.2813 128.132 5.72548 123.096 5.72548C118.251 5.72548 115.405 7.92819 115.405 11.5278C115.405 14.5134 117.29 16.2939 120.639 16.7544L125.103 17.4144Z" fill="#000000"/>
<path d="M133.985 3.20817H137.945V0H133.985V3.20817Z" fill="#000000"/>
<path d="M134.405 6.38552V25.7265H137.48V6.38552H134.405Z" fill="#000000"/>
<path fill-rule="evenodd" clip-rule="evenodd" d="M156.281 21.5512C154.969 24.0686 152.588 25.3043 149.124 25.3043C143.088 25.3043 140.242 21.5129 140.25 15.5495C140.25 9.6321 143.096 5.84063 149.132 5.84063C152.634 5.84063 154.984 7.22984 156.289 9.70883V6.38552H159.364V25.7572C159.364 30.907 156.861 33.8849 149.864 33.8849C144.134 33.8849 141.051 31.3752 140.708 26.9621H143.745C143.973 29.5178 145.583 31.4519 149.857 31.4519C154.397 31.4519 156.281 29.8633 156.281 25.7265V21.5512ZM156.281 15.5571C156.281 10.3305 153.931 8.2813 149.857 8.2813C145.469 8.2813 143.394 10.3305 143.394 15.5571C143.394 20.7837 145.469 22.8714 149.857 22.8714C153.939 22.8714 156.281 20.8221 156.281 15.5571Z" fill="#000000"/>
<path d="M163.134 25.7265H166.209V18.3355C166.209 11.6813 168.475 8.35035 172.748 8.35035C175.556 8.35035 177.365 9.59369 177.365 13.7305V25.7265H180.44V13.3851C180.44 8.39635 178.402 5.7639 173.595 5.7639C169.788 5.7639 167.399 7.92819 166.209 11.4511V6.38552H163.134V25.7265Z" fill="#000000"/>
<path d="M183.576 3.20817H187.536V0H183.576V3.20817Z" fill="#000000"/>
<path d="M184.003 25.7265H187.078V6.38552H184.003V25.7265Z" fill="#000000"/>
<path d="M208.215 25.7265V13.3851C208.215 8.39635 206.177 5.7639 201.37 5.7639C197.563 5.7639 195.174 7.92819 193.984 11.4511V6.38552H190.909V25.7265H193.984V18.3355C193.984 11.6813 196.25 8.35035 200.523 8.35035C203.331 8.35035 205.14 9.59369 205.14 13.7305V25.7265H208.215Z" fill="#000000"/>
<path fill-rule="evenodd" clip-rule="evenodd" d="M226.917 9.70883V6.38552H230V25.7495C230 30.8994 227.497 33.8772 220.5 33.8772C214.769 33.8772 211.687 31.3675 211.343 26.9544H214.38C214.609 29.5102 216.219 31.4443 220.492 31.4443C225.032 31.4443 226.917 29.8556 226.917 25.7188V21.5435C225.605 24.061 223.224 25.2966 219.76 25.2966C213.724 25.2966 210.878 21.5052 210.878 15.5495C210.878 9.6321 213.724 5.84063 219.76 5.84063C223.262 5.84063 225.612 7.22984 226.917 9.70883ZM214.029 15.5495C214.029 20.7761 216.105 22.8637 220.492 22.8637C224.567 22.8637 226.917 20.8145 226.917 15.5495C226.917 10.3228 224.567 8.27362 220.492 8.27362C216.105 8.27362 214.029 10.3228 214.029 15.5495Z" fill="#000000"/>
<path fill-rule="evenodd" clip-rule="evenodd" d="M49.8281 38.889C55.0931 38.889 57.4815 41.3219 57.4815 44.8064H57.4891V54.1007C57.4891 55.4899 57.5273 57.0019 57.718 58.8976H54.91C54.7574 57.2321 54.6429 55.8045 54.6429 54.3693C53.9104 56.6872 51.873 59.3965 47.4092 59.3965C43.716 59.3965 41.0606 57.4624 41.0606 53.786C41.0606 50.6547 42.7546 48.6823 46.9056 47.9838L51.7891 47.1702C53.8265 46.8249 54.6735 46.2877 54.6735 44.8141C54.6735 42.8415 53.6738 41.3296 49.9425 41.3296C46.1731 41.3296 44.7462 43.1026 44.5554 45.6199H41.5184C41.6329 41.5215 44.5173 38.889 49.8281 38.889ZM48.0196 56.9558C52.5598 56.9558 54.6735 53.3946 54.6735 49.7184V48.0605C53.712 48.7513 52.6742 49.066 51.2092 49.3729L48.0196 50.033C45.4024 50.5779 44.1739 51.5833 44.1739 53.671C44.1739 55.8737 45.7534 56.9558 48.0196 56.9558Z" fill="#000000"/>
<path fill-rule="evenodd" clip-rule="evenodd" d="M83.555 33.1558C89.0184 33.1558 90.9032 35.9802 90.9032 39.5414C90.9032 43.256 88.6751 45.1134 86.096 45.5739C88.904 45.9269 91.3305 47.8994 91.3305 51.9594C91.3305 56.1729 88.7971 58.8822 83.4863 58.8822H70.0032V33.1558H83.555ZM83.1735 56.2957C86.7522 56.2957 87.9807 54.3616 87.9807 51.614C87.9807 48.5594 86.4012 46.7788 82.5554 46.7788H73.1927V56.2957H83.1735ZM73.1927 44.3459H82.4791C86.096 44.3459 87.561 42.834 87.561 40.0018C87.561 37.1007 86.4851 35.7499 82.9064 35.7499H73.1927V44.3459Z" fill="#000000"/>
<path fill-rule="evenodd" clip-rule="evenodd" d="M112.192 52.9341C111.803 55.8737 109.575 59.5116 103.188 59.5116C96.5727 59.5116 93.6502 55.0217 93.6502 49.1811C93.6502 43.4172 96.8016 38.9273 103.188 38.9273C108.965 38.9273 112.23 42.9107 112.23 48.5594C112.23 49.0583 112.23 49.4498 112.154 49.9102H96.6947C96.9237 55.2136 99.4646 57.1477 103.31 57.1477C107.08 57.1477 108.804 55.3748 109.384 52.9341H112.192ZM109.224 47.5924C109.071 43.1409 106.805 41.2836 103.226 41.2836C99.5714 41.2836 97.1907 43.0258 96.7634 47.5924H109.224Z" fill="#000000"/>
<path d="M121.036 58.8899H125.561V56.3725H119.449V41.9819H129.453V54.3616C129.453 57.4547 130.414 58.8899 134.107 58.8899H138.647V56.3725H132.535V41.9819H138.884V39.5874H132.535V35.2511H130.88L129.636 39.5874H119.457V35.2511H117.801L116.649 39.2728L112.726 40.2398V41.9819H116.382V54.3616C116.382 57.4547 117.343 58.8899 121.036 58.8899Z" fill="#000000"/>
<path fill-rule="evenodd" clip-rule="evenodd" d="M155.312 52.9341H158.12C157.739 55.8737 155.503 59.5116 149.116 59.5116C142.501 59.5116 139.578 55.0217 139.578 49.1811C139.578 43.4172 142.73 38.9273 149.116 38.9273C154.893 38.9273 158.159 42.9107 158.159 48.5594C158.159 49.0583 158.159 49.4498 158.082 49.9102H142.623C142.852 55.2136 145.393 57.1477 149.239 57.1477C153.008 57.1477 154.732 55.3748 155.312 52.9341ZM155.152 47.5924C155 43.1409 152.733 41.2836 149.155 41.2836C145.507 41.2836 143.119 43.0258 142.692 47.5924H155.152Z" fill="#000000"/>
<path d="M161.066 58.8899H164.141V51.7675C164.141 46.3106 165.369 42.1355 171.062 42.3274H171.871V39.2728H171.176C167.529 39.2728 165.293 41.4447 164.141 44.6529V39.549H161.066V58.8899Z" fill="#000000"/>
<path d="M92.6735 81.7996H89.4076C89.0566 87.0186 86.1341 90.0349 80.3349 90.0349C73.9481 90.0349 70.9875 86.3662 70.9875 79.1671C70.9875 71.9757 74.0245 68.2994 80.4112 68.2994C85.9433 68.2994 88.7895 70.8935 89.3313 75.9207H92.559C91.9409 69.535 88.3622 65.6285 80.4799 65.6285C71.6666 65.6285 67.6301 71.4307 67.6301 79.1671C67.6301 86.9802 71.598 92.7058 80.4036 92.7058C88.5988 92.7058 92.2538 88.3387 92.6735 81.7996Z" fill="#000000"/>
<path d="M113.108 92.0533V79.712C113.108 74.7156 111.071 72.0909 106.263 72.0909C102.456 72.0909 100.067 74.2552 98.8771 77.7779V64.9685H95.802V92.0533H98.8771V84.6624C98.8771 78.0082 101.143 74.6773 105.416 74.6773C108.224 74.6773 110.033 75.9207 110.033 80.0575V92.0533H113.108Z" fill="#000000"/>
<path d="M119.739 72.7048H116.664V92.0457H119.739V72.7048Z" fill="#000000"/>
<path d="M120.204 66.3193H116.244V69.5274H120.204V66.3193Z" fill="#000000"/>
<path d="M141.31 84.6624H138.388C138.006 87.9472 136 90.1576 132.123 90.1499C128.087 90.1499 125.622 87.9857 125.622 82.3752C125.622 76.8032 128.163 74.6005 132.238 74.6005C135.809 74.6005 137.739 76.6113 138.197 79.7811H141.082C140.769 75.2913 137.884 72.0832 132.116 72.0832C125.889 72.0832 122.501 76.4579 122.501 82.3752C122.501 88.2927 125.805 92.6674 132.116 92.6674C137.961 92.6674 141.082 89.1139 141.31 84.6624Z" fill="#000000"/>
<path fill-rule="evenodd" clip-rule="evenodd" d="M152.1 72.0525C157.365 72.0525 159.753 74.4854 159.753 77.9698H159.761V87.2565C159.761 88.6457 159.799 90.1576 159.99 92.0533H157.182C157.029 90.3879 156.915 88.9527 156.915 87.5252C156.182 89.843 154.145 92.5522 149.681 92.5522C145.988 92.5522 143.332 90.6181 143.332 86.9419C143.332 83.8104 145.026 81.838 149.177 81.1396L154.061 80.3261C156.098 79.9806 156.945 79.4434 156.945 77.9698C156.945 75.9974 155.946 74.4854 152.214 74.4854C148.445 74.4854 147.018 76.266 146.827 78.7834H143.79C143.905 74.685 146.789 72.0525 152.1 72.0525ZM150.292 90.1193C154.832 90.1193 156.945 86.5581 156.945 82.8818V81.224C155.984 81.9147 154.946 82.2294 153.481 82.5365L150.292 83.1965C147.674 83.7414 146.446 84.7468 146.446 86.8344C146.446 89.0371 148.025 90.1193 150.292 90.1193Z" fill="#000000"/>
<path fill-rule="evenodd" clip-rule="evenodd" d="M171.275 72.1676C174.778 72.1676 177.128 73.5567 178.433 76.0357H178.441V72.7048H181.516V92.0764C181.516 97.2263 179.013 100.204 172.016 100.204C166.285 100.204 163.202 97.6945 162.859 93.2814H165.896C166.125 95.8371 167.735 97.7712 172.008 97.7712C176.548 97.7712 178.433 96.1824 178.433 92.0457V87.8705C177.12 90.3879 174.74 91.6236 171.275 91.6236C165.24 91.6236 162.394 87.8321 162.394 81.8764C162.394 75.959 165.24 72.1676 171.275 72.1676ZM165.545 81.8764C165.545 87.103 167.62 89.1906 172.008 89.1906C176.083 89.1906 178.433 87.1338 178.433 81.8764C178.433 76.6497 176.083 74.6005 172.008 74.6005C167.62 74.6005 165.545 76.6497 165.545 81.8764Z" fill="#000000"/>
<path fill-rule="evenodd" clip-rule="evenodd" d="M184.064 82.3446C184.064 76.5807 187.254 72.0909 193.755 72.0909C200.218 72.0909 203.408 76.6113 203.408 82.3446C203.408 88.1468 200.218 92.675 193.755 92.675C187.254 92.675 184.064 88.1852 184.064 82.3446ZM187.177 82.3829C187.177 87.8015 189.406 90.1576 193.755 90.1576C198.104 90.1576 200.294 87.7938 200.294 82.3829C200.294 76.926 198.104 74.6082 193.755 74.6082C189.406 74.6082 187.177 76.926 187.177 82.3829Z" fill="#000000"/>
<path d="M2.42804 72.4585L28.6839 98.8673L54.9398 72.4585L57.3678 74.9006L30.4007 102.025V137.434L57.3678 164.558L54.9398 167L28.6839 140.591L2.42804 167L0 164.558L26.967 137.434V102.025L0 74.9006L2.42804 72.4585Z" fill="#000000"/>
</svg>
