<svg width="791" height="417" viewBox="0 0 791 417" xmlns="http://www.w3.org/2000/svg">
<path fill-rule="evenodd" clip-rule="evenodd" d="M215.307 53.2955C215.307 24.1338 200.507 0 165.408 0H120.977V107.062H165.408C200.507 107.062 215.307 82.7401 215.307 53.2955ZM134.331 96.2525V10.7785H162.989C191.646 10.7785 201.293 26.0821 201.293 53.2641C201.293 80.4775 191.489 96.2525 162.989 96.2525H134.331Z" fill="#000000"/>
<path fill-rule="evenodd" clip-rule="evenodd" d="M264.201 109.639C290.91 109.639 300.274 94.4928 301.877 82.2687H290.125C287.705 92.4188 280.478 99.8035 264.704 99.8035C248.615 99.8035 237.994 91.7589 237.02 69.699H301.719C302.034 67.7822 302.034 66.1481 302.034 64.0741C302.034 40.5687 288.365 23.9767 264.201 23.9767C237.492 23.9767 224.294 42.6427 224.294 66.6509C224.294 90.9418 236.518 109.639 264.201 109.639ZM264.389 33.8125C279.347 33.8125 288.868 41.5429 289.496 60.0518H237.335C239.094 41.0401 249.087 33.8125 264.389 33.8125Z" fill="#000000"/>
<path d="M321.327 80.1633C322.301 91.099 328.428 99.8035 346.936 99.8035C361.108 99.8035 366.733 94.807 366.733 85.7569C366.733 78.0265 362.239 73.8471 352.09 72.4015L333.425 69.6676C319.41 67.7193 311.523 60.3032 311.523 47.922C311.523 32.9641 323.464 23.7882 343.731 23.7882C364.816 23.7882 376.882 34.4096 377.856 49.5561H365.13C364.313 41.1972 358.186 33.624 343.386 33.624C329.685 33.624 324.061 39.0918 324.061 46.9793C324.061 52.6042 326.952 57.4436 337.101 58.8891L354.164 61.3088C372.671 64.0427 379.427 71.9302 379.427 85.1284C379.427 101.563 367.989 109.608 346.591 109.608C320.353 109.608 309.732 97.0696 309.418 80.1633H321.327Z" fill="#000000"/>
<path d="M405.822 0H389.231V13.3553H405.822V0Z" fill="#000000"/>
<path d="M390.991 26.5535H403.874V107.031H390.991V26.5535Z" fill="#000000"/>
<path fill-rule="evenodd" clip-rule="evenodd" d="M452.61 105.271C467.096 105.271 477.089 100.118 482.556 89.6534V107.031C482.556 124.251 474.669 130.851 455.658 130.851C437.779 130.851 431.023 122.806 430.049 112.185H417.323C418.768 130.536 431.652 141.001 455.627 141.001C484.913 141.001 495.377 128.619 495.377 107.188V26.5535H482.493V40.4116C477.026 30.1044 467.191 24.3223 452.548 24.3223C427.284 24.3223 415.375 40.0973 415.375 64.7339C415.406 89.4963 427.315 105.271 452.61 105.271ZM455.658 34.4409C472.721 34.4409 482.556 42.9883 482.556 64.7025C482.556 86.6052 472.752 95.1212 455.658 95.1212C437.308 95.1212 428.604 86.4167 428.604 64.7025C428.604 42.9883 437.308 34.4409 455.658 34.4409Z" fill="#000000"/>
<path d="M551.466 34.7553C533.586 34.7553 524.097 48.6134 524.097 76.2981V107.031H511.214V26.5535H524.097V47.6706C529.093 33.0269 539.085 24.0082 555.017 24.0082C575.127 24.0082 583.674 34.9438 583.674 55.7152V107.031H570.791V57.1293C570.791 39.9088 563.218 34.7553 551.466 34.7553Z" fill="#000000"/>
<path d="M613.368 0H596.777V13.3553H613.368V0Z" fill="#000000"/>
<path d="M598.537 26.5535H611.42V107.031H598.537V26.5535Z" fill="#000000"/>
<path d="M671.217 23.9767C655.286 23.9767 645.294 32.9955 640.297 47.6392V26.5535H627.414V107.031H640.297V76.2981C640.297 48.6133 649.787 34.7552 667.666 34.7552C679.418 34.7552 686.991 39.9088 686.991 57.1293V107.031H699.875V55.7152C699.875 34.9438 691.359 23.9767 671.217 23.9767Z" fill="#000000"/>
<path fill-rule="evenodd" clip-rule="evenodd" d="M778.148 40.4116V26.5535H791V107.22C791 128.651 780.536 141.032 751.251 141.032C727.275 141.032 714.392 130.568 712.946 112.216H725.673C726.647 122.837 733.402 130.882 751.282 130.882C770.261 130.882 778.148 124.283 778.148 107.062V89.6848C772.681 100.149 762.688 105.303 748.203 105.303C722.939 105.303 711.03 89.5277 711.03 64.7339C711.03 40.0973 722.939 24.3223 748.203 24.3223C762.845 24.3223 772.681 30.1044 778.148 40.4116ZM724.196 64.7339C724.196 86.4481 732.9 95.1526 751.251 95.1526C768.313 95.1526 778.148 86.6052 778.117 64.7339C778.117 43.0198 768.313 34.4724 751.251 34.4724C732.9 34.4724 724.196 43.0198 724.196 64.7339Z" fill="#000000"/>
<path fill-rule="evenodd" clip-rule="evenodd" d="M68.7211 186.44C68.7211 171.954 58.7288 161.804 36.7015 161.804C14.4858 161.804 2.41954 172.739 1.91678 189.803H14.6429C15.4599 179.338 21.3988 171.922 37.1729 171.922C52.7899 171.922 56.9691 178.207 56.9691 186.409C56.9691 192.536 53.4184 194.768 44.9028 196.213L24.4468 199.607C7.07008 202.529 0 210.763 0 223.772C0 239.076 11.0922 247.12 26.5521 247.12C45.2171 247.12 53.764 235.839 56.812 226.192C56.812 232.162 57.2833 238.102 57.9432 245.015H69.6952C68.8783 237.127 68.7211 230.843 68.7211 225.061V186.44ZM56.9691 206.897C56.9691 222.201 48.1079 237.002 29.1287 237.002C19.6391 237.002 13.0404 232.508 13.0404 223.332C13.0404 214.628 18.1937 210.448 29.1287 208.186L42.4833 205.452C48.6107 204.163 52.947 202.875 56.9691 199.984V206.897Z" fill="#000000"/>
<path fill-rule="evenodd" clip-rule="evenodd" d="M177.726 137.984C200.57 137.984 208.457 149.737 208.457 164.537C208.457 179.998 199.125 187.728 188.315 189.677C200.067 191.122 210.217 199.324 210.217 216.23C210.217 233.765 199.596 245.046 177.38 245.046H120.977V137.984H177.726ZM176.123 234.268C191.081 234.268 196.234 226.223 196.234 214.785C196.234 202.058 189.635 194.642 173.515 194.673H134.331V234.268H176.123ZM134.331 184.523H173.201C188.347 184.523 194.443 178.238 194.443 166.486C194.443 154.387 189.918 148.762 174.961 148.762H134.331V184.523Z" fill="#000000"/>
<path fill-rule="evenodd" clip-rule="evenodd" d="M259.865 247.623C286.574 247.623 295.938 232.477 297.54 220.253H285.788C283.369 230.403 276.141 237.787 260.367 237.787C244.279 237.787 233.658 229.743 232.684 207.683H297.383C297.697 205.766 297.697 204.132 297.697 202.058C297.697 178.553 284.028 161.961 259.865 161.961C233.155 161.961 219.958 180.627 219.958 204.635C219.958 228.926 232.181 247.623 259.865 247.623ZM260.022 171.796C274.979 171.796 284.5 179.527 285.128 198.036H232.967C234.758 179.024 244.75 171.796 260.022 171.796Z" fill="#000000"/>
<path d="M327.957 234.582H353.535V245.015H334.556C319.096 245.015 315.074 239.076 315.074 226.192V174.687H299.771V167.428L316.205 163.406L321.013 146.688H327.926V164.726H370.535L375.751 146.688H382.664V164.726H409.216V174.687H382.664V234.551H408.273V245.015H389.294C373.834 245.015 369.812 239.076 369.812 226.192V174.687H327.957V234.582Z" fill="#000000"/>
<path fill-rule="evenodd" clip-rule="evenodd" d="M489.752 220.253H478C475.58 230.403 468.353 237.787 452.579 237.787C436.491 237.787 425.87 229.743 424.896 207.683H489.595C489.909 205.766 489.909 204.132 489.909 202.058C489.909 178.553 476.24 161.961 452.076 161.961C425.367 161.961 412.17 180.627 412.17 204.635C412.17 228.957 424.393 247.623 452.076 247.623C478.817 247.623 488.149 232.477 489.752 220.253ZM452.233 171.796C467.191 171.796 476.712 179.527 477.34 198.036H425.179C426.97 179.024 436.962 171.796 452.233 171.796Z" fill="#000000"/>
<path d="M543.924 176.133C520.106 175.316 514.953 192.725 514.953 215.413H514.984V245.015H502.101V164.537H514.984V185.78C519.792 172.425 529.124 163.406 544.427 163.406H547.318V176.133H543.924Z" fill="#000000"/>
<path d="M164.34 374.64C137.631 374.64 125.219 359.336 125.219 329.389C125.219 299.442 137.945 284.138 164.654 284.138C187.844 284.138 199.753 294.917 202.016 315.845H215.527C212.951 289.292 197.994 273.014 164.968 273.014C128.11 273.014 111.204 297.148 111.204 329.358C111.204 361.882 127.796 385.701 164.654 385.701C198.936 385.701 214.239 367.507 215.999 340.293H202.33C200.884 362.102 188.661 374.64 164.34 374.64Z" fill="#000000"/>
<path d="M241.954 323.607C246.95 308.964 256.942 299.945 272.873 299.945C292.984 299.945 301.531 310.912 301.531 331.683V383.03H288.648V333.129C288.648 315.908 281.075 310.755 269.323 310.755C251.443 310.755 241.954 324.613 241.954 352.298V383.03H229.07V270.343H241.954V323.607Z" fill="#000000"/>
<path d="M331.257 275.968H314.665V289.323H331.257V275.968Z" fill="#000000"/>
<path d="M316.425 302.521H329.308V382.999H316.425V302.521Z" fill="#000000"/>
<path d="M381.093 375.143C364.187 375.143 353.881 366.124 353.881 342.776C353.881 319.585 364.502 310.409 381.564 310.409C396.521 310.409 404.597 318.768 406.514 331.966H418.58C417.292 313.3 405.225 299.945 381.061 299.945C354.981 299.945 340.809 318.139 340.809 342.776C340.809 367.413 354.666 385.607 381.061 385.607C405.539 385.607 418.58 370.806 419.522 352.297H407.299C405.728 365.967 397.37 375.143 381.093 375.143Z" fill="#000000"/>
<path fill-rule="evenodd" clip-rule="evenodd" d="M464.708 299.787C486.735 299.787 496.728 309.938 496.728 324.424H496.696V363.013C496.696 368.795 496.854 375.08 497.671 382.968H485.918C485.259 376.054 484.787 370.115 484.787 364.144C481.739 373.792 473.192 385.073 454.527 385.073C439.067 385.073 427.975 377.028 427.975 361.725C427.975 348.684 435.077 340.482 452.453 337.591L472.91 334.197C481.425 332.752 484.976 330.52 484.976 324.393C484.976 316.191 480.797 309.906 465.18 309.906C449.405 309.906 443.467 317.322 442.65 327.786H429.923C430.426 310.723 442.492 299.787 464.708 299.787ZM457.135 374.986C476.115 374.986 484.976 360.185 484.976 344.881V337.968C480.954 340.859 476.617 342.147 470.49 343.436L457.135 346.17C446.2 348.432 441.047 352.612 441.047 361.316C441.047 370.492 447.646 374.986 457.135 374.986Z" fill="#000000"/>
<path fill-rule="evenodd" clip-rule="evenodd" d="M544.961 300.29C559.548 300.29 569.364 306.028 574.844 316.262V302.521H587.727V383.188C587.727 404.619 577.264 417 547.978 417C524.003 417 511.119 406.536 509.674 388.184H522.4C523.374 398.805 530.13 406.85 548.009 406.85C567.02 406.85 574.907 400.251 574.907 383.03V365.653C569.44 376.117 559.447 381.271 544.961 381.271C519.698 381.271 507.789 365.496 507.789 340.702C507.789 316.065 519.698 300.29 544.961 300.29ZM548.041 371.121C529.69 371.121 520.986 362.416 520.986 340.702C520.986 318.956 529.69 310.44 548.041 310.44C565.103 310.44 574.939 318.988 574.939 340.702C574.907 362.573 565.103 371.121 548.041 371.121Z" fill="#000000"/>
<path fill-rule="evenodd" clip-rule="evenodd" d="M598.474 342.619C598.474 318.611 611.829 299.945 639.041 299.945C666.095 299.945 679.45 318.799 679.45 342.619C679.45 366.784 666.095 385.607 639.041 385.607C611.829 385.607 598.474 366.941 598.474 342.619ZM611.514 342.776C611.514 365.339 620.847 375.143 639.041 375.143C657.234 375.143 666.41 365.307 666.41 342.776C666.41 320.056 657.234 310.409 639.041 310.409C620.847 310.409 611.514 320.088 611.514 342.776Z" fill="#000000"/>
</svg>
