<svg width="1440" height="620" viewBox="0 0 1440 620" fill="none" xmlns="http://www.w3.org/2000/svg">
<g clip-path="url(#clip0)">
<path d="M1167.2 318.3H481L361.2 438L270.5 339.1V278.8L0.100098 8.5V105L202.3 307V365.7L326 500.6V619.9H394.3V501.5L509.3 386.5H1195.5L1440.1 142V45.5L1167.2 318.3Z" fill="#757445"/>
<path d="M1440.1 156.8V141.9L1196 386L1169.4 316.2L1197.9 287.7V206.2H1198.2L1310.7 93.6999H1295.9L1198 191.6V93.5999H1187.5V195.6H1085.5V93.5999H1075V195.6H973V93.5999H962.5V195.6H860.5V93.5999H850V195.6H748V93.5999H737.5V195.6H635.5V93.5999H625V195.6H432.8L432.7 93.5999H422.2L422.3 195.6H105.5V93.5999H95.0001V195.6H0.100098V206.1H95.0001V499.2H0.100098V509.7H95.0001V619.9H105.5V509.7H191.7V619.9H202.2V509.7H394.2V619.9H404.7V509.7H508.4V619.9H518.9V509.7H624.9V619.9H635.4V509.7H737.4V619.9H747.9V509.7H849.9V619.9H860.4V509.7H962.4V619.9H972.9V509.7H1074.9V619.9H1085.4V509.7H1187.4V619.9H1197.9V509.7H1299.9V619.9H1310.4V509.7H1440.1V499.2H1310.4V397H1440.1V386.5H1210.3L1440.1 156.8ZM191.8 499.2H105.6V206.1H191.8V499.2ZM396.7 499.2H202.3V206.1H422.4L422.5 309.6L504.5 391.6L396.7 499.2ZM508.4 499.2H411.5L508.4 402.3V499.2V499.2ZM624.9 499.2H518.9V397H624.9V499.2ZM624.9 386.5H514.2L432.9 305.2L432.8 206.1H624.9V386.5ZM737.4 499.2H635.4V397H737.4V499.2ZM737.4 386.5H635.4V206.1H737.4V386.5ZM849.9 499.2H747.9V397H799H849.9V499.2ZM849.9 386.5H799H747.9V206.1H849.9V386.5ZM962.4 499.2H860.4V397H962.4V499.2ZM962.4 386.5H860.4V206.1H962.4V386.5ZM1074.9 499.2H972.9V397H1074.9V499.2ZM1074.9 386.5H972.9V206.1H1074.9V386.5ZM1085.4 206.1H1187.4V283.3L1157.2 313.6L1185 386.6H1085.4V206.1ZM1187.4 499.2H1085.4V397H1187.4V499.2ZM1299.9 397V499.2H1197.9V397H1199.8H1299.9Z" fill="#E5F955"/>
<path d="M628.1 619.9H627.1V305.8V267.5V248.4C627.1 245.2 627.1 242 627.1 238.9C627 237.4 627.1 235.8 626.9 234.3L626.7 232C626.6 231.2 626.5 230.5 626.4 229.7C625.6 223.6 624.2 217.6 622 211.8C619.8 206 617 200.5 613.6 195.4C610.2 190.3 606.2 185.6 601.7 181.3C597.2 177.1 592.3 173.3 587 170.2C581.7 167.1 576 164.6 570.2 162.8C564.3 161 558.2 159.9 552.1 159.4C550.6 159.2 549 159.2 547.5 159.2C546 159.2 544.3 159.1 542.7 159.1C539.4 159 536.2 158.8 532.9 158.5C526.4 157.8 519.9 156.6 513.6 154.6C510.4 153.6 507.3 152.4 504.3 151C501.3 149.6 498.4 147.9 495.6 146C490.1 142.2 485.2 137.4 481.4 131.7C477.6 126.1 475 119.8 473.3 113.3C471.7 106.8 471 100.2 471 93.5999H472C472 100.1 472.7 106.7 474.3 113C475.9 119.4 478.5 125.6 482.2 131.1C485.9 136.6 490.7 141.3 496.1 145.1C498.8 147 501.7 148.6 504.7 150C507.7 151.4 510.7 152.6 513.9 153.6C520.1 155.6 526.6 156.8 533 157.5C536.2 157.9 539.5 158 542.7 158.1C544.3 158.1 546 158.1 547.5 158.2C549.1 158.2 550.6 158.3 552.2 158.4C558.4 158.8 564.6 160 570.5 161.8C576.4 163.7 582.2 166.2 587.5 169.3C592.9 172.4 597.9 176.2 602.4 180.5C606.9 184.8 611 189.5 614.4 194.8C617.8 200 620.7 205.6 622.9 211.4C625.1 217.2 626.5 223.3 627.3 229.5C627.4 230.3 627.5 231 627.6 231.8L627.8 234.1C628 235.7 627.9 237.2 628 238.8C628.1 241.9 628 245.2 628 248.3V267.4V305.7V619.9H628.1Z" fill="#757445"/>
<path d="M633.1 619.9H632.1V305.8V267.5V248.4C632.1 245.2 632.1 242 632.1 238.8C632 237.2 632.1 235.5 631.9 233.9L631.7 231.5C631.6 230.7 631.5 229.9 631.4 229.1C630.6 222.6 629 216.2 626.8 210.1C624.5 204 621.5 198.1 617.9 192.7C614.3 187.2 610 182.2 605.3 177.7C600.6 173.2 595.3 169.2 589.7 166C584.1 162.7 578.1 160 571.8 158.1C565.6 156.2 559.1 155 552.6 154.5C551 154.3 549.3 154.3 547.7 154.3C546 154.3 544.5 154.2 542.9 154.2C539.8 154.1 536.6 153.9 533.5 153.6C527.3 153 521.1 151.8 515.2 149.9C512.2 149 509.4 147.8 506.5 146.5C503.7 145.2 501 143.6 498.5 141.9C493.4 138.4 489 134.1 485.6 129C482.1 123.9 479.8 118.2 478.2 112.2C476.7 106.2 476.1 100 476.1 93.7H477.1C477.1 99.9 477.8 106 479.2 111.9C480.7 117.8 483 123.4 486.4 128.4C489.7 133.4 494.1 137.6 499 141.1C501.5 142.8 504.1 144.3 506.9 145.6C509.7 146.9 512.5 148 515.4 148.9C521.3 150.7 527.3 151.9 533.5 152.6C536.6 152.9 539.7 153.1 542.8 153.2C544.4 153.2 545.9 153.2 547.5 153.3C549.1 153.3 550.8 153.4 552.4 153.5C559 154 565.5 155.2 571.8 157.1C578.1 159.1 584.2 161.8 589.9 165.1C595.6 168.4 600.9 172.4 605.7 177C610.5 181.6 614.8 186.6 618.4 192.1C622 197.6 625.1 203.5 627.4 209.7C629.7 215.9 631.3 222.4 632.1 228.9C632.2 229.7 632.3 230.5 632.4 231.4L632.6 233.9C632.8 235.5 632.8 237.2 632.8 238.8C632.9 242.1 632.8 245.2 632.8 248.4V267.5V305.8V619.9H633.1Z" fill="#757445"/>
<path d="M0.100098 502.5V501.5H640.4H960.6H1120.7H1140.7H1145.7C1146.5 501.5 1147.3 501.5 1148.2 501.5L1150.9 501.6C1154.5 501.8 1158 502.5 1161.4 503.5C1175.1 507.5 1186.6 518 1192.1 531.2C1193.4 534.5 1194.5 537.9 1195 541.4L1195.4 544C1195.5 544.9 1195.5 545.8 1195.6 546.7L1195.7 549.4V551.9V571.9V619.9H1194.7V571.9V551.9V549.4L1194.6 546.8C1194.5 545.9 1194.6 545.1 1194.4 544.2L1194 541.6C1193.5 538.2 1192.4 534.8 1191.2 531.6C1185.9 518.7 1174.6 508.4 1161.2 504.5C1157.8 503.6 1154.4 502.9 1150.9 502.7L1148.3 502.6C1147.4 502.5 1146.6 502.6 1145.8 502.6H1140.8H1120.8H960.6H640.4H0.100098V502.5Z" fill="#757445"/>
<path d="M0.100098 507.5V506.5H640.4H960.6H1120.7H1140.7C1144 506.5 1147.5 506.4 1150.6 506.6C1153.8 506.8 1156.9 507.4 1160 508.3C1172.3 511.9 1182.6 521.3 1187.5 533.1C1188.6 536.1 1189.6 539.1 1190.1 542.3L1190.5 544.7C1190.6 545.5 1190.6 546.3 1190.7 547.1L1190.8 549.5V552V572V620H1189.8V572V552V549.5L1189.7 547.2C1189.6 546.4 1189.7 545.6 1189.5 544.9L1189.1 542.6C1188.6 539.5 1187.7 536.5 1186.6 533.6C1181.9 522.1 1171.7 512.9 1159.8 509.4C1156.8 508.6 1153.7 507.9 1150.6 507.8L1148.3 507.7C1147.5 507.6 1146.7 507.7 1145.8 507.7H1140.8H1120.8H960.6H640.4H0.100098V507.5Z" fill="#757445"/>
<path d="M1078.1 93.5999H1077.1V619.8H1078.1V93.5999Z" fill="#757445"/>
<path d="M1083.1 93.5999H1082.1V619.8H1083.1V93.5999Z" fill="#757445"/>
<path d="M544.3 239.3V31.7998H542.3V239.3H520.8V284.3H565.8V239.3H544.3Z" fill="white"/>
<path d="M180.4 586.8C179.2 578.5 177.4 570.2 175 562.2C172.6 554.2 169.7 546.3 166.7 538.6L157.5 515.6L152.9 504.1C152.2 502.2 151.4 500.3 150.7 498.4C150 496.5 149.3 494.6 148.7 492.6C146.1 484.9 144 477 142.2 469C138.8 453.1 137 436.7 137 420.4V356.5C137 335.5 132.9 314.5 124.8 295.1C116.8 275.7 104.8 257.9 90 243C75.1 228.1 57.4 216.2 37.9 208.2C25.8 203.2 13 199.7 0 197.7V198.7C12.8 200.6 25.5 204.1 37.5 209.1C56.8 217.1 74.5 228.9 89.2 243.7C104 258.5 115.8 276.1 123.8 295.4C131.8 314.7 135.9 335.6 135.9 356.4V420.3V463.3C133.3 449.1 131.9 434.7 131.9 420.3V356.4C131.9 336 127.9 315.7 120.1 296.9C112.3 278.1 100.8 260.9 86.4 246.5C72 232.1 54.8 220.6 36 212.8C24.5 208 12.4 204.7 0.1 202.8V203.8C12.3 205.7 24.3 209 35.7 213.7C54.4 221.4 71.5 232.9 85.8 247.2C100.1 261.5 111.6 278.6 119.3 297.3C127.1 316 131 336.2 131 356.4V420.3V469V468.9C127.6 453 125.8 436.6 125.8 420.3V356.4C125.8 336.9 122 317.3 114.5 299.3C107 281.2 95.9 264.7 82.1 250.9C68.3 237.1 51.7 226 33.7 218.5C22.9 214 11.7 210.9 0.2 209V210C11.6 211.8 22.7 215 33.4 219.4C51.3 226.8 67.8 237.8 81.5 251.6C95.2 265.3 106.2 281.8 113.7 299.7C121.1 317.6 125 337 125 356.4V420.3V463.3C122.4 449.1 121 434.7 121 420.3V356.4C121 337.5 117.3 318.6 110 301.2C102.8 283.8 92.1 267.8 78.7 254.4C65.3 241 49.4 230.3 31.9 223.1C21.8 218.9 11.1 215.9 0.3 214.1V215.1C11 216.9 21.5 219.9 31.5 224C48.8 231.2 64.7 241.8 78 255.1C91.3 268.4 101.9 284.2 109.1 301.6C116.3 318.9 120 337.7 120 356.4V420.3V469V468.9C116.6 453 114.8 436.6 114.8 420.3V356.4C114.8 338.3 111.2 320.3 104.3 303.6C97.1 286.9 86.9 271.6 74.1 258.8C61.3 246 46 235.8 29.3 228.9C19.9 225 10.1 222.2 0.1 220.4V221.4C10 223.1 19.7 225.9 28.9 229.8C45.5 236.7 60.7 246.8 73.3 259.5C86 272.2 96.1 287.4 103 303.9C109.9 320.5 113.4 338.4 113.4 356.3V420.2V463.2C110.8 449 109.4 434.6 109.4 420.2V356.3C109.4 338.9 106 321.5 99.3 305.4C92.6 289.3 82.8 274.6 70.5 262.3C58.2 250 43.4 240.1 27.4 233.5C18.6 229.9 9.4 227.2 0.1 225.5V226.5C9.3 228.2 18.4 230.8 27 234.4C43 241 57.6 250.8 69.8 263C82.1 275.3 91.9 289.9 98.5 305.9C105.1 321.9 108.5 339.1 108.5 356.4V420.3V469V468.9C105.1 453 103.3 436.6 103.3 420.3V356.4C103.3 339.8 100 323.2 93.7 307.9C87.4 292.6 77.9 278.5 66.2 266.8C54.5 255.1 40.4 245.7 25.1 239.3C17.1 236 8.7 233.5 0.2 231.9V232.9C8.6 234.5 16.8 236.9 24.8 240.2C40 246.5 54 255.8 65.6 267.5C77.2 279.1 86.6 293.1 92.9 308.3C99.2 323.5 102.5 340 102.5 356.4V420.3V463.3C99.9 449.1 98.5 434.7 98.5 420.3V356.4C98.5 340.5 95.4 324.5 89.2 309.8C83.1 295.1 74.1 281.6 62.8 270.3C51.3 259 37.8 250 23.1 243.9C15.7 240.8 8 238.5 0.1 236.9V237.9C7.8 239.4 15.4 241.7 22.7 244.8C37.3 250.8 50.7 259.8 61.9 271C73.1 282.2 82.1 295.6 88.1 310.2C94.2 324.8 97.3 340.6 97.3 356.4V420.3V619.9H98.3V441.5C99.1 450.5 100.5 459.5 102.3 468.3V619.9H103.3V472.9C104.8 479.3 106.5 485.7 108.5 491.9V619.9H109.5V495.1C110.1 496.9 110.7 498.6 111.3 500.3C112 502.2 112.7 504.2 113.5 506.1V619.9H114.5V508.6L118.1 517.7L119.7 521.8V619.9H120.7V524.3L124.7 534.3V619.9H125.7V536.8L127.3 540.7C128.6 543.9 129.8 547.2 131 550.4V619.9H132V553.2C133.2 556.7 134.4 560.2 135.5 563.8C135.7 564.4 135.9 565 136 565.6V619.9H137V569.3C138.6 575.3 139.8 581.4 140.7 587.6C141.8 595.6 142.2 611.8 142.3 619.9H143.3C143.3 611.7 142.8 595.5 141.7 587.5C140.7 580.1 139.1 572.8 137 565.6V552.5C138.2 555.8 139.3 559.1 140.3 562.5C142.7 570.5 144.5 578.7 145.7 587C146.8 595.3 147.3 611.7 147.3 620H148.3C148.3 611.6 147.8 595.2 146.7 586.9C145.5 578.6 143.7 570.3 141.3 562.3C140 558 138.6 553.8 137.1 549.6V537L138.7 540.9C141.7 548.5 144.5 556.2 146.9 564C149.3 571.8 151 579.7 152.1 587.7C153.2 595.7 153.6 611.9 153.7 620H154.7C154.7 611.8 154.2 595.6 153.1 587.6C152 579.5 150.2 571.5 147.8 563.7C145.5 555.9 142.6 548.1 139.6 540.5L137.1 534.2V523.4L143.3 539C146.3 546.7 149.2 554.5 151.6 562.5C154 570.5 155.8 578.7 157 587C158.1 595.3 158.6 611.7 158.6 620H159.6C159.6 611.6 159.1 595.2 158 586.9C156.8 578.6 155 570.3 152.6 562.3C150.2 554.3 147.3 546.4 144.3 538.7L137.1 520.8V508.8L140.7 517.9L149.9 540.9C152.9 548.5 155.7 556.2 158.1 564C160.5 571.8 162.2 579.7 163.3 587.7C164.4 595.7 164.8 611.9 164.9 620H165.9C165.9 611.8 165.4 595.6 164.3 587.6C163.2 579.5 161.4 571.5 159 563.7C156.7 555.9 153.8 548.1 150.8 540.5L141.6 517.5L137 506.1V494.5C137.5 496 138 497.4 138.5 498.8C139.2 500.7 139.9 502.6 140.7 504.5L145.3 516L154.5 539C157.5 546.7 160.4 554.5 162.8 562.5C165.2 570.5 167 578.7 168.2 587C169.3 595.3 169.8 611.7 169.8 620H170.8C170.8 611.6 170.3 595.2 169.2 586.9C168 578.6 166.2 570.3 163.8 562.3C161.4 554.3 158.5 546.4 155.5 538.7L146.3 515.7L141.7 504.2C141 502.3 140.2 500.4 139.5 498.5C138.8 496.6 138.1 494.7 137.5 492.7C137.3 492.2 137.2 491.7 137 491.3V472.9C138.7 480.1 140.7 487.3 143 494.3C143.6 496.3 144.3 498.3 145.1 500.2C145.8 502.2 146.6 504.1 147.3 506.1L151.9 517.6L161.1 540.6C164.1 548.2 166.9 555.9 169.3 563.7C171.7 571.5 173.4 579.4 174.5 587.4C175.6 595.4 176 611.6 176.1 619.7H177.1C177.1 611.5 176.6 595.3 175.5 587.3C174.4 579.2 172.6 571.2 170.2 563.4C167.9 555.6 165 547.8 162 540.2L152.8 517.2L148.2 505.7C147.5 503.8 146.7 501.8 146 499.9C145.3 497.9 144.6 496 143.9 494C141.3 486.1 139.1 478 137.3 469.9C137.2 469.4 137.1 468.8 137 468.2V441.2C137.9 450.5 139.3 459.8 141.2 469C143 477 145.1 484.9 147.7 492.7C148.3 494.6 149 496.6 149.7 498.5C150.4 500.4 151.1 502.3 151.9 504.2L156.5 515.7L165.7 538.7C168.7 546.4 171.6 554.2 174 562.2C176.4 570.2 178.2 578.4 179.4 586.7C180.5 595 181 611.4 181 619.7H182C182 611.5 181.5 595.1 180.4 586.8ZM108.5 488.7C106.6 482.5 105 476.3 103.6 470C103.5 469.5 103.4 468.9 103.3 468.3V441.3C104.2 450.6 105.6 459.9 107.5 469.1C107.8 470.5 108.2 472 108.5 473.4V488.7ZM113.5 503.3C113.1 502.2 112.7 501.1 112.3 500C111.6 498 110.9 496.1 110.2 494.1C110 493.4 109.7 492.6 109.5 491.9V477.5C110.7 482.1 112 486.7 113.5 491.3V503.3ZM113.5 487.9C112 483.1 110.7 478.2 109.5 473.3V441.5C110.3 450.5 111.7 459.5 113.5 468.3V487.9ZM119.8 519L119.1 517.3L114.5 505.9V494.3C115 495.8 115.5 497.2 116 498.6C116.7 500.5 117.4 502.4 118.2 504.3L119.8 508.2V519ZM119.8 505.5L119.2 503.9C118.5 502 117.7 500.1 117 498.2C116.3 496.3 115.6 494.4 115 492.4C114.8 491.9 114.7 491.4 114.5 491V472.9C116 479.3 117.7 485.7 119.7 491.9V505.5H119.8ZM119.8 488.7C117.9 482.5 116.3 476.3 114.9 470C114.8 469.5 114.7 468.9 114.6 468.3V441.3C115.5 450.6 116.9 459.9 118.8 469.1C119.1 470.5 119.5 472 119.8 473.4V488.7ZM124.8 531.6L120.8 521.6V510.8L122.8 515.9L124.8 520.8V531.6ZM124.8 518.1L123.8 515.5L120.8 508.1V495.1C121.4 496.9 122 498.6 122.6 500.3C123.3 502.2 124 504.2 124.8 506.1V518.1ZM124.8 503.3C124.4 502.2 124 501.1 123.6 500C122.9 498 122.2 496.1 121.5 494.1C121.3 493.4 121 492.6 120.8 491.9V477.5C122 482.1 123.3 486.7 124.8 491.3V503.3ZM124.8 487.9C123.3 483.1 122 478.2 120.8 473.3V441.5C121.6 450.5 123 459.5 124.8 468.3V487.9ZM131 547.5C130.1 545.1 129.2 542.7 128.2 540.3L125.7 534V523.2L130.9 536.4V547.5H131ZM131 533.7L125.8 520.5V508.5L129.4 517.6L131 521.7V533.7ZM131 519L130.3 517.3L125.7 505.9V494.3C126.2 495.8 126.7 497.2 127.2 498.6C127.9 500.5 128.6 502.4 129.4 504.3L131 508.2V519ZM131 505.5L130.4 503.9C129.7 502 128.9 500.1 128.2 498.2C127.5 496.3 126.8 494.4 126.2 492.4C126 491.9 125.9 491.4 125.7 491V472.9C127.2 479.3 128.9 485.7 130.9 491.9V505.5H131ZM131 488.7C129.1 482.5 127.5 476.3 126.1 470C126 469.5 125.9 468.9 125.8 468.3V441.3C126.7 450.6 128.1 459.9 130 469.1C130.3 470.5 130.7 472 131 473.4V488.7ZM136 562.2C134.8 558.2 133.4 554.2 132 550.3V538.9C133.4 542.4 134.7 545.9 136 549.5V562.2ZM136 546.6C135 543.9 134 541.2 132.9 538.5L132 536.2V524.2L136 534.2V546.6ZM136 531.6L132 521.6V510.8L134 515.9L136 520.8V531.6ZM136 518.1L135 515.5L132 508.1V495.1C132.6 496.9 133.2 498.6 133.8 500.3C134.5 502.2 135.2 504.2 136 506.1V518.1ZM136 503.3C135.6 502.2 135.2 501.1 134.8 500C134.1 498 133.4 496.1 132.7 494.1C132.5 493.4 132.2 492.6 132 491.9V477.5C133.2 482.1 134.5 486.7 136 491.3V503.3V503.3ZM136 487.9C134.5 483.1 133.2 478.2 132 473.3V441.5C132.8 450.5 134.2 459.5 136 468.3V487.9Z" fill="#757445"/>
<path d="M212.8 8.2998H210.5V4.9998C210.5 3.7998 211.1 3.2998 212.3 3.2998H212.8V4.4998H211.7V6.3998H212.8V8.2998ZM216.1 8.2998H213.8V4.9998C213.8 3.7998 214.4 3.2998 215.6 3.2998H216.1V4.4998H215V6.3998H216.1V8.2998Z" fill="white"/>
<path d="M218.3 10.7999C218.3 6.2999 220.7 2.8999 225.8 2.8999C230.4 2.8999 232.5 5.1999 232.9 8.8999H231C230.7 5.9999 229 4.4999 225.8 4.4999C222.1 4.4999 220.3 6.5999 220.3 10.7999C220.3 14.9999 222 17.0999 225.8 17.0999C229.2 17.0999 230.9 15.2999 231.1 12.2999H233C232.8 16.0999 230.6 18.5999 225.8 18.5999C220.6 18.6999 218.3 15.2999 218.3 10.7999Z" fill="white"/>
<path d="M235.2 10.7999C235.2 6.2999 237.5 2.8999 242.6 2.8999C247.8 2.8999 250.1 6.2999 250.1 10.7999C250.1 15.2999 247.8 18.6999 242.6 18.6999C237.5 18.6999 235.2 15.2999 235.2 10.7999ZM242.7 17.0999C246.5 17.0999 248.2 14.9999 248.2 10.7999C248.2 6.5999 246.5 4.4999 242.7 4.4999C238.9 4.4999 237.2 6.5999 237.2 10.7999C237.2 14.9999 238.8 17.0999 242.7 17.0999Z" fill="white"/>
<path d="M265.8 3.2998V18.2998H262.7L255.9 6.5998C255.5 5.8998 255.2 5.1998 255 4.5998V18.2998H253.1V3.2998H256.3L263.1 15.0998C263.4 15.5998 263.8 16.3998 264 16.9998V3.2998H265.8Z" fill="white"/>
<path d="M271.2 4.79995V9.89995H279.7V11.4H271.2V18.2H269.3V3.19995H280.4V4.69995H271.2V4.79995Z" fill="white"/>
<path d="M293 16.7998V18.2998H283.3V3.2998H285.2V16.7998H293Z" fill="white"/>
<path d="M294.4 3.2998H296.2V12.6998C296.2 16.0998 297.6 17.0998 300.4 17.0998C303.2 17.0998 304.6 16.0998 304.6 12.6998V3.2998H306.5V12.8998C306.5 16.4998 304.6 18.5998 300.4 18.5998C296.2 18.5998 294.3 16.5998 294.3 12.8998V3.2998H294.4Z" fill="white"/>
<path d="M320.8 16.7998V18.2998H309.7V3.2998H320.8V4.7998H311.6V9.7998H320.1V11.2998H311.6V16.6998H320.8V16.7998Z" fill="white"/>
<path d="M336.7 3.2998V18.2998H333.6L326.8 6.5998C326.4 5.8998 326.1 5.1998 325.9 4.5998V18.2998H324V3.2998H327.2L334 15.0998C334.3 15.5998 334.7 16.3998 334.9 16.9998V3.2998H336.7Z" fill="white"/>
<path d="M339.6 10.7999C339.6 6.2999 342 2.8999 347.1 2.8999C351.7 2.8999 353.8 5.1999 354.2 8.8999H352.3C352 5.9999 350.3 4.4999 347.1 4.4999C343.4 4.4999 341.6 6.5999 341.6 10.7999C341.6 14.9999 343.3 17.0999 347.1 17.0999C350.5 17.0999 352.2 15.2999 352.4 12.2999H354.3C354.1 16.0999 351.9 18.5999 347.1 18.5999C341.9 18.6999 339.6 15.2999 339.6 10.7999Z" fill="white"/>
<path d="M368.2 16.7998V18.2998H357.1V3.2998H368.1V4.7998H358.9V9.7998H367.4V11.2998H358.9V16.6998H368.2V16.7998Z" fill="white"/>
<path d="M370.5 3.2998H372.8V6.5998C372.8 7.7998 372.2 8.2998 371 8.2998H370.5V7.0998H371.6V5.1998H370.5V3.2998ZM373.8 3.2998H376.1V6.5998C376.1 7.7998 375.5 8.2998 374.3 8.2998H373.8V7.0998H374.9V5.1998H373.8V3.2998Z" fill="white"/>
<path d="M385.5 13.0999C385.5 15.3999 386.7 17.0999 390.2 17.0999C393.3 17.0999 394.2 15.9999 394.2 14.2999C394.2 12.6999 393.4 11.8999 391.5 11.5999L388 11.0999C385.4 10.6999 384.2 9.3999 384.2 7.1999C384.2 4.7999 386 2.8999 389.9 2.8999C393.8 2.8999 395.8 4.8999 396 7.7999H394.1C393.9 5.7999 392.6 4.3999 389.8 4.3999C387.1 4.3999 386 5.4999 386 7.1999C386 8.3999 386.6 9.2999 388.3 9.5999L392 10.1999C394.7 10.5999 396.1 11.7999 396.1 14.1999C396.1 17.0999 394.3 18.6999 390.2 18.6999C385.3 18.6999 383.7 16.1999 383.7 13.1999H385.5V13.0999Z" fill="white"/>
<path d="M410.7 7.6998C410.7 10.0998 409.4 12.0998 406.1 12.0998H401.2V18.2998H399.3V3.2998H406.2C409.4 3.2998 410.7 5.2998 410.7 7.6998ZM408.7 7.6998C408.7 5.8998 407.9 4.7998 405.7 4.7998H401.1V10.4998H405.6C407.9 10.5998 408.7 9.3998 408.7 7.6998Z" fill="white"/>
<path d="M421.4 14.4H414L412.5 18.2H410.6L416.3 3.19995H419.1L424.8 18.2H422.9L421.4 14.4ZM420.8 12.9L417.6 4.59995L414.4 12.9H420.8Z" fill="white"/>
<path d="M426 10.7999C426 6.2999 428.4 2.8999 433.5 2.8999C438.1 2.8999 440.2 5.1999 440.6 8.8999H438.7C438.4 5.9999 436.7 4.4999 433.5 4.4999C429.8 4.4999 428 6.5999 428 10.7999C428 14.9999 429.7 17.0999 433.5 17.0999C436.9 17.0999 438.6 15.2999 438.8 12.2999H440.7C440.5 16.0999 438.3 18.5999 433.5 18.5999C428.3 18.6999 426 15.2999 426 10.7999Z" fill="white"/>
<path d="M454.5 16.7998V18.2998H443.4V3.2998H454.5V4.7998H445.3V9.7998H453.8V11.2998H445.3V16.6998H454.5V16.7998Z" fill="white"/>
<path d="M503.9 4.80005H498.5V18.3H496.7V4.80005H491.3V3.30005H503.9V4.80005V4.80005Z" fill="white"/>
<path d="M518.6 3.30005V18.3H516.8V11.3H508.1V18.3H506.2V3.30005H508.1V9.80005H516.8V3.30005H518.6Z" fill="white"/>
<path d="M533.3 16.8V18.3H522.2V3.30005H533.3V4.80005H524.1V9.80005H532.6V11.3H524.1V16.7H533.3V16.8Z" fill="white"/>
<path d="M558.6 18.3H556.7V4.70005L551.7 18.3H549.1L544.1 4.70005V18.3H542.2V3.30005H545.5L550.5 16.6L555.4 3.30005H558.6V18.3Z" fill="white"/>
<path d="M571.4 14.4H564L562.5 18.2H560.6L566.3 3.19995H569.1L574.8 18.2H572.9L571.4 14.4ZM570.8 12.9L567.6 4.59995L564.4 12.9H570.8Z" fill="white"/>
<path d="M588.3 15.9C588.3 17 588.5 17.7 588.6 18.3H586.8C586.6 17.8 586.5 17.1 586.5 16V14.6C586.5 12.5 585.4 11.6 583.3 11.6H579.1V18.3H577.2V3.30005H584.2C587.3 3.30005 588.8 4.80005 588.8 7.20005C588.8 9.20005 587.6 10.6 585.9 11C587.3 11.4 588.3 12.1 588.3 14.3V15.9ZM586.8 7.40005C586.8 5.70005 585.9 4.80005 584 4.80005H579.1V10.2H584C586 10.2 586.8 9.10005 586.8 7.40005Z" fill="white"/>
<path d="M603 4.80005H597.6V18.3H595.8V4.80005H590.4V3.30005H603V4.80005V4.80005Z" fill="white"/>
<path d="M458.6 414.1C452 414.1 445.9 416.7 441.4 420.8L344 323.4V31.7998H342V324.3L440 422.3C435.8 426.8 433.3 432.8 433.3 439.5C433.3 453.5 444.6 464.8 458.6 464.8C472.6 464.8 483.9 453.5 483.9 439.5C483.9 425.4 472.6 414.1 458.6 414.1Z" fill="white"/>
</g>
<defs>
<clipPath id="clip0">
<path d="M0 0H1440V620H0V0Z" fill="white"/>
</clipPath>
</defs>
</svg>
