<svg width="240" height="140" viewBox="0 0 240 140" fill="none" xmlns="http://www.w3.org/2000/svg">
<path d="M60.9843 54.2492C64.2868 54.2206 67.2563 54.7142 69.8998 55.7371C71.0224 56.1591 72.1088 56.7385 73.1734 57.461C74.2381 58.1835 75.1869 59.092 76.0197 60.1864C76.8526 61.2809 77.5262 62.5828 78.0477 64.0993C78.5619 65.6158 78.8226 67.3826 78.8226 69.3999C78.8226 71.3813 78.5619 73.1196 78.0477 74.5931C77.5334 76.0667 76.8454 77.34 75.998 78.3987C75.1506 79.4645 74.1874 80.3372 73.1083 81.0168C72.0291 81.6964 70.9355 82.2543 69.8129 82.6764C67.1694 83.642 64.1855 84.0927 60.8539 84.0355H59.0433H49.3093H45V83.6921H49.3093V54.5926H45V54.2492H49.3093H59.0433H60.9843ZM68.8207 67.9907C68.8207 66.2596 68.7048 64.7431 68.473 63.4412C68.2413 62.1393 67.9516 61.0019 67.5894 60.0362C67.2273 59.0705 66.8145 58.2693 66.3437 57.6327C65.873 56.9961 65.3877 56.4739 64.9025 56.0804C63.7509 55.1434 62.4472 54.6498 60.9843 54.5926H59.0433V83.6921H60.8539C62.3459 83.5777 63.6712 83.0269 64.8156 82.0326C65.3008 81.6105 65.7933 81.074 66.2785 80.4374C66.7638 79.8007 67.1983 79.0067 67.5677 78.0553C67.9371 77.1039 68.2413 75.988 68.473 74.6933C68.7048 73.4057 68.8207 71.9178 68.8207 70.2511V67.9907ZM107.981 78.971C107.409 79.8508 106.743 80.652 105.975 81.3745C105.214 82.0969 104.374 82.6978 103.454 83.1842C102.708 83.5848 101.883 83.8781 100.977 84.0784C100.072 84.2787 99.0437 84.3788 97.8994 84.3788C96.7768 84.3788 95.7629 84.3502 94.8431 84.293C93.9233 84.2358 93.0759 84.1213 92.3009 83.9568C91.526 83.7851 90.8017 83.5491 90.1282 83.2343C89.4546 82.9196 88.8028 82.5118 88.1655 82.0039C87.3905 81.4102 86.6807 80.652 86.0362 79.7292C85.3916 78.8064 84.8267 77.7835 84.3559 76.6676C83.8851 75.5445 83.5158 74.3499 83.255 73.0695C82.9943 71.7962 82.8712 70.4872 82.8712 69.1566C82.8712 67.8261 83.0015 66.5171 83.255 65.2438C83.5158 63.9705 83.8779 62.7688 84.3559 61.6457C84.8267 60.5226 85.3916 59.5069 86.0362 58.5841C86.6807 57.6613 87.3905 56.9031 88.1655 56.3093C88.7956 55.8015 89.4474 55.3866 90.1282 55.079C90.8017 54.7642 91.526 54.5282 92.3009 54.3565C93.0759 54.1848 93.9233 54.0704 94.8431 54.0131C95.7629 53.9559 96.7841 53.9273 97.8994 53.9273H98.334C99.051 53.9559 99.6738 54.0203 100.21 54.1204C100.738 54.2206 101.34 54.3994 101.999 54.6498L102.129 54.6927C102.614 54.893 103.215 55.0432 103.918 55.1362C104.62 55.2364 105.301 55.2864 105.968 55.2864C106.714 55.2864 107.315 55.1648 107.778 54.9216C108.235 54.6784 108.589 54.4137 108.836 54.1133C109.082 53.8128 109.241 53.541 109.314 53.2835C109.386 53.026 109.422 52.8829 109.422 52.8543H109.85V67.2396H109.422C109.422 66.8962 109.364 66.467 109.248 65.9377C109.133 65.4155 108.98 64.8647 108.799 64.2781C108.611 63.6987 108.387 63.1121 108.111 62.5112C107.836 61.9175 107.561 61.3739 107.271 60.8946C106.786 60.1578 106.279 59.4568 105.765 58.7915C105.251 58.1263 104.613 57.4253 103.867 56.6885C103.462 56.3237 103.092 55.9946 102.745 55.7085C102.397 55.4223 102.028 55.1791 101.622 54.9645C101.216 54.7499 100.753 54.5854 100.224 54.4781C99.6956 54.3637 99.0655 54.2921 98.3485 54.2635H97.9139C97.5952 54.2635 97.349 54.3064 97.1607 54.3923C96.9724 54.4781 96.7189 54.6355 96.4075 54.8572C95.7774 55.3436 95.2849 56.1091 94.9445 57.1749C94.5968 58.2407 94.3433 59.3996 94.1695 60.6657C93.9957 61.9318 93.8943 63.2123 93.8653 64.5142C93.8364 65.8161 93.8219 66.9677 93.8219 67.962V69.1495C93.8219 69.5787 93.8219 69.9578 93.8219 70.3012C93.8219 70.6445 93.8291 71.0022 93.8436 71.3885C93.8581 71.7676 93.8798 72.2039 93.9088 72.6832C93.9378 73.1625 93.9812 73.7347 94.0392 74.3857C94.155 75.5231 94.3723 76.5603 94.7055 77.5117C95.0386 78.4631 95.5746 79.3072 96.3206 80.0439C96.9796 80.6949 97.6821 81.1742 98.4064 81.4674C99.1379 81.7679 99.8477 81.9109 100.543 81.9109C101.463 81.9109 102.252 81.8251 102.911 81.6534C103.57 81.4818 104.157 81.2457 104.678 80.931C104.91 80.7879 105.156 80.6305 105.432 80.466C105.707 80.2943 105.953 80.1012 106.185 79.8723C107.018 79.1355 107.648 78.3772 108.082 77.5975C108.51 76.8178 108.843 76.1025 109.075 75.4515C109.335 74.6861 109.48 73.9207 109.509 73.1553H109.857V73.3699C109.857 73.8492 109.799 74.3499 109.683 74.8578C109.567 75.3657 109.437 75.8092 109.292 76.174C108.93 77.154 108.495 78.0911 107.981 78.971ZM134.778 75.1869C134.264 73.9708 133.714 72.6904 133.142 71.3599C132.569 70.0293 131.997 68.6988 131.44 67.3826C130.882 66.0664 130.346 64.7931 129.846 63.5771C129.346 62.3539 128.876 61.238 128.448 60.215C128.188 59.5927 127.847 58.9274 127.413 58.2121C126.978 57.5039 126.457 56.8601 125.841 56.2807C125.225 55.7013 124.508 55.2149 123.69 54.8358C122.872 54.4495 121.93 54.2635 120.873 54.2635H113.065V54.6069C113.551 54.6069 114.058 54.8 114.572 55.1791C115.086 55.5654 115.593 56.0375 116.078 56.6026C116.563 57.1677 117.02 57.7901 117.433 58.4553C117.853 59.1206 118.215 59.7286 118.533 60.2651L111.943 81.7536C111.769 82.3473 111.421 82.8266 110.885 83.1771C110.357 83.5347 109.813 83.7064 109.27 83.7064H106.815V84.0498H115.817V83.7064H113.536C113.13 83.7064 112.848 83.5991 112.674 83.3845C112.5 83.1699 112.413 82.9124 112.413 82.5977C112.413 82.5118 112.413 82.4188 112.413 82.3187C112.413 82.2185 112.428 82.1255 112.457 82.0397L114.695 74.2569L114.825 73.9136L118.787 60.9804L124.045 73.9136L124.219 74.2569C124.82 75.7305 125.428 77.0753 126.029 78.2771C126.631 79.486 127.34 80.5089 128.159 81.3601C128.977 82.2114 129.94 82.8695 131.048 83.3416C132.157 83.8066 133.496 84.0426 135.075 84.0426H138.566C137.27 81.0239 136.01 78.0768 134.778 75.1869ZM158.469 64.8861C161.228 66.2166 163.198 67.7188 164.393 69.3712C165.588 71.0308 166.182 72.8978 166.182 74.9651C166.182 76.3815 165.892 77.6691 165.32 78.8136C164.748 79.9653 163.951 80.9524 162.93 81.7893C161.909 82.6263 160.728 83.2701 159.374 83.7279C158.027 84.1785 156.571 84.4074 155.021 84.4074H154.464C153.087 84.4074 151.726 84.1571 150.393 83.6635C149.061 83.1699 147.699 82.519 146.323 81.725C146.236 81.6677 146.106 81.6391 145.932 81.6391C145.613 81.6391 145.316 81.7607 145.027 82.0039C144.737 82.2472 144.469 82.519 144.208 82.8337C143.889 83.1771 143.607 83.5705 143.346 84.0283H142.999L142.18 71.9035H142.528C142.615 72.44 142.731 73.0266 142.876 73.6489C143.02 74.1854 143.216 74.8006 143.455 75.4801C143.701 76.1597 144.049 76.8679 144.512 77.6047C144.998 78.4273 145.57 79.2928 146.214 80.2013C146.859 81.1098 147.612 81.818 148.474 82.3258C149.821 83.1199 151.204 83.642 152.609 83.8996C153.037 83.9854 153.515 84.0283 154.029 84.0283C154.601 84.0283 155.195 83.9997 155.818 83.9425C156.434 83.8853 156.991 83.7565 157.476 83.5562C158.164 83.2415 158.686 82.8838 159.026 82.4689C159.367 82.0612 159.541 81.353 159.541 80.3658C159.541 79.6577 159.222 78.9495 158.592 78.2413C157.962 77.5331 157.129 76.8178 156.093 76.0953C155.057 75.3729 153.884 74.6289 152.559 73.8635C151.233 73.0981 149.872 72.3041 148.467 71.4815C146.142 70.0937 144.454 68.5629 143.404 66.8891C142.354 65.2152 141.833 63.3553 141.833 61.3166C141.833 58.906 142.803 57.0962 144.737 55.8873C146.678 54.6855 149.524 54.0775 153.29 54.0775C154.579 54.0775 155.876 54.3207 157.165 54.8C158.461 55.2793 159.751 55.8515 161.04 56.5025C161.214 56.5597 161.329 56.5883 161.387 56.5883C161.706 56.5883 162.01 56.4739 162.314 56.245C162.619 56.0161 162.894 55.7514 163.155 55.4366C163.473 55.1004 163.756 54.6999 164.016 54.2492H164.364L165.356 63.4841H165.009C164.922 63.3124 164.791 63.0764 164.618 62.7616C164.473 62.4755 164.248 62.1035 163.951 61.6314C163.647 61.1664 163.27 60.5584 162.807 59.8216C162.691 59.6499 162.524 59.4282 162.307 59.142C162.09 58.8559 161.844 58.5626 161.554 58.2479C161.264 57.9331 160.96 57.6255 160.627 57.3108C160.294 56.9961 159.99 56.7171 159.7 56.4596C158.78 55.9231 157.773 55.4438 156.687 55.0361C155.593 54.6212 154.449 54.4066 153.24 54.378C152.863 54.378 152.45 54.428 151.987 54.5282C151.523 54.6283 151.103 54.8072 150.719 55.0575C150.335 55.315 150.002 55.6441 149.727 56.059C149.452 56.4739 149.321 56.9746 149.321 57.5683C149.321 58.5626 150.031 59.6428 151.451 60.8016C152.885 61.9676 155.217 63.3267 158.469 64.8861ZM192.327 80.1155C192.9 79.3215 193.349 78.5847 193.66 77.9051C193.979 77.2255 194.203 76.5889 194.348 75.988C194.493 75.3943 194.573 74.8292 194.587 74.2855C194.602 73.7491 194.609 73.2197 194.609 72.7118H194.993V84.0283H192.32H185.172H181.551H171.643H167.812V83.685H171.643V54.5926H167.812V54.2492H171.643H181.551H184.527H194.348V64.1637H193.957C193.957 63.5413 193.943 62.9691 193.914 62.4612C193.885 61.9533 193.805 61.4526 193.675 60.9733C193.544 60.494 193.349 59.9861 193.095 59.4639C192.834 58.9418 192.48 58.348 192.016 57.6971C191.502 56.9603 190.966 56.3809 190.423 55.9517C189.88 55.5225 189.293 55.2149 188.677 55.0146C188.062 54.8143 187.403 54.6927 186.693 54.6498C185.99 54.6069 185.252 54.5854 184.477 54.5854H181.551V68.5415H183.405C183.919 68.5415 184.397 68.5272 184.824 68.4985C185.259 68.4699 185.664 68.3912 186.055 68.2625C186.439 68.1337 186.794 67.9406 187.113 67.6902C187.432 67.4327 187.743 67.0822 188.062 66.6244C188.547 65.9162 188.938 65.208 189.228 64.4999C189.517 63.7917 189.655 63.012 189.655 62.1607H189.916H190.003V75.2656H189.916H189.655C189.655 74.4429 189.517 73.6775 189.242 72.9693C188.967 72.2612 188.576 71.5387 188.062 70.8019C187.489 69.9793 186.823 69.4571 186.077 69.2282C185.331 68.9993 184.44 68.8848 183.405 68.8848H181.551V83.6921H185.172C185.976 83.6921 186.678 83.6707 187.287 83.6277C187.888 83.5848 188.46 83.4561 189.01 83.2415C189.554 83.0269 190.09 82.6835 190.604 82.1971C191.118 81.7178 191.697 81.0239 192.327 80.1155ZM50.7868 49.6139V50.5438C50.1567 50.88 49.4397 51.0517 48.614 51.0517C47.9477 51.0517 47.3828 50.9229 46.9193 50.6582C46.4557 50.3864 46.0864 50.0216 45.8184 49.5566C45.5432 49.0917 45.4128 48.5909 45.4128 48.0545C45.4128 47.1961 45.7243 46.4736 46.3399 45.887C46.9627 45.3004 47.7232 45.0072 48.6357 45.0072C49.2658 45.0072 49.9611 45.1717 50.7288 45.4936V46.402C50.0263 46.0086 49.3455 45.8083 48.6792 45.8083C47.9984 45.8083 47.4262 46.0229 46.9772 46.445C46.5209 46.8742 46.2964 47.4107 46.2964 48.0545C46.2964 48.6982 46.5209 49.2347 46.9627 49.6496C47.4045 50.0645 47.9767 50.272 48.6647 50.272C49.389 50.272 50.0987 50.0502 50.7868 49.6139ZM56.0666 45.0858H56.9212V50.9801H56.0666V48.4121H52.7133V50.9801H51.8587V45.0858H52.7133V47.6324H56.0666V45.0858ZM58.2683 45.0858H59.1229V50.9801H58.2683V45.0858ZM65.6122 49.6139V50.5438C64.9821 50.88 64.2651 51.0517 63.4395 51.0517C62.7732 51.0517 62.2082 50.9229 61.7447 50.6582C61.2812 50.3936 60.9118 50.0288 60.6439 49.5638C60.3759 49.0988 60.2383 48.5981 60.2383 48.0545C60.2383 47.1961 60.5497 46.4736 61.1653 45.887C61.7882 45.3004 62.5486 45.0072 63.4612 45.0072C64.0913 45.0072 64.7866 45.1717 65.5543 45.4936V46.402C64.859 46.0086 64.171 45.8083 63.5047 45.8083C62.8239 45.8083 62.2517 46.0229 61.8027 46.445C61.3536 46.8742 61.1291 47.4035 61.1291 48.0473C61.1291 48.6911 61.3536 49.2276 61.7954 49.6425C62.2372 50.0574 62.8094 50.2648 63.4974 50.2648C64.2144 50.272 64.917 50.0502 65.6122 49.6139ZM68.7989 45.0501H69.4001L72.0798 50.9801H71.2035L70.4068 49.2347H67.8574L67.1114 50.9801H66.2351L68.7989 45.0501ZM70.0591 48.4836L69.0959 46.3448L68.2051 48.4836H70.0591ZM75.6287 48.0759H77.6348V50.5796C76.8961 50.8943 76.1718 51.0517 75.4476 51.0517C74.4554 51.0517 73.6659 50.7655 73.0793 50.2004C72.4854 49.6282 72.1957 48.9272 72.1957 48.0902C72.1957 47.2104 72.4999 46.4736 73.1155 45.8942C73.7311 45.3076 74.4988 45.0143 75.4186 45.0143C75.7518 45.0143 76.0704 45.0501 76.3746 45.1216C76.6788 45.1931 77.0554 45.3219 77.519 45.515V46.3734C76.8092 45.9657 76.0994 45.7582 75.3969 45.7582C74.7451 45.7582 74.1946 45.98 73.7456 46.4164C73.2966 46.8527 73.072 47.3964 73.072 48.033C73.072 48.7054 73.2966 49.2491 73.7456 49.6782C74.1946 50.1003 74.7668 50.3149 75.4693 50.3149C75.8097 50.3149 76.2225 50.2362 76.6933 50.086L76.773 50.0574V48.827H75.6214V48.0759H75.6287ZM81.8283 45C82.7481 45 83.5158 45.2861 84.1314 45.8655C84.747 46.445 85.0512 47.1674 85.0512 48.033C85.0512 48.8985 84.7397 49.621 84.1241 50.1933C83.5085 50.7655 82.7263 51.0445 81.7848 51.0445C80.8867 51.0445 80.1335 50.7584 79.5396 50.1933C78.9385 49.621 78.6415 48.9057 78.6415 48.0473C78.6415 47.1674 78.9457 46.4378 79.5469 45.8584C80.1407 45.2861 80.9085 45 81.8283 45ZM81.8645 45.8012C81.1837 45.8012 80.6188 46.0158 80.177 46.4378C79.7352 46.8599 79.5179 47.3964 79.5179 48.0545C79.5179 48.6911 79.7352 49.2204 80.177 49.6425C80.6188 50.0645 81.1692 50.2791 81.8355 50.2791C82.5018 50.2791 83.0595 50.0645 83.5013 49.6353C83.9503 49.2061 84.1676 48.6696 84.1676 48.0258C84.1676 47.4035 83.9431 46.8742 83.5013 46.4521C83.0595 46.0158 82.5091 45.8012 81.8645 45.8012ZM88.5783 50.973V45.0858H90.5917C91.4029 45.0858 92.0475 45.2074 92.5182 45.4435C92.989 45.6867 93.3656 46.0372 93.6481 46.5022C93.9233 46.9672 94.0681 47.4822 94.0681 48.033C94.0681 48.4264 93.9885 48.8055 93.8364 49.1632C93.6843 49.5209 93.467 49.8428 93.1773 50.1146C92.8876 50.3936 92.5472 50.6082 92.1633 50.7512C91.9388 50.8371 91.7288 50.8943 91.5405 50.9301C91.3522 50.9587 90.9901 50.973 90.4613 50.973H88.5783ZM90.5048 45.8369H89.4329V50.2219H90.5265C90.9538 50.2219 91.287 50.1933 91.5188 50.1361C91.7578 50.0788 91.9533 50.0073 92.1126 49.9143C92.272 49.8285 92.4168 49.714 92.5472 49.5853C92.9673 49.1632 93.1773 48.6267 93.1773 47.9829C93.1773 47.3463 92.96 46.8312 92.5255 46.4307C92.3661 46.2804 92.1851 46.1588 91.975 46.0658C91.765 45.9728 91.5695 45.9085 91.3884 45.8727C91.2146 45.8512 90.9176 45.8369 90.5048 45.8369ZM95.1545 45.0858H98.5368V45.8369H96.0091V47.6324H98.4571V48.3907H96.0091V50.2219H98.6237V50.973H95.1545V45.0858ZM99.5 50.9801V45.0787H101.39C101.962 45.0787 102.412 45.2289 102.752 45.5365C103.092 45.8369 103.259 46.2518 103.259 46.7597C103.259 47.1031 103.172 47.4035 102.998 47.6682C102.824 47.9328 102.585 48.126 102.281 48.2476C101.977 48.3692 101.542 48.4264 100.985 48.4264H100.355V50.9873H99.5V50.9801ZM101.245 45.8298H100.362V47.6753H101.296C101.644 47.6753 101.912 47.5966 102.1 47.4321C102.288 47.2676 102.383 47.0387 102.383 46.7382C102.383 46.1302 102.006 45.8298 101.245 45.8298ZM105.236 45.0501H105.837L108.517 50.9801H107.641L106.844 49.2347H104.295L103.549 50.9801H102.672L105.236 45.0501ZM106.489 48.4836L105.526 46.3448L104.635 48.4836H106.489ZM109.212 50.9801V45.0858H110.711C111.32 45.0858 111.798 45.2361 112.153 45.5293C112.508 45.8226 112.681 46.2232 112.681 46.7311C112.681 47.0745 112.595 47.3749 112.421 47.6253C112.247 47.8756 112.001 48.0616 111.675 48.1832C111.863 48.3048 112.051 48.4765 112.232 48.6911C112.413 48.9057 112.674 49.2777 113 49.807C113.21 50.1432 113.377 50.3936 113.5 50.5653L113.818 50.9873H112.797L112.537 50.601C112.529 50.5867 112.508 50.5653 112.486 50.5295L112.319 50.3006L112.051 49.8714L111.769 49.4136C111.595 49.1704 111.428 48.9772 111.284 48.8342C111.139 48.6911 111.001 48.5909 110.885 48.5266C110.769 48.4622 110.567 48.4336 110.291 48.4336H110.067V51.0016H109.212V50.9801ZM110.32 45.8012H110.06V47.661H110.386C110.82 47.661 111.117 47.6253 111.276 47.5537C111.436 47.4822 111.566 47.3677 111.653 47.2247C111.74 47.0745 111.791 46.9099 111.791 46.7168C111.791 46.5308 111.74 46.3663 111.638 46.2089C111.537 46.0587 111.399 45.9514 111.218 45.887C111.045 45.8298 110.74 45.8012 110.32 45.8012ZM113.196 45.0787H118.186V45.8298H116.107V50.9873H115.245V45.8298H113.196V45.0787ZM123.755 45.0858H124.552V50.9801H123.69V46.3949L121.85 48.6768H121.691L119.837 46.3949V50.9801H118.982V45.0858H119.794L121.778 47.5108L123.755 45.0858ZM125.863 45.0858H129.245V45.8369H126.717V47.6324H129.165V48.3907H126.717V50.2219H129.332V50.973H125.863V45.0858ZM135.003 45.0858H135.814V50.9801H135.083L131.092 46.4378V50.9801H130.288V45.0858H130.983L135.01 49.6639V45.0858H135.003ZM136.603 45.0787H141.594V45.8298H139.515V50.9873H138.653V45.8298H136.603V45.0787ZM147.793 45C148.713 45 149.481 45.2861 150.096 45.8655C150.712 46.445 151.016 47.1674 151.016 48.033C151.016 48.8985 150.705 49.621 150.089 50.1933C149.473 50.7655 148.691 51.0445 147.75 51.0445C146.852 51.0445 146.098 50.7584 145.497 50.1933C144.896 49.621 144.599 48.9057 144.599 48.0473C144.599 47.1674 144.903 46.4378 145.505 45.8584C146.106 45.2861 146.873 45 147.793 45ZM147.829 45.8012C147.149 45.8012 146.584 46.0158 146.142 46.4378C145.7 46.8599 145.483 47.3964 145.483 48.0545C145.483 48.6911 145.7 49.2204 146.142 49.6425C146.584 50.0645 147.134 50.2791 147.8 50.2791C148.467 50.2791 149.024 50.0645 149.466 49.6353C149.915 49.2061 150.133 48.6696 150.133 48.0258C150.133 47.4035 149.908 46.8742 149.466 46.4521C149.024 46.0158 148.474 45.8012 147.829 45.8012ZM152.095 45.0858H155.282V45.8369H152.95V47.4822H155.282V48.2333H152.95V50.9801H152.095V45.0858ZM50.7868 92.5693V93.4993C50.1567 93.8355 49.4397 94.0072 48.614 94.0072C47.9477 94.0072 47.3828 93.8784 46.9193 93.6137C46.4557 93.3491 46.0864 92.9842 45.8184 92.5193C45.5504 92.0543 45.4128 91.5536 45.4128 91.0099C45.4128 90.1515 45.7243 89.4291 46.3399 88.8425C46.9627 88.2559 47.7232 87.9626 48.6357 87.9626C49.2658 87.9626 49.9611 88.1272 50.7288 88.4491V89.3504C50.0263 88.9569 49.3455 88.7638 48.6792 88.7638C47.9984 88.7638 47.4262 88.9784 46.9772 89.4004C46.5282 89.8296 46.2964 90.359 46.2964 91.0028C46.2964 91.6466 46.5209 92.1831 46.9627 92.598C47.4045 93.0129 47.9767 93.2203 48.6647 93.2203C49.389 93.2275 50.0987 93.0057 50.7868 92.5693ZM56.0086 88.0342H56.8705V91.3819C56.8705 91.8326 56.8343 92.1759 56.7691 92.4048C56.7039 92.6337 56.617 92.8269 56.5229 92.9842C56.4215 93.1345 56.3056 93.2775 56.1607 93.3991C55.69 93.7997 55.0671 94 54.3066 94C53.5317 94 52.9016 93.7997 52.4381 93.3991C52.2932 93.2775 52.1773 93.1345 52.0759 92.9842C51.9746 92.834 51.8949 92.6409 51.8297 92.4191C51.7645 92.1974 51.7356 91.8469 51.7356 91.3747V88.0342H52.5974V91.3819C52.5974 91.9327 52.6626 92.319 52.793 92.5407C52.9233 92.7553 53.1189 92.9342 53.3796 93.0629C53.6403 93.1917 53.9518 93.2561 54.3066 93.2561C54.8136 93.2561 55.2264 93.1273 55.5451 92.8626C55.7117 92.7196 55.8348 92.555 55.9072 92.3619C55.9797 92.1688 56.0159 91.8397 56.0159 91.3747V88.0342H56.0086ZM58.0728 88.0342H58.9274V93.1631H61.6144V93.9285H58.0728V88.0342ZM60.9987 88.027H65.9888V88.7781H63.903V93.9356H63.0411V88.7781H60.9915V88.027H60.9987ZM70.9645 88.0342H71.8263V91.3819C71.8263 91.8326 71.7901 92.1759 71.7249 92.4048C71.6597 92.6337 71.5728 92.8269 71.4787 92.9842C71.3773 93.1345 71.2614 93.2775 71.1166 93.3991C70.6458 93.7997 70.0229 94 69.2625 94C68.4875 94 67.8574 93.7997 67.3939 93.3991C67.249 93.2775 67.1332 93.1345 67.0318 92.9842C66.9304 92.834 66.8507 92.6409 66.7855 92.4191C66.7203 92.1974 66.6914 91.8469 66.6914 91.3747V88.0342H67.5532V91.3819C67.5532 91.9327 67.6184 92.319 67.7488 92.5407C67.8791 92.7553 68.0747 92.9342 68.3354 93.0629C68.5962 93.1917 68.9076 93.2561 69.2625 93.2561C69.7694 93.2561 70.1823 93.1273 70.5009 92.8626C70.6675 92.7196 70.7906 92.555 70.8631 92.3619C70.9355 92.1688 70.9717 91.8397 70.9717 91.3747V88.0342H70.9645ZM73.0503 93.9356V88.0413H74.5495C75.1506 88.0413 75.6359 88.1915 75.9908 88.4848C76.3457 88.7781 76.5195 89.1787 76.5195 89.6866C76.5195 90.0299 76.4326 90.3304 76.2587 90.5807C76.0849 90.8311 75.8387 91.0171 75.5128 91.1387C75.7011 91.2603 75.8894 91.432 76.0704 91.6466C76.2515 91.8612 76.5122 92.2331 76.8382 92.7625C77.0482 93.0987 77.2148 93.3491 77.3379 93.5207L77.6566 93.9428H76.6426L76.3819 93.5565C76.3746 93.5422 76.3529 93.5207 76.3312 93.485L76.1646 93.2561L75.8966 92.8269L75.6142 92.3691C75.4403 92.1258 75.2738 91.9327 75.1289 91.7896C74.9841 91.6466 74.8465 91.5464 74.7306 91.482C74.6147 91.4177 74.4119 91.3891 74.1367 91.3891H73.9122V93.9571H73.0503V93.9356ZM74.1657 88.7566H73.9122V90.6165H74.2381C74.6726 90.6165 74.9696 90.5807 75.1289 90.5092C75.2882 90.4377 75.4186 90.3232 75.5055 90.1801C75.5924 90.0299 75.6431 89.8654 75.6431 89.6723C75.6431 89.4863 75.5924 89.3218 75.491 89.1644C75.3896 89.0142 75.252 88.9069 75.071 88.8425C74.8827 88.7853 74.5785 88.7566 74.1657 88.7566ZM80.2349 88.0056H80.836L83.5158 93.9356H82.6394L81.8427 92.1902H79.2934L78.5474 93.9356H77.671L80.2349 88.0056ZM81.4951 91.432L80.5318 89.2931L79.641 91.432H81.4951ZM84.1893 88.0342H85.0439V93.1631H87.7309V93.9285H84.1893V88.0342ZM91.975 88.0056H92.5762L95.2559 93.9356H94.3796L93.5829 92.1902H91.0335L90.2875 93.9356H89.4112L91.975 88.0056ZM93.228 91.432L92.2647 89.2931L91.3739 91.432H93.228ZM95.9367 88.0342H99.1234V88.7853H96.7913V90.4305H99.1234V91.1816H96.7913V93.9285H95.9367V88.0342ZM100.058 88.0342H103.244V88.7853H100.912V90.4305H103.244V91.1816H100.912V93.9285H100.058V88.0342ZM105.649 88.0056H106.25L108.93 93.9356H108.053L107.257 92.1902H104.707L103.961 93.9356H103.085L105.649 88.0056ZM106.902 91.432L105.939 89.2931L105.048 91.432H106.902ZM109.603 88.0342H110.458V93.9285H109.603V88.0342ZM111.827 93.9356V88.0413H113.326C113.927 88.0413 114.412 88.1915 114.767 88.4848C115.122 88.7781 115.296 89.1787 115.296 89.6866C115.296 90.0299 115.209 90.3304 115.035 90.5807C114.861 90.8311 114.615 91.0171 114.289 91.1387C114.478 91.2603 114.666 91.432 114.847 91.6466C115.028 91.8612 115.289 92.2331 115.615 92.7625C115.825 93.0987 115.991 93.3491 116.114 93.5207L116.433 93.9428H115.412L115.151 93.5565C115.144 93.5422 115.122 93.5207 115.1 93.485L114.934 93.2561L114.666 92.8269L114.383 92.3691C114.21 92.1258 114.043 91.9327 113.898 91.7896C113.753 91.6466 113.616 91.5464 113.5 91.482C113.384 91.4177 113.181 91.3891 112.906 91.3891H112.681V93.9571H111.827V93.9356ZM112.942 88.7566H112.681V90.6165H113.007C113.442 90.6165 113.739 90.5807 113.898 90.5092C114.057 90.4377 114.188 90.3232 114.275 90.1801C114.362 90.0299 114.412 89.8654 114.412 89.6723C114.412 89.4863 114.362 89.3218 114.26 89.1644C114.159 89.0142 114.021 88.9069 113.84 88.8425C113.659 88.7853 113.362 88.7566 112.942 88.7566ZM118.584 91.4606L117.932 91.0743C117.527 90.8311 117.237 90.5879 117.063 90.3518C116.889 90.1158 116.802 89.8439 116.802 89.5292C116.802 89.0642 116.962 88.6851 117.295 88.399C117.621 88.1057 118.048 87.9626 118.57 87.9626C119.069 87.9626 119.526 88.0985 119.938 88.3775V89.3361C119.511 88.9283 119.048 88.7209 118.548 88.7209C118.265 88.7209 118.041 88.7853 117.86 88.914C117.679 89.0428 117.592 89.2073 117.592 89.4004C117.592 89.5793 117.657 89.7438 117.787 89.894C117.918 90.0514 118.135 90.2088 118.425 90.3804L119.077 90.7596C119.808 91.1888 120.17 91.7396 120.17 92.3977C120.17 92.8698 120.011 93.2561 119.692 93.5493C119.374 93.8426 118.953 93.9928 118.439 93.9928C117.853 93.9928 117.309 93.814 116.831 93.4564V92.3834C117.295 92.9628 117.831 93.2489 118.432 93.2489C118.7 93.2489 118.924 93.1774 119.098 93.0272C119.279 92.8769 119.366 92.6981 119.366 92.4764C119.374 92.1258 119.113 91.7825 118.584 91.4606ZM127.268 93.9356L126.573 93.1273C126.515 93.1845 126.413 93.2704 126.268 93.3848L126.261 93.392C126.058 93.5565 125.805 93.6996 125.508 93.8212C125.211 93.9428 124.929 94 124.668 94C124.255 94 123.907 93.8641 123.618 93.5994C123.328 93.3348 123.183 93.0057 123.183 92.6266C123.183 92.3476 123.256 92.1044 123.393 91.8826C123.538 91.6609 123.762 91.432 124.081 91.2031L124.096 91.1888C124.284 91.0528 124.443 90.9455 124.581 90.874C124.132 90.4019 123.907 89.9441 123.907 89.5077C123.907 89.1072 124.045 88.7781 124.32 88.5277C124.595 88.2774 124.958 88.1486 125.399 88.1486C125.834 88.1486 126.189 88.2702 126.471 88.5134C126.754 88.7566 126.891 89.0714 126.891 89.4505C126.891 89.9655 126.544 90.4663 125.841 90.9527L125.783 90.9956L126.623 91.9399C126.87 91.6752 127.08 91.3604 127.268 90.9885H128.122C127.92 91.5107 127.594 92.0257 127.152 92.5336L128.361 93.9142H127.268V93.9356ZM125.848 92.7124L126.044 92.5407L125.073 91.432L124.697 91.6966C124.248 91.9899 124.03 92.2904 124.03 92.598C124.03 92.7625 124.103 92.9056 124.248 93.0272C124.393 93.1488 124.566 93.206 124.776 93.206C124.936 93.206 125.117 93.1631 125.32 93.0701C125.515 92.9771 125.696 92.8555 125.848 92.7124ZM125.291 90.4377L125.617 90.2088C125.921 89.9942 126.073 89.7509 126.073 89.472C126.073 89.3003 126.008 89.1572 125.885 89.0428C125.761 88.9283 125.595 88.8711 125.407 88.8711C125.218 88.8711 125.066 88.9212 124.943 89.0285C124.82 89.1358 124.762 89.2717 124.762 89.4291C124.762 89.5864 124.813 89.7509 124.907 89.9369C124.994 90.1158 125.124 90.2874 125.291 90.4377ZM133.004 91.4606L132.352 91.0743C131.947 90.8311 131.657 90.5879 131.483 90.3518C131.309 90.1158 131.222 89.8439 131.222 89.5292C131.222 89.0642 131.382 88.6851 131.715 88.399C132.041 88.1057 132.468 87.9626 132.989 87.9626C133.489 87.9626 133.945 88.0985 134.358 88.3775V89.3361C133.931 88.9283 133.467 88.7209 132.968 88.7209C132.685 88.7209 132.461 88.7853 132.28 88.914C132.099 89.0428 132.012 89.2073 132.012 89.4004C132.012 89.5793 132.077 89.7438 132.207 89.894C132.338 90.0514 132.555 90.2088 132.845 90.3804L133.496 90.7596C134.228 91.1888 134.59 91.7396 134.59 92.3977C134.59 92.8698 134.431 93.2561 134.112 93.5493C133.793 93.8426 133.373 93.9928 132.859 93.9928C132.272 93.9928 131.729 93.814 131.251 93.4564V92.3834C131.715 92.9628 132.251 93.2489 132.852 93.2489C133.12 93.2489 133.344 93.1774 133.518 93.0272C133.699 92.8769 133.786 92.6981 133.786 92.4764C133.786 92.1258 133.525 91.7825 133.004 91.4606ZM135.503 93.9356V88.027H137.393C137.965 88.027 138.421 88.1772 138.755 88.4848C139.095 88.7853 139.261 89.2001 139.261 89.708C139.261 90.0514 139.175 90.3518 139.001 90.6165C138.827 90.8812 138.588 91.0743 138.284 91.1959C137.98 91.3175 137.545 91.3747 136.987 91.3747H136.357V93.9356H135.503ZM137.248 88.7781H136.364V90.6237H137.299C137.646 90.6237 137.914 90.545 138.103 90.3804C138.291 90.2159 138.385 89.987 138.385 89.6866C138.385 89.0785 138.001 88.7781 137.248 88.7781ZM140.029 88.0342H143.411V88.7853H140.884V90.5807H143.332V91.339H140.884V93.1702H143.498V93.9213H140.029V88.0342ZM149.568 92.5693V93.4993C148.938 93.8355 148.213 94.0072 147.395 94.0072C146.729 94.0072 146.164 93.8784 145.7 93.6137C145.237 93.3491 144.867 92.9842 144.599 92.5193C144.324 92.0543 144.194 91.5536 144.194 91.0099C144.194 90.1515 144.505 89.4291 145.121 88.8425C145.744 88.2559 146.504 87.9626 147.417 87.9626C148.047 87.9626 148.742 88.1272 149.51 88.4491V89.3504C148.814 88.9569 148.126 88.7566 147.46 88.7566C146.779 88.7566 146.207 88.9712 145.758 89.3933C145.309 89.8225 145.077 90.3518 145.077 90.9956C145.077 91.6394 145.302 92.1759 145.744 92.5908C146.185 93.0057 146.758 93.2131 147.446 93.2131C148.177 93.2275 148.88 93.0057 149.568 92.5693ZM150.647 88.0342H151.501V93.9285H150.647V88.0342ZM154.753 88.0056H155.354L158.034 93.9356H157.158L156.361 92.1902H153.812L153.066 93.9356H152.189L154.753 88.0056ZM156.006 91.432L155.043 89.2931L154.152 91.432H156.006ZM158.7 88.0342H159.555V93.1631H162.242V93.9285H158.7V88.0342ZM165.458 88.0342H168.847V88.7853H166.32V90.5807H168.768V91.339H166.32V93.1702H168.934V93.9213H165.465V88.0342H165.458ZM173.635 88.0342H174.489L171.962 93.9571H171.766L169.195 88.0342H170.057L171.853 92.1759L173.635 88.0342ZM175.163 88.0342H178.545V88.7853H176.017V90.5807H178.465V91.339H176.017V93.1702H178.632V93.9213H175.163V88.0342ZM184.296 88.0342H185.107V93.9285H184.368L180.377 89.3861V93.9285H179.573V88.0342H180.269L184.296 92.6123V88.0342ZM185.896 88.027H190.886V88.7781H188.808V93.9356H187.946V88.7781H185.896V88.027ZM193.189 91.4606L192.538 91.0743C192.132 90.8311 191.842 90.5879 191.668 90.3518C191.495 90.1158 191.408 89.8439 191.408 89.5292C191.408 89.0642 191.574 88.6851 191.9 88.399C192.226 88.1128 192.653 87.9626 193.175 87.9626C193.675 87.9626 194.131 88.0985 194.544 88.3775V89.3361C194.116 88.9283 193.653 88.7209 193.153 88.7209C192.871 88.7209 192.646 88.7853 192.465 88.914C192.284 89.0428 192.197 89.2073 192.197 89.4004C192.197 89.5793 192.262 89.7438 192.393 89.894C192.523 90.0514 192.74 90.2088 193.03 90.3804L193.682 90.7596C194.413 91.1888 194.775 91.7396 194.775 92.3977C194.775 92.8698 194.616 93.2561 194.297 93.5493C193.979 93.8426 193.559 93.9928 193.045 93.9928C192.458 93.9928 191.915 93.814 191.437 93.4564V92.3834C191.9 92.9628 192.436 93.2489 193.037 93.2489C193.305 93.2489 193.53 93.1774 193.704 93.0272C193.885 92.8769 193.972 92.6981 193.972 92.4764C193.979 92.1258 193.711 91.7825 193.189 91.4606ZM118.475 76.1311L119.388 79.0711L120.301 76.1311L123.335 76.8178L121.213 74.5717L123.335 72.3256L120.301 73.0194L119.388 70.0794L118.475 73.0194L115.441 72.3256L117.563 74.5717L115.441 76.8178L118.475 76.1311Z" fill="#959595"/>
</svg>
