<svg width="240" height="140" viewBox="0 0 240 140" fill="none" xmlns="http://www.w3.org/2000/svg">
<path fill-rule="evenodd" clip-rule="evenodd" d="M65.6124 51.9018H59.2231V33H65.6095C71.7046 33 75.2699 36.8342 75.2699 42.4509C75.2699 48.0675 71.7046 51.9018 65.6124 51.9018ZM65.4797 36.2137H62.9239V48.7174H65.4797C68.8864 48.7174 71.494 46.6918 71.494 42.4537C71.494 38.2655 68.8835 36.2137 65.4797 36.2137Z" fill="#959595"/>
<path fill-rule="evenodd" clip-rule="evenodd" d="M89.4303 46.7446H80.3554C80.5429 48.1231 81.6073 49.2296 83.1506 49.2296C84.163 49.2296 85.1207 48.7964 85.5996 47.9592L89.1938 48.3368C88.1005 50.9857 85.8102 52.2266 83.0958 52.2266C79.4497 52.2266 76.7093 49.4988 76.7093 45.7202C76.7093 41.9415 79.3977 39.2137 83.0438 39.2137C86.3986 39.2137 89.4303 41.4293 89.4303 46.6128V46.7446ZM80.2746 44.3944H85.7294C85.5419 43.1533 84.5063 42.126 83.0409 42.126C81.5756 42.126 80.5429 43.0714 80.2746 44.3944Z" fill="#959595"/>
<path d="M95.6552 42.0442C96.4542 42.0442 97.6802 42.3427 98.6638 43.3144L100.634 41.046C99.1975 39.6968 97.3081 39.2109 95.71 39.2109C92.7822 39.2109 90.9735 41.0197 90.9735 43.0451C90.9735 44.6636 91.8245 46.0159 93.7946 46.6627L95.8715 47.2832C96.858 47.5818 97.2561 47.851 97.2561 48.4716C97.2561 48.9573 96.7513 49.3905 95.9263 49.3905C94.7812 49.3905 93.2091 48.6881 92.3322 47.851L90.4947 50.2803C91.5072 51.17 93.1831 52.2237 95.8715 52.2237C99.1975 52.2237 100.715 50.1163 100.715 48.3076C100.715 46.689 99.8609 45.3104 97.36 44.4734L95.3379 43.8266C94.6975 43.6099 94.4321 43.3144 94.4321 42.8812C94.4321 42.5036 94.7494 42.0442 95.6552 42.0442Z" fill="#959595"/>
<path d="M103.643 51.9018V42.5065H101.941V39.5357H107.104V51.9018H103.643Z" fill="#959595"/>
<path d="M105.212 33C106.464 33 107.447 34.0273 107.447 35.2683C107.447 36.5385 106.464 37.5104 105.212 37.5104C103.989 37.5104 103.002 36.5385 103.002 35.2683C103.002 34.0273 103.989 33 105.212 33Z" fill="#959595"/>
<path fill-rule="evenodd" clip-rule="evenodd" d="M122.43 52.8208V39.5329H118.974V40.1007C118.974 40.3773 118.983 40.5801 118.994 40.7323L118.997 40.7756L119.003 40.8442C119.007 40.8881 119.011 40.9266 119.014 40.9606C119.021 41.033 119.026 41.0858 119.026 41.1279C118.414 40.0744 117.004 39.2109 115.166 39.2109C111.864 39.2109 109.337 41.7485 109.337 45.6383C109.337 49.5018 111.892 52.0394 115.192 52.0394C116.923 52.0394 118.386 51.173 118.971 50.1749V52.5516C118.971 53.497 118.279 53.6579 117.667 53.6579H113.222V56.6286H118.518C121.472 56.6286 122.43 54.7643 122.43 52.8208ZM119.049 45.6383C119.049 47.6374 117.8 49.0131 115.963 49.0131C114.154 49.0131 112.902 47.6374 112.902 45.6383C112.902 43.6129 114.154 42.2372 115.963 42.2372C117.797 42.2372 119.049 43.6129 119.049 45.6383Z" fill="#959595"/>
<path d="M132.462 39.2109C135.096 39.2109 136.985 40.9114 136.985 43.8003V51.9018H133.527V44.6929C133.527 43.127 132.543 42.4773 131.45 42.4773C130.437 42.4773 129.534 43.0451 128.868 43.8822V51.9018H125.412V39.5357H128.793V40.0216C128.793 40.4548 128.741 40.9933 128.741 40.9933C129.67 39.8314 131.052 39.2109 132.462 39.2109Z" fill="#959595"/>
<path d="M62.8172 63.7204L66.4893 73.0396H70.4008L73.969 63.7204V77.0874H77.6381V58.1857H72.6623L68.5114 68.9068L64.4383 58.1857H59.2231V77.0874H62.8172V63.7204Z" fill="#959595"/>
<path d="M80.8862 72.5508V64.7186H84.3448V71.9011C84.3448 73.6016 85.4611 74.2778 86.687 74.2778C87.9389 74.2778 89.0293 73.6016 89.0293 71.9011V64.7186H92.462V72.5508C92.462 75.1441 90.4399 77.4124 86.687 77.4124C82.9631 77.4124 80.8862 75.1441 80.8862 72.5508Z" fill="#959595"/>
<path d="M99.4369 67.2327C100.236 67.2327 101.462 67.5312 102.445 68.5029L104.416 66.2346C102.979 64.8853 101.09 64.3994 99.4917 64.3994C96.5638 64.3994 94.7552 66.2083 94.7552 68.2337C94.7552 69.8522 95.6062 71.2044 97.5763 71.8512L99.6532 72.4718C100.64 72.7703 101.038 73.0396 101.038 73.6601C101.038 74.1459 100.533 74.579 99.708 74.579C98.5628 74.579 96.9908 73.8766 96.1138 73.0396L94.2764 75.4688C95.2889 76.3586 96.9648 77.4123 99.6532 77.4123C102.979 77.4123 104.496 75.3049 104.496 73.4962C104.496 71.8775 103.643 70.499 101.142 69.6619L99.1196 69.0151C98.4792 68.7985 98.2138 68.5029 98.2138 68.0697C98.2138 67.6922 98.5311 67.2327 99.4369 67.2327Z" fill="#959595"/>
<path fill-rule="evenodd" clip-rule="evenodd" d="M109.576 71.9303C109.764 73.3088 110.828 74.4152 112.371 74.4152C113.384 74.4152 114.341 73.9821 114.82 73.1449L118.414 73.5225C117.324 76.1684 115.034 77.4123 112.319 77.4123C108.673 77.4123 105.933 74.6845 105.933 70.9059C105.933 67.1272 108.621 64.3994 112.267 64.3994C115.622 64.3994 118.654 66.615 118.654 71.7985V71.9303H109.576ZM109.495 69.5829H114.95C114.763 68.342 113.727 67.3146 112.262 67.3146C110.799 67.3146 109.764 68.2571 109.495 69.5829Z" fill="#959595"/>
<path d="M120.514 64.7186V72.5508C120.514 75.1441 122.591 77.4124 126.315 77.4124C130.068 77.4124 132.09 75.1441 132.09 72.5508V64.7186H128.658V71.9011C128.658 73.6016 127.567 74.2778 126.315 74.2778C125.089 74.2778 123.973 73.6016 123.973 71.9011V64.7186H120.514Z" fill="#959595"/>
<path d="M150.906 69.8259C150.906 68.3127 149.949 67.6659 148.884 67.6659C147.901 67.6659 147.021 68.2337 146.357 69.0708V77.0905H142.899V69.8259C142.899 68.342 141.967 67.6659 140.877 67.6659C139.893 67.6659 139.013 68.2337 138.35 69.0708V77.0905H134.891V64.7214H138.272V65.2073C138.272 65.6405 138.22 66.179 138.22 66.179C139.126 65.0464 140.481 64.3966 141.866 64.3966C143.675 64.3966 145.085 65.181 145.778 66.6386C146.79 65.2073 148.172 64.3966 149.876 64.3966C152.51 64.3966 154.374 66.0971 154.374 68.986V77.0874H150.915V69.8259H150.906Z" fill="#959595"/>
<path fill-rule="evenodd" clip-rule="evenodd" d="M64.5191 89.5852C60.9019 89.5852 58 92.3102 58 96.0917C58 99.8703 60.9019 102.598 64.5191 102.598C68.1364 102.598 71.0382 99.8732 71.0382 96.0917C71.0382 92.313 68.1364 89.5852 64.5191 89.5852ZM64.5191 99.4663C62.7105 99.4663 61.4586 98.0087 61.4586 96.0917C61.4586 94.1482 62.7105 92.7171 64.5191 92.7171C66.3018 92.7171 67.5537 94.1482 67.5537 96.0917C67.5537 98.0087 66.3018 99.4663 64.5191 99.4663Z" fill="#959595"/>
<path d="M74.0757 86.3978C74.0757 83.9685 75.6738 83.1314 77.5343 83.1314C78.466 83.1314 80.0612 83.2923 80.0612 83.2923V86.506C80.0612 86.506 78.9968 86.3714 78.6247 86.3714C77.9583 86.3714 77.5343 86.5325 77.5343 87.3988V89.9101H79.8766V92.8808H77.5343V102.279H74.0757V92.8808H72.1603V89.9101H74.0757V86.3978Z" fill="#959595"/>
<path d="M100.821 95.5503C100.129 97.7922 98.2398 99.1416 95.7648 99.1416C92.2514 99.1416 89.9091 96.443 89.9091 92.8224C89.9091 89.2048 92.2514 86.5033 95.7648 86.5033C98.2398 86.5033 100.129 87.8526 100.821 90.0946H104.894C103.801 85.6398 99.9705 83.0467 95.7648 83.0467C90.2841 83.0467 86.0525 87.1238 86.0525 92.8224C86.0525 98.5211 90.2812 102.598 95.7648 102.598C99.9705 102.598 103.804 100.005 104.894 95.5503H100.821Z" fill="#959595"/>
<path d="M114.073 89.5824C116.707 89.5824 118.596 91.2828 118.596 94.1716V102.273H115.138V95.0644C115.138 93.4985 114.154 92.8487 113.061 92.8487C112.048 92.8487 111.145 93.4165 110.479 94.2537V102.273H107.02V83.3715H110.427V90.393L110.427 90.4243C110.427 90.4527 110.426 90.4816 110.426 90.5106L110.424 90.5846L110.422 90.6385C110.418 90.7621 110.411 90.8848 110.404 90.9931C110.39 91.2067 110.375 91.3648 110.375 91.3648C111.307 90.2058 112.689 89.5824 114.073 89.5824Z" fill="#959595"/>
<path d="M122.164 102.276H125.626V89.9072H120.463V92.878H122.164V102.276Z" fill="#959595"/>
<path d="M125.969 85.6398C125.969 84.3988 124.986 83.3715 123.734 83.3715C122.511 83.3715 121.527 84.3988 121.524 85.6398C121.524 86.91 122.511 87.8819 123.734 87.8819C124.986 87.8819 125.969 86.91 125.969 85.6398Z" fill="#959595"/>
<path d="M131.294 96.0917C131.294 98.0352 132.546 99.4663 134.355 99.4663C135.632 99.4663 136.59 98.7376 137.043 97.5756L140.291 98.603C139.492 101.062 137.098 102.598 134.329 102.598C130.708 102.598 127.835 99.8703 127.835 96.0917C127.835 92.3102 130.708 89.5852 134.329 89.5852C137.098 89.5852 139.492 91.1512 140.291 93.6097L137.043 94.6078C136.59 93.4751 135.632 92.7171 134.355 92.7171C132.543 92.7171 131.294 94.1482 131.294 96.0917Z" fill="#959595"/>
<path fill-rule="evenodd" clip-rule="evenodd" d="M147.076 92.5824C148.405 92.5824 149.098 93.1502 149.098 94.04H149.095V94.1716C149.095 94.6312 148.829 94.9005 148.244 94.9005H145.85C143.135 94.9005 141.433 96.3581 141.433 98.7083C141.433 100.734 143.109 102.598 145.691 102.598C147.076 102.598 148.46 102.086 149.098 101.114V102.276H152.556V94.1482C152.556 90.8819 150.029 89.5852 147.26 89.5852C144.306 89.5852 142.045 91.0984 142.045 91.0984L143.404 93.7443C144.306 93.2028 145.852 92.5824 147.076 92.5824ZM149.098 96.9552V97.8449C149.098 99.3844 147.978 100.034 146.729 100.031C145.665 100.031 144.999 99.4107 144.999 98.5737C144.999 97.7102 145.639 97.2244 146.729 97.2244H148.033C148.512 97.2244 148.884 97.1717 149.098 96.9552Z" fill="#959595"/>
<path fill-rule="evenodd" clip-rule="evenodd" d="M167.752 103.192C167.752 105.136 166.794 107 163.841 107H158.545V104.029H162.99C163.601 104.029 164.294 103.868 164.294 102.923V100.546C163.708 101.544 162.246 102.411 160.515 102.411C157.215 102.411 154.659 99.8732 154.659 96.0096C154.659 92.1198 157.186 89.5822 160.489 89.5822C162.326 89.5822 163.737 90.4457 164.348 91.4993C164.348 91.3647 164.296 91.1217 164.296 90.472V89.9042H167.752V103.192ZM161.285 99.3843C163.122 99.3843 164.371 98.0087 164.371 96.0096C164.371 93.9843 163.12 92.6086 161.285 92.6086C159.476 92.6086 158.224 93.9843 158.224 96.0096C158.224 98.0087 159.476 99.3843 161.285 99.3843Z" fill="#959595"/>
<path fill-rule="evenodd" clip-rule="evenodd" d="M176.481 89.5852C172.864 89.5852 169.962 92.3102 169.962 96.0917C169.962 99.8703 172.864 102.598 176.481 102.598C180.098 102.598 183 99.8732 183 96.0917C183 92.313 180.101 89.5852 176.481 89.5852ZM176.481 99.4663C174.672 99.4663 173.42 98.0087 173.42 96.0917C173.42 94.1482 174.672 92.7171 176.481 92.7171C178.264 92.7171 179.515 94.1482 179.515 96.0917C179.515 98.0087 178.264 99.4663 176.481 99.4663Z" fill="#959595"/>
</svg>
