<svg width="240" height="140" viewBox="0 0 240 140" fill="none" xmlns="http://www.w3.org/2000/svg">
<path d="M56.3632 59.5324L53.2441 56.3428H73.444V65.5142L67.5943 58.735H63.5023V69.6223L68.8785 64.0537V76.7858L63.5023 71.2171V81.465L67.5943 84.6572H53.2441L56.3632 81.465V59.5324Z" fill="#959595"/>
<path fill-rule="evenodd" clip-rule="evenodd" d="M62.8692 99C47.5024 99 35 86.2152 35 70.4987C35 54.7822 47.5024 42 62.8692 42C78.236 42 90.7385 54.7848 90.7385 70.4987C90.7385 86.2126 78.2386 99 62.8692 99ZM62.8692 43.0922C48.0918 43.0922 36.068 55.3875 36.068 70.4987C36.068 85.6099 48.0918 97.9052 62.8692 97.9052C77.6467 97.9052 89.6704 85.6099 89.6704 70.4987C89.6704 55.3875 77.6493 43.0922 62.8692 43.0922Z" fill="#959595"/>
<path d="M124.975 64.1196C124.975 65.3249 125.935 66.3065 127.137 66.3065C128.338 66.3065 129.275 65.3223 129.275 64.1196C129.275 62.8669 128.338 61.909 127.137 61.909C125.935 61.909 124.975 62.8669 124.975 64.1196Z" fill="#959595"/>
<path d="M116.858 63.6274V70.333L120.654 66.4039V75.2464L116.858 71.3172V77.6281L119.38 79.5939H110.54L112.462 77.6281V64.1195L110.54 62.1537H123.75V67.5434L123.752 67.5462L123.773 67.5566H129.131V77.8729L130.667 79.5914H123.559L125.168 77.8729V69.4424L123.75 67.7993V67.8039L123.564 67.5887L123.534 67.5566H123.536L120.147 63.6274H116.858Z" fill="#959595"/>
<path d="M136.502 77.8728L138.352 79.5913H131.411L132.613 77.8728V69.275L131.411 67.5565H135.694L135.472 70.5277H135.568C136.36 68.8329 137.562 67.2354 139.219 67.2354C139.531 67.2354 140.156 67.3591 140.324 67.5539V71.5093H136.502V77.8728Z" fill="#959595"/>
<path fill-rule="evenodd" clip-rule="evenodd" d="M144.645 72.691H151.297V71.4593C151.297 69.225 149.617 67.2354 146.639 67.2354C143.492 67.2354 141.281 70.3303 141.281 73.7936C141.281 76.9622 143.082 79.9097 146.613 79.9097C149.112 79.9097 150.77 78.2149 151.585 75.4648L151.032 75.22C150.144 76.0069 149.447 76.6201 147.982 76.6201C146.348 76.6201 144.74 75.3937 144.645 72.691ZM147.864 70.8961V71.2409H144.742C145.031 69.8171 145.8 69.0303 146.544 69.0303C147.409 69.0303 147.864 69.6671 147.864 70.8961Z" fill="#959595"/>
<path fill-rule="evenodd" clip-rule="evenodd" d="M157.301 68.1697C157.973 67.7513 158.887 67.2355 160.184 67.2355C163.233 67.2355 164.989 69.8382 164.989 73.1305C164.989 76.8885 162.922 79.9097 159.129 79.9097C156.293 79.9097 154.71 79.0755 153.341 78.2386V63.6274L151.706 62.1537H157.255V68.1697H157.301ZM157.301 77.8228H158.238C159.463 77.8228 160.904 77.2096 160.904 74.1621C160.904 71.1172 160.063 70.0119 158.071 70.0119H157.301V77.8228Z" fill="#959595"/>
<path fill-rule="evenodd" clip-rule="evenodd" d="M169.67 72.691H176.32V71.4593C176.32 69.225 174.64 67.2354 171.662 67.2354C168.517 67.2354 166.306 70.3303 166.306 73.7936C166.306 76.9622 168.108 79.9097 171.639 79.9097C174.138 79.9097 175.795 78.2149 176.611 75.4648L176.058 75.22C175.17 76.0069 174.472 76.6201 173.008 76.6201C171.376 76.6201 169.765 75.3937 169.67 72.691ZM172.887 70.8961V71.2409H169.765C170.053 69.8171 170.823 69.0303 171.567 69.0303C172.431 69.0303 172.887 69.6671 172.887 70.8961Z" fill="#959595"/>
<path d="M182.806 77.8728L184.342 79.5913H177.234L178.842 77.8728V63.8722L177.234 62.1537H182.806V77.8728Z" fill="#959595"/>
<path d="M191.79 79.5913L190.251 77.8728V62.1537H184.679L186.288 63.8722V77.8728L184.679 79.5913H191.79Z" fill="#959595"/>
<path d="M192.868 81.3099H197.815L192.099 67.5566H198.777L197.287 69.2751L200.074 76.2754H200.123L201.853 71.5357L200.1 67.5566H205L199.621 81.6546C198.973 83.4231 197.58 84.6995 196.09 84.6995C194.574 84.6995 192.868 83.7179 192.868 81.3099Z" fill="#959595"/>
</svg>
