<svg width="1440" height="630" viewBox="0 0 1440 630" fill="none" xmlns="http://www.w3.org/2000/svg">
<g clip-path="url(#clip0)">
<g clip-path="url(#clip1)">
<path d="M1167.15 318.4H480.92L361.14 438.14L270.4 339.23V278.87L0 8.57959V105.08L202.15 307.15V365.79L325.9 500.69V620H394.15V501.65L509.18 386.65H1195.41L1440 142.12V45.6196L1167.15 318.4Z" fill="#757445"/>
<path d="M1440 156.86V142.01L1195.93 386.08L1169.3 316.28L1197.77 287.75V206.22H1198.07L1310.53 93.76H1295.68L1197.77 191.67V93.76H1187.27V195.72H1085.27V93.76H1074.77V195.72H972.77V93.76H962.27V195.72H860.27V93.76H849.77V195.72H747.77V93.76H737.27V195.72H635.27V93.76H624.77V195.72H432.7L432.63 93.75L422.13 93.76L422.2 195.72H105.4V93.76H94.9V195.72H0V206.22H94.9V499.32H0V509.82H94.9V619.99H105.4V509.82H191.65V619.99H202.15V509.82H394.13V620H404.63V509.82H508.3V619.99H518.8V509.82H624.77V619.99H635.27V509.82H737.27V619.99H747.77V509.82H849.77V619.99H860.27V509.82H962.27V619.99H972.77V509.82H1074.77V619.99H1085.27V509.82H1187.27V619.99H1197.77V509.82H1299.77V619.99H1310.27V509.82H1440V499.32H1310.28V397.13H1440V386.63H1210.23L1440 156.86ZM191.65 499.32H105.4V206.22H191.65V499.32ZM396.55 499.32H202.15V206.22H422.2L422.27 309.68L504.22 391.64L396.55 499.32ZM508.31 499.32H411.4L508.31 402.41V499.32ZM624.78 499.32H518.81V397.13H624.78V499.32ZM624.78 386.63H514.08L432.78 305.33L432.71 206.22H624.78V386.63ZM737.28 499.32H635.28V397.13H737.28V499.32ZM737.28 386.63H635.28V206.22H737.28V386.63ZM849.78 499.32H747.78V397.13H798.86H849.78V499.32ZM849.78 386.63H798.86H747.78V206.22H849.78V386.63ZM962.28 499.32H860.28V397.13H962.28V499.32ZM962.28 386.63H860.28V206.22H962.28V386.63ZM1074.78 499.32H972.78V397.13H1074.78V499.32ZM1074.78 386.63H972.78V206.22H1074.78V386.63ZM1085.28 206.22H1187.28V283.41L1157.08 313.68L1184.91 386.64H1085.28V206.22ZM1187.28 499.32H1085.28V397.13H1187.28V499.32ZM1299.78 397.13V499.32H1197.78V397.13H1199.73H1299.78Z" fill="#E5F955"/>
<path d="M628.03 619.99H627.03V305.89V267.63V248.5C627.02 245.33 627.06 242.08 627 238.97C626.95 237.43 626.96 235.89 626.81 234.36L626.64 232.06C626.57 231.29 626.45 230.53 626.36 229.77C625.58 223.67 624.14 217.66 621.99 211.9C619.83 206.14 617.02 200.63 613.64 195.5C610.27 190.35 606.24 185.65 601.79 181.42C597.33 177.18 592.39 173.45 587.08 170.36C581.77 167.26 576.12 164.75 570.25 162.91C564.37 161.11 558.29 159.98 552.16 159.54C550.63 159.39 549.09 159.38 547.55 159.34C546.06 159.29 544.34 159.29 542.74 159.26C539.48 159.15 536.22 158.99 532.96 158.62C526.45 157.96 519.96 156.7 513.64 154.72C510.48 153.72 507.39 152.49 504.36 151.09C501.35 149.66 498.44 147.98 495.66 146.09C490.13 142.27 485.21 137.45 481.45 131.83C477.64 126.24 475.03 119.92 473.38 113.46C471.78 106.98 471.11 100.34 471.09 93.7695H472.09C472.11 100.28 472.78 106.83 474.35 113.22C475.98 119.58 478.54 125.79 482.28 131.28C485.97 136.8 490.79 141.53 496.22 145.28C498.95 147.13 501.82 148.78 504.79 150.2C507.77 151.58 510.82 152.79 513.94 153.78C520.18 155.74 526.6 156.99 533.06 157.64C536.29 158 539.52 158.16 542.76 158.27C544.36 158.3 546.04 158.3 547.56 158.35C549.12 158.39 550.67 158.4 552.22 158.55C558.43 158.99 564.58 160.14 570.54 161.96C576.48 163.82 582.2 166.36 587.58 169.5C592.96 172.63 597.96 176.4 602.48 180.69C606.98 184.98 611.07 189.74 614.48 194.95C617.91 200.15 620.75 205.73 622.94 211.55C625.12 217.38 626.58 223.47 627.37 229.65C627.46 230.42 627.58 231.19 627.65 231.97L627.83 234.3C627.98 235.85 627.97 237.41 628.03 238.96C628.08 242.1 628.05 245.32 628.06 248.5V267.63V305.89V619.99H628.03Z" fill="#757445"/>
<path d="M633.03 619.99H632.03V305.89V267.63V248.5C632.02 245.3 632.06 242.15 632 238.91C631.95 237.28 631.96 235.65 631.8 234.02L631.61 231.58C631.54 230.77 631.41 229.96 631.32 229.15C630.49 222.68 628.96 216.28 626.68 210.16C624.39 204.04 621.4 198.19 617.81 192.74C614.23 187.27 609.95 182.29 605.23 177.79C600.5 173.29 595.25 169.33 589.61 166.05C583.97 162.76 577.97 160.09 571.73 158.14C565.49 156.23 559.03 155.02 552.51 154.56C550.88 154.4 549.25 154.39 547.62 154.35C545.96 154.3 544.45 154.3 542.86 154.27C539.72 154.16 536.59 154.01 533.47 153.66C527.24 153.03 521.08 151.82 515.15 149.96C512.19 149.02 509.3 147.87 506.5 146.58C503.71 145.25 501.04 143.71 498.49 141.98C493.44 138.49 489 134.13 485.59 129.04C482.14 123.98 479.75 118.22 478.22 112.24C476.75 106.24 476.1 100.01 476.08 93.7695H477.08C477.09 99.9495 477.74 106.09 479.19 111.99C480.7 117.87 483.04 123.51 486.42 128.47C489.75 133.46 494.1 137.72 499.06 141.15C501.56 142.84 504.18 144.36 506.93 145.67C509.69 146.95 512.53 148.08 515.46 149C521.31 150.83 527.41 152.03 533.58 152.65C536.66 153 539.78 153.15 542.89 153.25C544.48 153.28 545.95 153.28 547.64 153.33C549.29 153.37 550.94 153.39 552.59 153.55C559.18 154.02 565.71 155.24 572.03 157.18C578.34 159.15 584.41 161.85 590.12 165.18C595.83 168.5 601.14 172.51 605.92 177.06C610.7 181.61 615.03 186.66 618.65 192.19C622.29 197.7 625.31 203.62 627.62 209.81C629.94 216 631.48 222.47 632.32 229.02C632.42 229.84 632.54 230.66 632.62 231.48L632.81 233.95C632.97 235.59 632.97 237.25 633.02 238.9C633.08 242.16 633.04 245.3 633.05 248.5V267.63V305.89V619.99H633.03Z" fill="#757445"/>
<path d="M273.74 10.8898C273.74 6.38977 276.1 3.00977 281.26 3.00977C285.87 3.00977 287.97 5.27977 288.33 8.99977H286.44C286.13 6.06977 284.46 4.56977 281.22 4.56977C277.48 4.56977 275.71 6.70977 275.71 10.8998C275.71 15.0898 277.44 17.2198 281.18 17.2198C284.58 17.2198 286.29 15.4598 286.49 12.4298H288.4C288.15 16.2298 286.01 18.7798 281.22 18.7798C276.06 18.7598 273.74 15.4298 273.74 10.8898Z" fill="white"/>
<path d="M290.69 10.8898C290.69 6.42977 292.94 3.00977 298.14 3.00977C303.34 3.00977 305.61 6.44977 305.61 10.8898C305.61 15.3898 303.34 18.7698 298.14 18.7698C292.94 18.7598 290.69 15.4098 290.69 10.8898ZM298.13 17.2098C301.96 17.2098 303.64 15.0898 303.64 10.8898C303.64 6.67977 301.95 4.55977 298.13 4.55977C294.31 4.55977 292.64 6.67977 292.64 10.8898C292.64 15.0998 294.31 17.2098 298.13 17.2098Z" fill="white"/>
<path d="M321.24 3.41992V18.3899H318.11L311.31 6.63992C310.93 5.91992 310.61 5.26992 310.36 4.67992V18.3899H308.49V3.41992H311.64L318.44 15.1899C318.73 15.7099 319.09 16.4499 319.39 17.1299V3.41992H321.24Z" fill="white"/>
<path d="M326.66 4.91992V10.0499H335.17V11.5399H326.66V18.3799H324.79V3.41992H335.84V4.92992H326.66V4.91992Z" fill="white"/>
<path d="M348.49 16.8699V18.3799H338.79V3.41992H340.66V16.8799H348.49V16.8699Z" fill="white"/>
<path d="M349.93 3.41992H351.78V12.8099C351.78 16.2299 353.22 17.1999 356.01 17.1999C358.8 17.1999 360.22 16.2299 360.22 12.8099V3.41992H362.09V13.0299C362.09 16.6799 360.18 18.7499 356.01 18.7499C351.82 18.7499 349.93 16.6999 349.93 13.0299V3.41992Z" fill="white"/>
<path d="M376.3 16.8699V18.3799H365.16V3.41992H376.23V4.92992H367.02V9.94992H375.55V11.4399H367.02V16.8899H376.3V16.8699Z" fill="white"/>
<path d="M392.14 3.41992V18.3899H389.01L382.21 6.63992C381.83 5.91992 381.51 5.26992 381.26 4.67992V18.3899H379.39V3.41992H382.54L389.34 15.1899C389.63 15.7099 389.99 16.4499 390.29 17.1299V3.41992H392.14Z" fill="white"/>
<path d="M395.06 10.8898C395.06 6.38977 397.42 3.00977 402.58 3.00977C407.19 3.00977 409.29 5.27977 409.65 8.99977H407.76C407.45 6.06977 405.78 4.56977 402.54 4.56977C398.8 4.56977 397.03 6.70977 397.03 10.8998C397.03 15.0898 398.76 17.2198 402.5 17.2198C405.9 17.2198 407.61 15.4598 407.81 12.4298H409.72C409.47 16.2298 407.33 18.7798 402.54 18.7798C397.38 18.7598 395.06 15.4298 395.06 10.8898Z" fill="white"/>
<path d="M423.64 16.8699V18.3799H412.5V3.41992H423.57V4.92992H414.36V9.94992H422.89V11.4399H414.36V16.8899H423.64V16.8699Z" fill="white"/>
<path d="M488.79 4.91992H483.43V18.3999H481.58V4.91992H476.18V3.41992H488.78V4.91992H488.79Z" fill="white"/>
<path d="M503.48 3.41992V18.3899H501.63V11.4099H492.92V18.3899H491.05V3.41992H492.92V9.89992H501.63V3.41992H503.48Z" fill="white"/>
<path d="M518.18 16.8699V18.3799H507.04V3.41992H518.11V4.92992H508.9V9.94992H517.43V11.4399H508.9V16.8899H518.18V16.8699Z" fill="white"/>
<path d="M543.44 18.3799H541.57V4.80992L536.53 18.3799H534.01L528.95 4.80992V18.3799H527.08V3.41992H530.34L535.29 16.6999L540.22 3.41992H543.44V18.3799Z" fill="white"/>
<path d="M556.27 14.5599H548.84L547.38 18.3899H545.51L551.18 3.41992H553.95L559.62 18.3899H557.73L556.27 14.5599ZM555.7 13.0499L552.55 4.76992L549.4 13.0499H555.7Z" fill="white"/>
<path d="M573.14 15.9999C573.14 17.0999 573.3 17.8199 573.43 18.3899H571.61C571.45 17.8899 571.34 17.1499 571.34 16.0699V14.6999C571.34 12.5599 570.19 11.6799 568.12 11.6799H563.91V18.3899H562.04V3.41992H569.02C572.1 3.41992 573.61 4.94992 573.61 7.35992C573.61 9.35992 572.37 10.7599 570.71 11.1399C572.13 11.5499 573.14 12.2199 573.14 14.4299V15.9999ZM571.66 7.50992C571.66 5.77992 570.78 4.91992 568.82 4.91992H563.91V10.2799H568.79C570.89 10.2799 571.66 9.21992 571.66 7.50992Z" fill="white"/>
<path d="M587.9 4.91992H582.54V18.3999H580.69V4.91992H575.29V3.41992H587.89V4.91992H587.9Z" fill="white"/>
<path d="M0 502.57V501.57H640.31H960.47H1120.55H1140.56H1145.56C1146.41 501.58 1147.19 501.54 1148.1 501.6L1150.76 501.73C1154.31 501.92 1157.82 502.63 1161.24 503.58C1174.93 507.59 1186.47 518.08 1191.89 531.25C1193.18 534.56 1194.25 537.98 1194.8 541.5L1195.2 544.14C1195.35 545.02 1195.32 545.91 1195.39 546.8L1195.52 549.46L1195.53 551.97V571.98V619.99H1194.53V571.98V551.97L1194.52 549.46L1194.39 546.85C1194.32 545.98 1194.35 545.11 1194.2 544.25L1193.81 541.67C1193.28 538.23 1192.23 534.88 1190.96 531.64C1185.65 518.74 1174.35 508.47 1160.95 504.54C1157.6 503.6 1154.16 502.91 1150.68 502.73L1148.07 502.6C1147.19 502.55 1146.39 502.59 1145.55 502.57H1140.55H1120.54H960.47H640.31H0Z" fill="#757445"/>
<path d="M0 507.57V506.57H640.31H960.47H1120.55H1140.56C1143.87 506.6 1147.31 506.48 1150.43 506.72C1153.62 506.88 1156.75 507.53 1159.82 508.38C1172.07 511.97 1182.42 521.38 1187.28 533.17C1188.43 536.14 1189.4 539.19 1189.88 542.34L1190.24 544.7C1190.38 545.49 1190.34 546.29 1190.41 547.08L1190.53 549.47L1190.54 551.97V571.98V619.99H1189.54V571.98V551.97L1189.53 549.48L1189.41 547.15C1189.35 546.37 1189.38 545.59 1189.25 544.82L1188.9 542.51C1188.43 539.43 1187.48 536.45 1186.36 533.55C1181.62 522.04 1171.5 512.84 1159.54 509.34C1156.54 508.51 1153.48 507.88 1150.37 507.72L1148.04 507.6C1147.28 507.55 1146.39 507.59 1145.57 507.57H1140.57H1120.56H960.47H640.31H0Z" fill="#757445"/>
<path d="M1078.03 93.7598H1077.03V619.99H1078.03V93.7598Z" fill="#757445"/>
<path d="M1083.03 93.7598H1082.03V619.99H1083.03V93.7598Z" fill="#757445"/>
<path d="M533.15 243.38V31.8799H531.15V243.38H509.65V288.38H554.65V243.38H533.15Z" fill="white"/>
<path d="M451.51 420.22C444.88 420.22 438.85 422.77 434.34 426.94L350.46 343.06V31.8799H348.46V343.89L432.93 428.36C428.76 432.87 426.21 438.9 426.21 445.53C426.21 459.51 437.54 470.84 451.52 470.84C465.5 470.84 476.83 459.51 476.83 445.53C476.82 431.55 465.49 420.22 451.51 420.22Z" fill="white"/>
<path d="M180.31 586.86C179.14 578.52 177.32 570.25 174.89 562.22C172.49 554.18 169.62 546.33 166.57 538.6L157.37 515.55L152.79 504.05C152.06 502.15 151.3 500.25 150.63 498.33C149.93 496.41 149.25 494.49 148.62 492.55C146.05 484.81 143.88 476.93 142.14 468.96C138.69 453.01 136.94 436.7 136.92 420.39V356.51C136.91 335.51 132.78 314.49 124.72 295.08C116.68 275.66 104.77 257.87 89.91 243.02C75.05 228.16 57.26 216.25 37.85 208.21C25.73 203.17 12.98 199.67 -9.76585e-06 197.75V198.76C12.85 200.67 25.47 204.14 37.47 209.13C56.77 217.12 74.44 228.96 89.21 243.72C103.97 258.49 115.82 276.16 123.8 295.46C131.81 314.75 135.92 335.63 135.92 356.5V420.39V463.36C133.28 449.2 131.94 434.8 131.92 420.39V356.51C131.91 336.15 127.91 315.8 120.1 297C112.32 278.19 100.77 260.96 86.37 246.56C71.97 232.16 54.74 220.62 35.93 212.83C24.42 208.04 12.32 204.7 -9.76585e-06 202.81V203.82C12.19 205.7 24.16 209.01 35.55 213.75C54.24 221.48 71.36 232.96 85.67 247.26C99.97 261.57 111.44 278.69 119.18 297.38C126.94 316.06 130.91 336.27 130.92 356.51V420.4V469.1C130.91 469.06 130.9 469.01 130.89 468.97C127.44 453.02 125.69 436.71 125.67 420.4V356.5C125.66 336.97 121.82 317.43 114.32 299.38C106.85 281.32 95.77 264.78 81.95 250.97C68.13 237.16 51.59 226.08 33.54 218.6C22.78 214.13 11.49 210.97 -0.0100098 209.14V210.15C11.36 211.97 22.52 215.1 33.15 219.52C51.08 226.94 67.52 237.95 81.24 251.67C94.96 265.39 105.97 281.82 113.39 299.76C120.84 317.69 124.65 337.1 124.66 356.5V420.39V463.36C122.02 449.2 120.68 434.8 120.66 420.39V356.49C120.65 337.6 116.94 318.72 109.7 301.28C102.48 283.83 91.77 267.84 78.41 254.49C65.05 241.14 49.06 230.43 31.62 223.2C21.47 218.98 10.83 215.97 -0.0100098 214.18V215.19C10.7 216.97 21.21 219.95 31.24 224.12C48.57 231.29 64.44 241.93 77.71 255.19C90.97 268.45 101.61 284.33 108.78 301.66C115.98 318.98 119.66 337.72 119.67 356.48V420.37V469.07C119.66 469.03 119.65 468.98 119.64 468.94C116.19 452.99 114.44 436.68 114.42 420.37V356.47H114.39C114.38 338.42 110.84 320.35 103.9 303.67C97 287.01 86.75 271.72 73.98 258.95C61.21 246.18 45.92 235.94 29.23 229.03C19.84 225.13 10.02 222.3 -9.76585e-06 220.57V221.59C9.87999 223.31 19.58 226.11 28.84 229.96C45.41 236.82 60.59 246.99 73.27 259.67C85.95 272.35 96.12 287.53 102.98 304.1C109.86 320.66 113.39 338.59 113.39 356.52H113.42V420.41V463.38C110.78 449.22 109.44 434.82 109.42 420.41V356.51H109.39C109.38 339.1 105.96 321.7 99.28 305.62C92.62 289.54 82.75 274.8 70.44 262.49C58.13 250.18 43.39 240.31 27.31 233.65C18.53 230 9.34999 227.33 -9.76585e-06 225.65V226.67C9.21999 228.34 18.27 230.97 26.93 234.57C42.89 241.18 57.52 250.97 69.74 263.19C81.96 275.41 91.76 290.04 98.36 306C104.99 321.95 108.38 339.22 108.39 356.51H108.42V420.4V469.1C108.41 469.06 108.4 469.01 108.39 468.97C104.94 453.02 103.19 436.71 103.17 420.4V356.5C103.16 339.91 99.9 323.32 93.53 307.99C87.18 292.66 77.77 278.61 66.04 266.87C54.31 255.14 40.26 245.73 24.93 239.38C16.91 236.05 8.52999 233.57 -9.76585e-06 231.96V232.98C8.39999 234.58 16.65 237.02 24.55 240.3C39.76 246.6 53.7 255.93 65.34 267.57C76.98 279.21 86.32 293.15 92.61 308.36C98.93 323.57 102.16 340.03 102.17 356.49V420.38V463.35C99.53 449.19 98.19 434.79 98.17 420.38V356.48C98.16 340.54 95.03 324.6 88.92 309.88C82.83 295.15 73.79 281.66 62.51 270.39C51.24 259.15 37.74 250.11 23.02 244.01C15.6 240.93 7.87999 238.61 -9.76585e-06 237.06V238.08C7.74999 239.62 15.34 241.91 22.64 244.94C37.24 250.98 50.63 259.95 61.81 271.13C72.99 282.31 81.95 295.69 88 310.29C94.07 324.89 97.17 340.69 97.18 356.5V420.39V619.97H98.18V441.65C99 450.66 100.34 459.63 102.18 468.49V619.99H103.18V473.01C104.67 479.43 106.42 485.79 108.43 492.06V619.99H109.43V495.17C110.01 496.92 110.62 498.66 111.25 500.39C111.93 502.34 112.69 504.25 113.43 506.17V620H114.43V508.68L118.06 517.8L119.68 521.85V620H120.68V524.36L124.68 534.38V620H125.68V536.88L127.25 540.81C128.53 544.05 129.75 547.29 130.93 550.55V620H131.93V553.35C133.17 556.87 134.34 560.4 135.4 563.95C135.58 564.55 135.75 565.16 135.93 565.77V620H136.93V569.37C138.52 575.41 139.76 581.52 140.62 587.69C141.7 595.72 142.17 611.84 142.18 620H143.18C143.17 611.81 142.71 595.64 141.61 587.56C140.57 580.15 139 572.83 136.93 565.63V552.52C138.08 555.83 139.19 559.16 140.19 562.53C142.6 570.52 144.41 578.73 145.57 587.02C146.69 595.32 147.17 611.67 147.17 620.01H148.17C148.16 611.64 147.69 595.24 146.56 586.88C145.39 578.54 143.57 570.27 141.14 562.24C139.85 557.94 138.43 553.69 136.92 549.49V536.89L138.49 540.82C141.5 548.47 144.31 556.16 146.64 563.96C148.99 571.75 150.74 579.68 151.86 587.7C152.94 595.73 153.41 611.85 153.42 620.01H154.42C154.41 611.82 153.95 595.65 152.85 587.57C151.72 579.49 149.96 571.51 147.6 563.68C145.26 555.84 142.44 548.12 139.42 540.46L136.92 534.2V523.41L143.14 539C146.18 546.71 149.04 554.54 151.43 562.54C153.84 570.53 155.65 578.74 156.81 587.03C157.93 595.33 158.41 611.68 158.41 620.02H159.41C159.4 611.65 158.93 595.25 157.8 586.89C156.63 578.55 154.81 570.28 152.38 562.25C149.98 554.21 147.11 546.36 144.06 538.63L136.91 520.71V508.7L140.54 517.82L149.73 540.83C152.74 548.48 155.55 556.17 157.88 563.97C160.23 571.76 161.98 579.69 163.1 587.71C164.18 595.74 164.65 611.86 164.66 620.02H165.66C165.65 611.83 165.19 595.66 164.09 587.58C162.96 579.5 161.2 571.52 158.84 563.69C156.5 555.85 153.68 548.13 150.66 540.47L141.47 517.46L136.91 506.01V494.38C137.4 495.83 137.91 497.28 138.43 498.72C139.1 500.66 139.87 502.56 140.6 504.47L145.18 515.98L154.38 539.02C157.42 546.73 160.28 554.56 162.67 562.56C165.08 570.55 166.89 578.76 168.05 587.05C169.17 595.35 169.65 611.7 169.65 620.04H170.65C170.64 611.67 170.17 595.27 169.04 586.91C167.87 578.57 166.05 570.3 163.62 562.27C161.22 554.23 158.35 546.38 155.3 538.65L146.1 515.6L141.52 504.1C140.79 502.2 140.03 500.3 139.36 498.38C138.66 496.46 137.98 494.54 137.35 492.6C137.19 492.13 137.05 491.65 136.9 491.17V473.01C138.57 480.24 140.57 487.4 142.91 494.45C143.55 496.44 144.26 498.41 144.97 500.38C145.66 502.36 146.44 504.3 147.19 506.25L151.79 517.78L160.98 540.79C163.99 548.44 166.8 556.13 169.13 563.93C171.48 571.72 173.23 579.65 174.35 587.67C175.43 595.7 175.9 611.82 175.91 619.98H176.91C176.9 611.79 176.44 595.62 175.34 587.54C174.21 579.46 172.45 571.48 170.09 563.65C167.75 555.81 164.93 548.09 161.91 540.43L152.72 517.42L148.13 505.89C147.38 503.94 146.61 502.01 145.92 500.04C145.21 498.08 144.51 496.12 143.87 494.13C141.24 486.22 139.03 478.17 137.24 470.03C137.12 469.48 137.02 468.93 136.91 468.38V441.41C137.77 450.74 139.17 460.02 141.15 469.18C142.9 477.18 145.08 485.09 147.66 492.87C148.29 494.82 148.98 496.75 149.68 498.67C150.35 500.61 151.12 502.51 151.85 504.42L156.43 515.93L165.63 538.97C168.67 546.68 171.53 554.51 173.92 562.51C176.33 570.5 178.14 578.71 179.3 587C180.42 595.3 180.9 611.65 180.9 619.99H181.9C181.92 611.62 181.44 595.21 180.31 586.86ZM108.42 488.76C106.53 482.59 104.88 476.34 103.5 470.03C103.38 469.48 103.28 468.93 103.17 468.38V441.41C104.03 450.74 105.43 460.02 107.41 469.18C107.73 470.63 108.07 472.07 108.42 473.51V488.76ZM113.42 503.39C112.99 502.28 112.57 501.17 112.18 500.05C111.47 498.09 110.77 496.13 110.13 494.14C109.88 493.4 109.66 492.65 109.42 491.91V477.53C110.61 482.16 111.94 486.75 113.42 491.29V503.39ZM113.42 487.99C111.93 483.17 110.59 478.31 109.42 473.4V441.65C110.24 450.66 111.58 459.63 113.42 468.49V487.99ZM119.67 519.15L118.98 517.42L114.42 505.97V494.34C114.91 495.79 115.42 497.24 115.94 498.68C116.61 500.62 117.38 502.52 118.11 504.43L119.67 508.34V519.15ZM119.67 505.64L119.04 504.06C118.31 502.16 117.55 500.26 116.88 498.34C116.18 496.42 115.5 494.5 114.87 492.56C114.71 492.09 114.57 491.61 114.42 491.13V473.01C115.91 479.43 117.66 485.79 119.67 492.06V505.64ZM119.67 488.76C117.78 482.59 116.13 476.34 114.75 470.03C114.63 469.48 114.53 468.93 114.42 468.38V441.41C115.28 450.74 116.68 460.02 118.66 469.18C118.98 470.63 119.32 472.07 119.67 473.51V488.76ZM124.67 531.67L120.67 521.65V510.85L122.69 515.93L124.67 520.88V531.67ZM124.67 518.18L123.62 515.56L120.67 508.15V495.16C121.25 496.91 121.86 498.65 122.49 500.38C123.17 502.33 123.93 504.24 124.67 506.16V518.18ZM124.67 503.39C124.24 502.28 123.82 501.17 123.43 500.05C122.72 498.09 122.02 496.13 121.38 494.14C121.13 493.4 120.91 492.65 120.67 491.91V477.53C121.86 482.16 123.19 486.75 124.67 491.29V503.39ZM124.67 487.99C123.18 483.17 121.84 478.31 120.67 473.4V441.65C121.49 450.66 122.83 459.63 124.67 468.49V487.99ZM130.92 547.64C130.02 545.23 129.11 542.83 128.17 540.44L125.67 534.18V523.39L130.92 536.54V547.64ZM130.92 533.84L125.67 520.69V508.68L129.3 517.8L130.92 521.85V533.84ZM130.92 519.15L130.23 517.42L125.67 505.97V494.34C126.16 495.79 126.67 497.24 127.19 498.68C127.86 500.62 128.63 502.52 129.36 504.43L130.92 508.34V519.15ZM130.92 505.64L130.29 504.06C129.56 502.16 128.8 500.26 128.13 498.34C127.43 496.42 126.75 494.5 126.12 492.56C125.96 492.09 125.82 491.61 125.67 491.13V473.01C127.16 479.43 128.91 485.79 130.92 492.06V505.64ZM130.92 488.76C129.03 482.59 127.38 476.34 126 470.03C125.88 469.48 125.78 468.93 125.67 468.38V441.41C126.53 450.74 127.93 460.02 129.91 469.18C130.23 470.63 130.57 472.07 130.92 473.51V488.76ZM135.92 562.29C134.69 558.29 133.35 554.31 131.92 550.36V539.04C133.3 542.55 134.64 546.09 135.92 549.65V562.29ZM135.92 546.75C134.91 544.02 133.89 541.31 132.82 538.61L131.92 536.35V524.35L135.92 534.37V546.75ZM135.92 531.67L131.92 521.65V510.85L133.94 515.93L135.92 520.88V531.67ZM135.92 518.18L134.87 515.56L131.92 508.15V495.16C132.5 496.91 133.11 498.65 133.74 500.38C134.42 502.33 135.18 504.24 135.92 506.16V518.18ZM135.92 503.39C135.49 502.28 135.07 501.17 134.68 500.05C133.97 498.09 133.27 496.13 132.63 494.14C132.38 493.4 132.16 492.65 131.92 491.91V477.53C133.11 482.16 134.44 486.75 135.92 491.29V503.39ZM135.92 487.99C134.43 483.17 133.09 478.31 131.92 473.4V441.65C132.74 450.66 134.08 459.63 135.92 468.49V487.99Z" fill="#757445"/>
</g>
</g>
<defs>
<clipPath id="clip0">
<path d="M0 0H1440V630H0V0Z" fill="white"/>
</clipPath>
<clipPath id="clip1">
<rect y="3.00977" width="1514.28" height="616.99" fill="white"/>
</clipPath>
</defs>
</svg>
