<svg width="1280" height="560" viewBox="0 0 1280 560" fill="none" xmlns="http://www.w3.org/2000/svg">
<g clip-path="url(#clip0)">
<path d="M321.01 369.94L240.03 281.67V165.84H180.03V305.02L290.03 424.93V430.84H350.03V425.77L449.49 326.34L407.06 283.92L321.01 369.94Z" fill="#757445"/>
<path d="M650.03 263.36H562.53V323.36H650.03V263.36Z" fill="#757445"/>
<path d="M410.6 280.38L453.58 323.36H557.53V263.36H427.62L410.6 280.38Z" fill="#757445"/>
<path d="M1317.69 -16.6597L1243.86 57.1603V142.01L1360.11 25.7803L1317.69 -16.6597Z" fill="#757445"/>
<path d="M1060.92 323.36H1062.45L1250.03 135.83V50.9902L1039.18 261.78L1060.92 323.36Z" fill="#757445"/>
<path d="M757.53 263.36H670.03V323.36H757.53V263.36Z" fill="#757445"/>
<path d="M350.03 435.84H290.03V560H350.03V435.84Z" fill="#757445"/>
<path d="M857.53 263.36H762.53V323.36H857.53V263.36Z" fill="#757445"/>
<path d="M180.03 160.84H240.03V100.91L11.18 -127.82L-31.24 -85.3798L180.03 125.77V160.84Z" fill="#757445"/>
<path d="M970.03 263.36V323.36H1055.62L1034.44 263.36H970.03Z" fill="#757445"/>
<path d="M950.03 263.36H862.53V323.36H950.03V263.36Z" fill="#757445"/>
<path d="M1063.53 560H1061.53V434.84H1158.53V533.34H1156.53V436.84H1063.53V560ZM1058.53 560H1056.53V436.84H971V560H969V434.84H1058.5L1058.53 560ZM951 560H949V436.84H863.5V533.34H861.5V434.84H951V560ZM671 560H669V434.84H758.5V533.34H756.5V436.84H671V560ZM651 560H649V436.84H563.5V534.11H556.5V436.84H463.5V533.34H461.5V434.84H558.5V532.11H561.5V434.84H651V560ZM361 560H359V434.84H458.5V533.34H456.5V436.84H361V560ZM351 560H349V436.84H163.53V523.11H161.53V434.84H351V560ZM71.0001 560H69.0001V434.84H158.5V523.11H156.5V436.84H71.0001V560ZM51.0001 560H49.0001V69.1103H-38.4099V62.1103L71.0001 62.3503V159.84H376.46L376.39 63.3503H378.39L378.46 161.85H69.0001V64.3403L-36.4399 64.1103V67.1103H51.0001V560ZM1163.5 533.34H1161.5V434.84H1250V436.84H1163.5V533.34ZM858.5 533.34H856.5V436.84H763.5V533.34H761.5V434.84H858.5V533.34ZM1250 431.84H1161.5V332.34H1250V334.34H1163.5V429.84H1250V431.84ZM1158.5 431.84H1061.5V332.34H1158.5V431.84ZM1063.5 429.84H1156.5V334.34H1063.5V429.84ZM1058.5 431.84H969V332.34H1058.5V431.84ZM971 429.84H1056.5V334.34H971V429.84ZM951 431.84H861.5V332.34H951V431.84ZM863.5 429.84H949V334.34H863.5V429.84ZM858.5 431.84H761.5V332.34H858.5V431.84ZM763.5 429.84H856.5V334.34H763.5V429.84ZM758.5 431.84H669V332.34H758.5V431.84ZM671 429.84H756.5V334.34H671V429.84ZM651 431.84H561.5V332.34H651V431.84ZM563.5 429.84H649V334.34H563.5V429.84ZM558.5 431.84H461.5V332.34H558.5V431.84ZM463.5 429.84H556.5V334.34H463.5V429.84ZM458.5 431.84H359V429.57L456.58 332L458.53 333.94L458.5 431.84ZM361.55 429.84H456.5V334.9L361.55 429.84ZM351 431.84H161.53V164.84H378.46L378.53 253.96L450.92 326.36L351 426.25V431.84ZM163.5 429.84H349V425.42L448.06 326.36L376.5 254.79L376.43 166.84H163.53L163.5 429.84ZM158.5 431.84H69.0001V164.84H158.5V431.84ZM71.0001 429.84H156.5V166.84H71.0001V429.84ZM1250 324.34H1074.15L1287.15 111.34L1288.56 112.76L1079 322.34H1250V324.34ZM1062.81 324.34H1060.18L1031.73 243.73L1061.53 214V164L1061.82 163.71L1161.09 64.2103L1162.5 65.6203L1063.5 164.83V214.83L1034.03 244.3L1061.59 322.38H1061.98L1287.13 97.2203L1288.54 98.6303L1062.81 324.34ZM1056.99 324.34H969V164.84H1058.5V212.72L1028.3 243L1056.99 324.34ZM970.99 322.34H1054.16L1026 242.43L1056.54 211.89V166.89H971L970.99 322.34ZM950.99 324.34H861.49V164.84H951L950.99 324.34ZM863.49 322.34H949V166.84H863.5L863.49 322.34ZM858.49 324.34H761.49V164.84H858.49V324.34ZM763.49 322.34H856.49V166.84H763.49V322.34ZM758.49 324.34H669V164.84H758.5L758.49 324.34ZM670.99 322.34H756.49V166.84H671L670.99 322.34ZM650.99 324.34H561.49V164.84H651L650.99 324.34ZM563.49 322.34H649V166.84H563.5L563.49 322.34ZM558.49 324.34H453.15L381.53 252.72L381.46 164.84H558.53L558.49 324.34ZM453.94 322.34H556.53V166.84H383.46L383.52 251.84L453.94 322.34ZM1058.49 161.84H969V-105.66H951V161.84H861.5V63.3403H863.5V159.84H949V-107.66H971V159.84H1056.5V63.3403H1058.5L1058.49 161.84ZM858.49 161.84H761.49V63.3403H763.49V159.84H856.49V63.3403H858.49V161.84ZM758.49 161.84H669V-106.66H671V159.84H756.5V63.3403H758.5L758.49 161.84ZM650.99 161.84H561.49V63.3403H563.49V159.84H649V-106.66H651L650.99 161.84ZM558.49 161.84H381.46L381.39 63.3403H383.39L383.46 159.84H556.53V63.3403H558.53L558.49 161.84ZM1061.49 159.72V63.3403H1063.49V154.88L1157.49 60.6403L1158.9 62.0503L1061.49 159.72Z" fill="#E8F5A7"/>
<path d="M505.03 177.34H500.03H440.03H435.03V173.34H386.47L393.91 251.34H417.95L418.49 250.81L419.95 249.34H422.03H440.03H445.03V253.34H495.03V249.34H500.03H518.03H520.1L521.56 250.81L522.1 251.34H545.03V173.34H505.03V177.34Z" fill="white"/>
<path d="M153.03 532.99H152.03V613.34H153.03V532.99Z" fill="#757445"/>
<path d="M148.03 532.99H147.03V613.34H148.03V532.99Z" fill="#757445"/>
<path d="M143.03 532.99H142.03V613.34H143.03V532.99Z" fill="#757445"/>
<path d="M138.03 532.99H137.03V613.34H138.03V532.99Z" fill="#757445"/>
<path d="M133.03 532.99H132.03V613.34H133.03V532.99Z" fill="#757445"/>
<path d="M128.03 532.99H127.03V613.34H128.03V532.99Z" fill="#757445"/>
<path d="M123.03 532.99H122.03V613.34H123.03V532.99Z" fill="#757445"/>
<path d="M118.03 532.99H117.03V613.34H118.03V532.99Z" fill="#757445"/>
<path d="M113.03 253.34H112.03V353.69H113.03V253.34Z" fill="#757445"/>
<path d="M108.03 253.34H107.03V353.69H108.03V253.34Z" fill="#757445"/>
<path d="M960.03 -106.66H959.03V560H960.03V-106.66Z" fill="#757445"/>
<path d="M965.03 -106.66H964.03V560H965.03V-106.66Z" fill="#757445"/>
<path d="M560 560H559V200.92C559 198.08 559 195.18 559 192.4C559 191.04 559 189.67 558.83 188.3L558.67 186.3C558.61 185.62 558.51 184.94 558.43 184.3C557.744 178.869 556.428 173.537 554.51 168.41C552.577 163.29 550.074 158.402 547.05 153.84C540.947 144.702 532.824 137.089 523.31 131.59C513.808 126.08 503.153 122.858 492.19 122.18C490.82 122.05 489.45 122.08 488.08 122.03L483.68 121.91C482.2 121.83 480.73 121.68 479.25 121.56C477.77 121.44 476.31 121.16 474.84 120.96C469.003 119.982 463.298 118.331 457.84 116.04C446.833 111.413 437.034 104.321 429.2 95.3102L429.95 94.6602C437.689 103.497 447.34 110.453 458.17 115C463.57 117.283 469.219 118.927 475 119.9C476.45 120.09 477.89 120.31 479.35 120.49C480.81 120.67 482.26 120.75 483.72 120.83L488.08 120.95C489.47 121.01 490.86 120.95 492.24 121.1C503.357 121.79 514.162 125.056 523.8 130.64C533.443 136.221 541.677 143.939 547.87 153.2C550.944 157.834 553.486 162.798 555.45 168C557.41 173.198 558.752 178.609 559.45 184.12C559.53 184.8 559.63 185.49 559.7 186.18L559.86 188.26C559.99 189.64 559.99 191.03 560.03 192.41C560.03 195.21 560.03 198.1 560.03 200.94V560H560Z" fill="#757445"/>
<path d="M565 560H564V200.92C564 198.05 564 195.24 564 192.34C564 190.88 564 189.41 563.82 187.96L563.65 185.77C563.58 185.04 563.47 184.32 563.39 183.59C562.658 177.78 561.252 172.075 559.2 166.59C557.123 161.108 554.44 155.876 551.2 150.99C544.67 141.218 535.983 133.076 525.81 127.19C515.635 121.294 504.227 117.847 492.49 117.12C491.03 116.99 489.57 117.02 488.11 116.96L483.92 116.84C482.54 116.77 481.16 116.63 479.77 116.52C478.38 116.41 477.03 116.15 475.65 115.96C470.175 115.049 464.826 113.502 459.71 111.35C449.449 107.02 440.313 100.401 433 92.0003L433.75 91.3403C440.982 99.5994 450.005 106.098 460.13 110.34C465.166 112.494 470.434 114.058 475.83 115C477.18 115.18 478.53 115.38 479.89 115.55C481.25 115.72 482.62 115.79 483.98 115.87L488.12 115.98C489.6 116.04 491.12 115.98 492.56 116.14C504.451 116.883 516.007 120.374 526.32 126.34C536.607 132.305 545.391 140.545 552 150.43C555.283 155.375 557.997 160.676 560.09 166.23C562.171 171.789 563.597 177.572 564.34 183.46C564.43 184.2 564.54 184.93 564.61 185.67L564.77 187.89C564.92 189.36 564.92 190.89 564.96 192.33C564.96 195.25 564.96 198.05 564.96 200.92V560H565Z" fill="#757445"/>
<path d="M-2 433.34V432.34H1012.18C1015.23 432.34 1018.18 432.28 1021.55 432.52C1028.1 433.062 1034.45 435.1 1040.09 438.477C1045.73 441.854 1050.53 446.48 1054.1 452C1057.66 457.53 1059.92 463.793 1060.71 470.32C1060.82 471.129 1060.89 471.944 1060.9 472.76L1061.02 475.21V562H1060.02V475.19L1059.9 472.8C1059.89 472 1059.82 471.202 1059.71 470.41C1058.94 464.037 1056.73 457.921 1053.26 452.52C1049.76 447.137 1045.08 442.625 1039.57 439.332C1034.06 436.038 1027.87 434.05 1021.47 433.52C1018.22 433.28 1015.23 433.35 1012.18 433.34H-2Z" fill="#757445"/>
<path d="M-2 438.34V437.34H1012.18C1015.18 437.34 1018.32 437.34 1021.18 437.5C1026.97 437.98 1032.57 439.779 1037.55 442.761C1042.54 445.743 1046.77 449.827 1049.93 454.7C1053.07 459.584 1055.07 465.116 1055.77 470.88C1055.87 471.596 1055.93 472.318 1055.94 473.04L1056.05 475.21V562H1055.05V475.21L1054.94 473.1C1054.93 472.395 1054.87 471.69 1054.78 470.99C1054.09 465.379 1052.15 459.996 1049.09 455.24C1046.01 450.486 1041.87 446.509 1037 443.62C1032.16 440.682 1026.7 438.928 1021.06 438.5L1018.95 438.39L1017.89 438.34H-2Z" fill="#757445"/>
<path d="M225 12.7901C225 6.00014 228.6 0.890137 236.38 0.890137C243.38 0.890137 246.51 4.32014 247.06 9.89014H244.2C243.72 5.47014 241.2 3.19014 236.31 3.19014C230.67 3.19014 227.98 6.42014 227.98 12.7501C227.98 19.0801 230.6 22.3001 236.25 22.3001C241.38 22.3001 243.96 19.6501 244.25 15.0601H247.14C246.76 20.8001 243.53 24.6401 236.29 24.6401C228.53 24.6801 225 19.6501 225 12.7901Z" fill="#757445"/>
<path d="M249.13 15.5703C249.13 10.5103 251.95 6.57031 257.7 6.57031C263.45 6.57031 266.23 10.5703 266.23 15.5703C266.23 20.5703 263.41 24.6503 257.7 24.6503C251.99 24.6503 249.13 20.7103 249.13 15.5703ZM257.7 22.4403C261.54 22.4403 263.48 20.3703 263.48 15.6103C263.48 10.8503 261.54 8.77031 257.7 8.77031C253.86 8.77031 251.89 10.7703 251.89 15.6103C251.89 20.4503 253.86 22.4403 257.7 22.4403Z" fill="#757445"/>
<path d="M284.12 13.2601V24.1101H281.4V13.5701C281.4 9.93006 279.8 8.84006 277.32 8.84006C273.54 8.84006 271.54 11.7701 271.54 17.6101V24.1101H268.82V7.11006H271.54V11.5601C272.54 8.47006 274.7 6.56006 278.07 6.56006C282.32 6.56006 284.12 8.88006 284.12 13.2601Z" fill="#757445"/>
<path d="M302.38 24.1101H299.66V2.38006H291.36V7.11006H296.36V9.25006H291.56V24.1101H288.84V9.25006H286V7.72006L288.84 7.00006V3.74006C288.84 1.47006 289.9 0.310059 293.16 0.310059H302.38V24.1101Z" fill="#757445"/>
<path d="M321.25 7.11035V24.1104H318.53V19.7904C317.53 22.7904 315.53 24.6504 312.2 24.6504C307.92 24.6504 305.98 22.4104 305.98 17.9504V7.11035H308.7V17.6504C308.7 21.4204 310.37 22.4104 312.98 22.4104C316.52 22.4104 318.53 19.2504 318.53 13.6004V7.11035H321.25Z" fill="#757445"/>
<path d="M338 18.8703H340.48C340.14 21.4603 338.17 24.6503 332.53 24.6503C326.68 24.6503 324.1 20.7103 324.1 15.5703C324.1 10.4303 326.88 6.57031 332.53 6.57031C337.63 6.57031 340.53 10.0803 340.53 15.0403C340.543 15.4383 340.519 15.8366 340.46 16.2303H326.82C327.03 20.8903 329.27 22.5903 332.67 22.5903C336.07 22.5903 337.53 21.0003 338 18.8703ZM326.85 14.1803H337.85C337.71 10.2703 335.7 8.64031 332.54 8.64031C329.38 8.64031 327.26 10.1703 326.89 14.1803H326.85Z" fill="#757445"/>
<path d="M358.34 13.2601V24.1101H355.62V13.5701C355.62 9.93006 354.02 8.84006 351.54 8.84006C347.77 8.84006 345.76 11.7701 345.76 17.6101V24.1101H343V7.11006H345.72V11.5601C346.77 8.47006 348.88 6.56006 352.25 6.56006C356.54 6.56006 358.34 8.88006 358.34 13.2601Z" fill="#757445"/>
<path d="M369.15 6.56006C374.25 6.56006 376.8 9.39006 377.07 13.3301H374.52C374.482 12.6814 374.315 12.047 374.028 11.4641C373.741 10.8813 373.34 10.362 372.848 9.93685C372.357 9.51173 371.785 9.18943 371.167 8.98902C370.549 8.78861 369.897 8.71415 369.25 8.77006C365.65 8.77006 363.41 10.7101 363.41 15.6101C363.41 20.5101 365.58 22.4401 369.15 22.4401C372.72 22.4401 374.35 20.5001 374.69 17.6101H377.28C377.07 21.5201 374.28 24.6101 369.15 24.6101C363.58 24.6101 360.65 20.7701 360.65 15.6101C360.65 10.4501 363.64 6.56006 369.15 6.56006Z" fill="#757445"/>
<path d="M392.85 18.8703H395.33C394.99 21.4603 393.02 24.6503 387.38 24.6503C381.53 24.6503 378.95 20.7103 378.95 15.5703C378.95 10.4303 381.73 6.57031 387.38 6.57031C392.48 6.57031 395.38 10.0803 395.38 15.0403C395.393 15.4383 395.369 15.8366 395.31 16.2303H381.63C381.83 20.8903 384.08 22.5903 387.48 22.5903C390.88 22.5903 392.34 21.0003 392.85 18.8703ZM381.7 14.1803H392.7C392.57 10.2703 390.56 8.64031 387.4 8.64031C384.24 8.64031 382.07 10.1703 381.7 14.1803Z" fill="#757445"/>
<path d="M457.23 3.78H449.14V24.14H446.35V3.78H438.19V1.5H457.19L457.23 3.78Z" fill="#757445"/>
<path d="M474.23 13.2601V24.1101H471.51V13.5701C471.51 9.93006 469.91 8.84006 467.43 8.84006C463.66 8.84006 461.65 11.7701 461.65 17.6101V24.1101H458.93V0.310059H461.65V11.5601C462.7 8.47006 464.81 6.56006 468.18 6.56006C472.43 6.56006 474.23 8.88006 474.23 13.2601Z" fill="#757445"/>
<path d="M490.45 18.8703H492.93C492.59 21.4603 490.62 24.6503 484.93 24.6503C479.09 24.6503 476.5 20.7103 476.5 15.5703C476.5 10.4303 479.29 6.57031 484.93 6.57031C490.03 6.57031 492.93 10.0803 492.93 15.0403C492.941 15.4379 492.921 15.8358 492.87 16.2303H479.23C479.43 20.8903 481.68 22.5903 485.08 22.5903C488.48 22.5903 489.94 21.0003 490.45 18.8703ZM479.3 14.1803H490.3C490.17 10.2703 488.16 8.64031 485 8.64031C481.84 8.64031 479.67 10.1703 479.3 14.1803Z" fill="#757445"/>
<path d="M527.2 24.11H524.38V3.61L516.76 24.11H513L505.35 3.61V24.11H502.52V1.5H507.45L514.93 21.56L522.34 1.5H527.2V24.11Z" fill="#757445"/>
<path d="M547.09 7.11018V24.1102H544.37V20.8402C543.806 22.0549 542.886 23.0697 541.733 23.7501C540.579 24.4304 539.246 24.7443 537.91 24.6502C532.57 24.6502 530.13 20.8402 530.13 15.6502C530.13 10.4602 532.57 6.65018 537.91 6.65018C539.246 6.55743 540.578 6.87192 541.732 7.55214C542.885 8.23235 543.805 9.24631 544.37 10.4602V7.11018H547.09ZM544.37 15.6102C544.37 10.8102 542.09 8.77018 538.46 8.77018C534.58 8.77018 532.88 11.0202 532.88 15.6102C532.88 20.2002 534.58 22.4402 538.46 22.4402C542.09 22.4402 544.37 20.4002 544.37 15.6102Z" fill="#757445"/>
<path d="M559.67 6.8701H560.28V9.5601H559.57C554.57 9.3901 553.45 13.0601 553.45 17.8501V24.1101H550.73V7.1101H553.45V11.6001C554.47 8.7701 556.44 6.8701 559.67 6.8701ZM565.49 9.2501V21.9001H571.09V24.1101H566.88C563.62 24.1101 562.77 22.8501 562.77 20.1101V7.3501L564.02 3.3501H565.49V7.1101H571.33V9.2501H565.49Z" fill="#757445"/>
<path d="M113.03 353.69H112.03V613.34H113.03V353.69Z" fill="#757445"/>
<path d="M108.03 353.69H107.03V613.34H108.03V353.69Z" fill="#757445"/>
<path d="M103.03 253.34H102.03V613.34H103.03V253.34Z" fill="#757445"/>
<path d="M98.03 253.34H97.03V613.34H98.03V253.34Z" fill="#757445"/>
<path d="M93.03 253.34H92.03V613.34H93.03V253.34Z" fill="#757445"/>
<path d="M88.03 253.34H87.03V613.34H88.03V253.34Z" fill="#757445"/>
<path d="M83.03 253.34H82.03V613.34H83.03V253.34Z" fill="#757445"/>
<path d="M78.03 253.34H77.03V613.34H78.03V253.34Z" fill="#757445"/>
<path d="M112 353.69H113C113.013 376.543 116.874 399.23 124.42 420.8C125.69 424.4 127.04 427.89 128.49 431.49L132.78 442.23L137.08 452.97C138.51 456.53 139.94 460.23 141.23 463.9C143.825 471.287 145.995 478.816 147.73 486.45C151.222 501.721 152.99 517.335 153 533H152C151.991 517.412 150.23 501.875 146.75 486.68C145.023 479.084 142.866 471.592 140.29 464.24C139 460.58 137.59 456.91 136.15 453.35L131.85 442.61L127.56 431.87C126.11 428.28 124.75 424.75 123.48 421.14C120.949 413.934 118.832 406.589 117.14 399.14C113.726 384.231 112.002 368.985 112 353.69Z" fill="#757445"/>
<path d="M107 353.69H108C108.018 369.276 109.785 384.81 113.27 400C114.995 407.595 117.155 415.084 119.74 422.43C121.02 426.09 122.44 429.76 123.87 433.33L128.17 444.07L132.47 454.81C133.91 458.4 135.27 461.92 136.54 465.54C139.07 472.748 141.19 480.093 142.89 487.54C146.285 502.455 147.999 517.704 148 533H147C146.989 517.786 145.271 502.622 141.88 487.79C140.193 480.38 138.087 473.072 135.57 465.9C134.3 462.3 132.96 458.8 131.51 455.21L127.21 444.47L123 433.72C121.56 430.16 120.13 426.46 118.84 422.78C116.248 415.396 114.078 407.871 112.34 400.24C108.825 384.972 107.034 369.358 107 353.69Z" fill="#757445"/>
<path d="M102 353.69H103C103.013 376.543 106.874 399.23 114.42 420.8C115.69 424.4 117.04 427.89 118.49 431.49L122.78 442.23L127.08 452.97C128.51 456.53 129.94 460.23 131.23 463.9C133.825 471.287 135.995 478.816 137.73 486.45C141.222 501.721 142.99 517.335 143 533H142C141.991 517.412 140.23 501.875 136.75 486.68C135.023 479.084 132.866 471.592 130.29 464.24C129 460.58 127.59 456.91 126.15 453.35L121.85 442.61L117.56 431.87C116.11 428.28 114.75 424.75 113.48 421.14C110.949 413.934 108.832 406.589 107.14 399.14C103.726 384.231 102.002 368.985 102 353.69Z" fill="#757445"/>
<path d="M97 353.69H98C98.0176 369.276 99.7854 384.81 103.27 400C104.995 407.595 107.155 415.084 109.74 422.43C111.02 426.09 112.44 429.76 113.87 433.33L118.17 444.07L122.47 454.81C123.91 458.4 125.27 461.92 126.54 465.54C129.07 472.748 131.19 480.093 132.89 487.54C136.285 502.455 137.999 517.704 138 533H137C136.989 517.786 135.271 502.622 131.88 487.79C130.193 480.38 128.087 473.072 125.57 465.9C124.3 462.3 122.96 458.8 121.51 455.21L117.21 444.47L113 433.72C111.56 430.16 110.13 426.46 108.84 422.78C106.248 415.396 104.078 407.871 102.34 400.24C98.8249 384.972 97.0337 369.358 97 353.69Z" fill="#757445"/>
<path d="M92 353.69H93C93.013 376.543 96.8737 399.23 104.42 420.8C105.69 424.4 107.04 427.89 108.49 431.49L112.78 442.23L117.08 452.97C118.51 456.53 119.94 460.23 121.23 463.9C123.825 471.287 125.995 478.816 127.73 486.45C131.222 501.721 132.99 517.335 133 533H132C131.991 517.412 130.23 501.875 126.75 486.68C125.023 479.084 122.866 471.592 120.29 464.24C119 460.58 117.59 456.91 116.15 453.35L111.85 442.61L107.56 431.87C106.11 428.28 104.75 424.75 103.48 421.14C100.949 413.934 98.8319 406.589 97.14 399.14C93.7261 384.231 92.0019 368.985 92 353.69Z" fill="#757445"/>
<path d="M87 353.69H88C88.0176 369.276 89.7854 384.81 93.27 400C94.9946 407.595 97.1549 415.084 99.74 422.43C101.02 426.09 102.44 429.76 103.87 433.33L108.17 444.07L112.47 454.81C113.91 458.4 115.27 461.92 116.54 465.54C119.07 472.748 121.19 480.093 122.89 487.54C126.285 502.455 127.999 517.704 128 533H127C126.989 517.786 125.271 502.622 121.88 487.79C120.193 480.38 118.087 473.072 115.57 465.9C114.3 462.3 112.96 458.8 111.51 455.21L107.21 444.47L103 433.72C101.56 430.16 100.13 426.46 98.84 422.78C96.2481 415.396 94.0779 407.871 92.34 400.24C88.8249 384.972 87.0337 369.358 87 353.69Z" fill="#757445"/>
<path d="M82 353.69H83C83.0227 376.545 86.8935 399.232 94.45 420.8C95.72 424.4 97.07 427.89 98.52 431.49L102.81 442.23L107.11 452.97C108.54 456.53 109.97 460.23 111.26 463.9C113.855 471.287 116.025 478.816 117.76 486.45C121.242 501.722 123 517.337 123 533H122C121.991 517.412 120.23 501.875 116.75 486.68C115.023 479.084 112.866 471.592 110.29 464.24C109 460.58 107.59 456.91 106.15 453.35L101.85 442.61L97.56 431.87C96.11 428.28 94.75 424.75 93.48 421.14C90.9487 413.934 88.8319 406.589 87.14 399.14C83.7261 384.231 82.0019 368.985 82 353.69Z" fill="#757445"/>
<path d="M77 353.69H78C78.0176 369.276 79.7854 384.81 83.27 400C84.9946 407.595 87.1549 415.084 89.74 422.43C91.02 426.09 92.44 429.76 93.87 433.33L98.17 444.07L102.47 454.81C103.91 458.4 105.27 461.92 106.54 465.54C109.07 472.748 111.19 480.093 112.89 487.54C116.285 502.455 117.999 517.704 118 533H117C116.989 517.786 115.271 502.622 111.88 487.79C110.193 480.38 108.087 473.072 105.57 465.9C104.3 462.3 102.96 458.8 101.51 455.21L97.21 444.47L93 433.72C91.56 430.16 90.13 426.46 88.84 422.78C86.2481 415.396 84.0779 407.871 82.34 400.24C78.8249 384.972 77.0337 369.358 77 353.69Z" fill="#757445"/>
<path d="M-30 111.34V110.34C-11.2209 110.345 7.3744 114.038 24.73 121.21C42.0726 128.403 57.8316 138.937 71.11 152.21C84.3837 165.489 94.9168 181.248 102.11 198.59C109.291 215.951 112.992 234.553 113 253.34H112C112.009 234.696 108.349 216.232 101.23 199C94.0805 181.777 83.6194 166.124 70.44 152.93C57.2463 139.751 41.5937 129.29 24.37 122.14C7.13107 115.007 -11.3435 111.337 -30 111.34Z" fill="#757445"/>
<path d="M-30 116.34V115.34C-11.8793 115.342 6.0644 118.906 22.81 125.83C39.5473 132.783 54.7579 142.951 67.58 155.76C80.3888 168.582 90.5576 183.793 97.51 200.53C104.434 217.276 107.999 235.22 108 253.34H107C107.001 235.349 103.461 217.534 96.58 200.91C89.6921 184.296 79.6079 169.197 66.9 156.47C54.1757 143.752 39.0764 133.657 22.46 126.76C5.82728 119.876 -11.9987 116.335 -30 116.34Z" fill="#757445"/>
<path d="M-30 121.34V120.34C-12.5349 120.343 4.75948 123.778 20.9 130.45C37.0414 137.145 51.7095 146.948 64.07 159.3C76.4193 171.652 86.2216 186.31 92.92 202.44C99.5817 218.583 103.007 235.877 103 253.34H102C102.013 236.007 98.6149 218.841 92 202.82C85.354 186.807 75.6226 172.257 63.36 160C51.1052 147.742 36.5591 138.014 20.55 131.37C4.52174 124.741 -12.655 121.333 -30 121.34Z" fill="#757445"/>
<path d="M-30 126.34V125.34C-13.1866 125.338 3.46296 128.644 19 135.07C34.5271 141.516 48.6373 150.948 60.53 162.83C72.4163 174.722 81.8515 188.832 88.3 204.36C94.7259 219.897 98.032 236.547 98.03 253.36H97C96.9975 236.684 93.7152 220.17 87.34 204.76C80.9501 189.354 71.5925 175.355 59.8 163.56C48.0158 151.764 34.0272 142.4 18.63 136C3.21069 129.621 -13.3132 126.339 -30 126.34Z" fill="#757445"/>
<path d="M-30 131.37V130.37C-13.8521 130.372 2.13774 133.549 17.06 139.72C31.9927 145.906 45.5634 154.968 57 166.39C68.4165 177.812 77.4781 191.365 83.67 206.28C89.834 221.204 93.0041 237.194 93 253.34H92C91.9994 237.323 88.8496 221.462 82.73 206.66C76.5838 191.869 67.5939 178.428 56.27 167.1C44.942 155.776 31.5012 146.786 16.71 140.64C1.89864 134.517 -13.9727 131.367 -30 131.37Z" fill="#757445"/>
<path d="M-30 136.37V135.37C-14.5054 135.38 0.835817 138.438 15.15 144.37C29.4589 150.308 42.4618 158.999 53.42 169.95C64.3676 180.899 73.0587 193.892 79 208.19C84.9318 222.504 87.9898 237.846 88 253.34H87C86.9968 237.982 83.9762 222.774 78.11 208.58C72.225 194.373 63.6049 181.462 52.74 170.58C41.8728 159.721 28.9788 151.101 14.79 145.21C0.583439 139.357 -14.635 136.354 -30 136.37Z" fill="#757445"/>
<path d="M-30 141.34V140.34C-15.1598 140.343 -0.46468 143.261 13.25 148.93C26.9538 154.622 39.4062 162.949 49.9 173.44C60.3912 183.934 68.7188 196.387 74.41 210.09C80.0792 223.805 82.9978 238.5 83 253.34H82C81.9967 238.633 79.1018 224.07 73.48 210.48C67.841 196.896 59.588 184.553 49.19 174.15C38.7878 163.752 26.444 155.499 12.86 149.86C-0.730122 144.239 -15.293 141.344 -30 141.34Z" fill="#757445"/>
<path d="M-30 146.34V145.34C-15.8187 145.345 -1.77641 148.135 11.33 153.55C24.4169 158.996 36.3082 166.956 46.33 176.98C56.3542 187.002 64.3146 198.893 69.76 211.98C75.1899 225.094 77.9896 239.147 78 253.34H77C77.0048 239.272 74.2389 225.34 68.86 212.34C63.4736 199.363 55.5911 187.57 45.66 177.63C35.7307 167.723 23.9553 159.858 11 154.48C-1.99969 149.101 -15.9315 146.335 -30 146.34Z" fill="#757445"/>
<path d="M472.53 43.3403H467.53V171.34H472.53V43.3403Z" fill="white"/>
<path d="M429.57 381.85L404.57 338.55L395.13 354.91L312.53 272.31V43.3403H307.53V274.38L392.54 359.39L379.57 381.85H429.57Z" fill="white"/>
<path d="M472.53 43.3403V171.34H467.53V43.3403H472.53ZM477.53 38.3403H462.53V176.34H477.53V38.3403Z" fill="#CAE44A"/>
<path d="M312.53 43.3403V272.34L395.13 354.94L404.57 338.58L429.57 381.88H379.57L392.57 359.42L307.57 274.42V43.4203H312.57L312.53 43.3403ZM317.57 38.4203H302.57V276.45L304.03 277.91L386.33 360.21L375.28 379.35L370.95 386.85H438.27L433.94 379.35L408.94 336.05L404.61 328.55L400.28 336.05L394.1 346.77L317.57 270.24V38.3403V38.4203Z" fill="#CAE44A"/>
</g>
<defs>
<clipPath id="clip0">
<path d="M0 0H1280V560H0V0Z" fill="white"/>
</clipPath>
</defs>
</svg>
