<svg width="240" height="140" viewBox="0 0 240 140" fill="none" xmlns="http://www.w3.org/2000/svg">
<path d="M40.1555 86.7233H35V54.2782H40.7095L51.0667 76.619V54.2782H56.2221V86.7219H50.5141L40.1555 64.3839V86.7233Z" fill="#959595"/>
<path fill-rule="evenodd" clip-rule="evenodd" d="M84.9041 75.1364C84.9041 75.7539 84.8564 76.3408 84.7652 76.8957V76.8972H66.8528C66.9757 77.6384 67.2289 78.3258 67.6136 78.9608C67.997 79.5944 68.4801 80.1507 69.0631 80.6299C69.646 81.109 70.3013 81.4848 71.0202 81.7644C71.7421 82.0425 72.5174 82.1809 73.3463 82.1809C74.5122 82.1809 75.5479 81.9959 76.4534 81.6231C77.359 81.2531 78.0591 80.6968 78.548 79.9556H84.5786C84.1808 81.0056 83.6196 81.9638 82.8978 82.829C82.1788 83.6955 81.3268 84.4353 80.3446 85.0529C79.3624 85.6733 78.2732 86.1495 77.0754 86.4918C75.8792 86.8311 74.6351 87 73.3477 87C71.69 87 70.1407 86.6898 68.6985 86.0723C67.2534 85.4563 66.0036 84.6131 64.9448 83.5469C63.8859 82.4823 63.0498 81.2226 62.4365 79.7706C61.8217 78.3171 61.515 76.7748 61.515 75.1364C61.515 73.4994 61.8159 71.9513 62.4148 70.5007C63.0108 69.0473 63.8411 67.7875 64.8985 66.7229C65.9588 65.6553 67.2028 64.815 68.6291 64.1975C70.0568 63.5786 71.5815 63.2698 73.2103 63.2698C74.8362 63.2698 76.3623 63.5786 77.79 64.1975C79.2163 64.815 80.4589 65.6568 81.5192 66.7229C82.5781 67.7875 83.4069 69.0473 84.0044 70.5007C84.6032 71.9527 84.9041 73.4994 84.9041 75.1364ZM77.1 69.2715C76.5648 68.8856 75.9645 68.5768 75.3049 68.3453C74.6438 68.1138 73.948 67.9972 73.2103 67.9972C72.4726 67.9972 71.7753 68.1123 71.1157 68.3453C70.4561 68.5768 69.8572 68.8856 69.3206 69.2715C68.7824 69.659 68.3224 70.1235 67.9391 70.6609C67.5558 71.2027 67.2723 71.7678 67.0871 72.3533H79.3335C79.1483 71.7664 78.8634 71.2012 78.48 70.6609C78.0967 70.1235 77.6353 69.659 77.1 69.2715Z" fill="#959595"/>
<path fill-rule="evenodd" clip-rule="evenodd" d="M92.8427 83.5936C91.7853 82.529 90.9636 81.2765 90.3807 79.839C89.7977 78.403 89.507 76.8359 89.507 75.1364C89.507 73.4368 89.7977 71.8668 90.3807 70.4308C90.9636 68.9934 91.7853 67.7423 92.8427 66.6763C93.903 65.6117 95.147 64.7758 96.5733 64.1757C98.0011 63.5713 99.572 63.2713 101.292 63.2713C102.979 63.2713 104.545 63.5713 105.987 64.1757C107.431 64.7758 108.682 65.6117 109.74 66.6763C110.799 67.7423 111.619 68.9934 112.202 70.4308C112.785 71.8668 113.077 73.4368 113.077 75.1364C113.077 76.8345 112.785 78.4016 112.202 79.839C111.619 81.2765 110.799 82.5304 109.74 83.5936C108.682 84.6611 107.431 85.4941 105.987 86.0956C104.545 86.7 102.979 87 101.292 87C99.572 87 98.0011 86.7 96.5733 86.0956C95.147 85.4941 93.903 84.6611 92.8427 83.5936ZM96.5039 70.1294C95.9209 70.7483 95.4682 71.4794 95.147 72.3314C94.823 73.1805 94.6624 74.1155 94.6624 75.1364C94.6624 76.1558 94.8216 77.0894 95.147 77.9399C95.4682 78.789 95.9209 79.523 96.5039 80.1419C97.0854 80.7595 97.7841 81.2371 98.5985 81.5794C99.4129 81.9188 100.308 82.0876 101.292 82.0876C102.273 82.0876 103.172 81.9188 103.985 81.5794C104.798 81.2371 105.498 80.7595 106.08 80.1419C106.663 79.523 107.116 78.789 107.438 77.9399C107.761 77.0894 107.92 76.1558 107.92 75.1364C107.92 74.114 107.762 73.1805 107.438 72.3314C107.116 71.4794 106.663 70.7483 106.08 70.1294C105.498 69.5118 104.798 69.0342 103.985 68.6934C103.172 68.354 102.273 68.1822 101.292 68.1822C100.308 68.1822 99.4114 68.3555 98.5985 68.6934C97.7841 69.0342 97.0854 69.5118 96.5039 70.1294Z" fill="#959595"/>
<path d="M125.323 62.2737C124.37 63.3091 123.634 64.5383 123.113 65.9583C122.589 67.3812 122.332 68.8958 122.332 70.5007C122.332 72.1377 122.591 73.6597 123.113 75.065C123.634 76.4719 124.37 77.6924 125.323 78.7263C126.274 79.7633 127.4 80.5818 128.705 81.1847C130.01 81.7876 131.444 82.0891 133.01 82.0891C134.575 82.0891 136.007 81.7964 137.312 81.2066C138.618 80.6211 139.745 79.8186 140.697 78.7977C141.652 77.7753 142.387 76.5549 142.907 75.1364C143.43 73.7135 143.691 72.1669 143.691 70.5007H148.938C148.938 72.7858 148.539 74.9354 147.74 76.9423C146.942 78.9521 145.829 80.6968 144.405 82.1809C142.977 83.6635 141.287 84.8373 139.342 85.7038C137.392 86.5689 135.281 87 133.01 87C130.741 87 128.629 86.5689 126.683 85.7038C124.73 84.8373 123.044 83.6635 121.617 82.1809C120.189 80.6968 119.077 78.9506 118.279 76.9423C117.48 74.9354 117.082 72.7873 117.082 70.5007C117.082 68.2142 117.48 66.0661 118.279 64.0577C119.077 62.0508 120.189 60.3047 121.617 58.822C123.045 57.338 124.73 56.1642 126.683 55.2977C128.629 54.4326 130.739 54 133.01 54C135.62 54 137.943 54.5403 139.985 55.6238C142.026 56.706 143.781 58.1434 145.255 59.9333L141.663 63.5494C140.683 62.1295 139.485 60.9994 138.073 60.1649C136.663 59.3318 134.973 58.9138 133.01 58.9138C131.444 58.9138 130.01 59.2138 128.705 59.8183C127.4 60.4197 126.274 61.2396 125.323 62.2737Z" fill="#959595"/>
<path fill-rule="evenodd" clip-rule="evenodd" d="M155.356 83.5936C154.299 82.529 153.477 81.2765 152.896 79.839C152.311 78.403 152.021 76.8359 152.022 75.1364C152.022 73.4368 152.311 71.8668 152.896 70.4308C153.477 68.9934 154.299 67.7423 155.356 66.6763C156.417 65.6117 157.661 64.7758 159.085 64.1757C160.516 63.5713 162.088 63.2713 163.805 63.2713C165.494 63.2713 167.059 63.5713 168.504 64.1757C169.945 64.7758 171.196 65.6117 172.255 66.6763C173.314 67.7423 174.134 68.9934 174.717 70.4308C175.3 71.8668 175.592 73.4368 175.592 75.1364C175.592 76.8345 175.301 78.4016 174.717 79.839C174.134 81.2765 173.312 82.5304 172.255 83.5936C171.194 84.6611 169.945 85.4941 168.504 86.0956C167.059 86.7 165.494 87 163.805 87C162.088 87 160.515 86.7 159.085 86.0956C157.661 85.4941 156.415 84.6611 155.356 83.5936ZM159.019 70.1294C158.436 70.7483 157.983 71.4794 157.661 72.3314C157.338 73.1805 157.176 74.1155 157.176 75.1364C157.176 76.1558 157.338 77.0894 157.661 77.9399C157.983 78.789 158.436 79.523 159.019 80.1419C159.602 80.7595 160.298 81.2371 161.112 81.5794C161.925 81.9188 162.825 82.0876 163.805 82.0876C164.788 82.0876 165.686 81.9188 166.5 81.5794C167.313 81.2371 168.012 80.7595 168.595 80.1419C169.176 79.523 169.629 78.789 169.953 77.9399C170.276 77.0894 170.436 76.1558 170.436 75.1364C170.436 74.114 170.276 73.1805 169.953 72.3314C169.629 71.4794 169.176 70.7483 168.595 70.1294C168.012 69.5118 167.313 69.0342 166.5 68.6934C165.686 68.354 164.788 68.1822 163.805 68.1822C162.825 68.1822 161.925 68.3555 161.112 68.6934C160.298 69.0342 159.602 69.5118 159.019 70.1294Z" fill="#959595"/>
<path d="M184.333 86.7233H179.27V63.548H184.335V66.1913C184.857 65.4806 185.641 64.8165 186.684 64.199C187.724 63.58 189.048 63.2713 190.642 63.2713C193.525 63.2713 195.719 64.0897 197.225 65.7267C198.728 67.3652 199.48 69.7303 199.48 72.8193V86.7248H194.419V73.9319C194.419 71.8916 193.993 70.409 193.15 69.4812C192.307 68.555 191.055 68.0919 189.398 68.0919C187.741 68.0919 186.481 68.6337 185.622 69.7129C184.761 70.7935 184.333 72.1989 184.333 73.9305V86.7233Z" fill="#959595"/>
<path fill-rule="evenodd" clip-rule="evenodd" d="M201.951 57.6759L202.519 58.9342H203.166L202.537 57.5769C202.953 57.3904 203.147 57.0321 203.147 56.5865C203.147 55.8919 202.59 55.5161 201.942 55.5161H200.694V58.9342H201.287V57.6759H201.951ZM201.278 56.0695H201.942C202.26 56.0695 202.528 56.2399 202.528 56.5865C202.528 56.9622 202.296 57.1225 201.942 57.1225H201.278V56.0695Z" fill="#959595"/>
<path fill-rule="evenodd" clip-rule="evenodd" d="M198.601 57.2841C198.601 59.1133 199.966 60.5595 201.8 60.5595C203.634 60.5595 205.001 59.1046 205 57.2739C205 55.4447 203.634 54 201.8 54C199.966 54 198.601 55.455 198.601 57.2841ZM199.195 57.2841C199.195 55.7214 200.231 54.5709 201.8 54.5709C203.37 54.5709 204.405 55.7142 204.405 57.2754C204.405 58.8381 203.37 59.9886 201.8 59.9886C200.231 59.9886 199.195 58.8454 199.195 57.2841Z" fill="#959595"/>
</svg>
