<svg width="240" height="140" viewBox="0 0 240 140" fill="none" xmlns="http://www.w3.org/2000/svg">
<path d="M179.5 70C179.5 71.9597 178.33 74.2107 175.33 76.6114C172.354 78.9929 167.894 81.2478 162.16 83.1883C150.719 87.0609 134.752 89.5 117 89.5C99.2479 89.5 83.2812 87.0609 71.8396 83.1883C66.1061 81.2478 61.6461 78.9929 58.67 76.6114C55.6699 74.2107 54.5 71.9597 54.5 70C54.5 68.0403 55.6699 65.7893 58.67 63.3886C61.6461 61.0071 66.1061 58.7522 71.8396 56.8117C83.2812 52.9391 99.2479 50.5 117 50.5C134.752 50.5 150.719 52.9391 162.16 56.8117C167.894 58.7522 172.354 61.0071 175.33 63.3886C178.33 65.7893 179.5 68.0403 179.5 70Z" stroke="#959595" stroke-width="5"/>
<path d="M117 48.5V90.5" stroke="#959595" stroke-width="7"/>
</svg>
