<svg width="240" height="140" viewBox="0 0 240 140" fill="none" xmlns="http://www.w3.org/2000/svg">
<path fill-rule="evenodd" clip-rule="evenodd" d="M110.024 54L103.227 73.1992L96.3733 54H86.433V84.859H94.044V66.5158L100.538 84.859H105.814L112.258 66.5158V84.859H127.564L129.747 78.8764H141.063L143.291 84.859H159.22V74.656H162.06L168.554 84.859H177.585L170.277 73.7997C174.083 72.3931 176.468 69.1792 176.468 64.5033C176.468 63.2028 176.296 62.0126 175.97 60.9391H185.191V84.859H193.357V60.9391H203V54H175.598V59.9158C173.961 56.0821 170.133 54 165.153 54H151.154V83.7934L139.699 54H131.375L119.919 83.7651V54H110.024ZM135.433 63.5525L138.632 72.2484H132.239L135.433 63.5525ZM164.294 68.223H159.22V60.789H164.294C167.185 60.789 168.504 62.2401 168.504 64.5033C168.504 66.7661 167.185 68.223 164.294 68.223Z" fill="#959595"/>
<path d="M38 65.1426H41.6427V80.3109C41.6427 83.6802 43.4613 85.2426 46.3294 85.2426C47.3397 85.2426 48.4848 84.9592 49.2986 84.5755V83.1521C48.4342 83.5857 47.4296 83.9139 46.3294 83.9139C44.1741 83.9139 43.074 82.7796 43.074 80.1719V65.1483H49.2425V63.8194H43.074V58.5092H41.6371V63.8137H38V65.1426Z" fill="#959595"/>
<path d="M50.9207 54.0557H52.3576V67.7058C53.699 65.4318 56.3764 63.4412 59.5813 63.4412C64.414 63.4412 66.9004 66.4271 66.9004 70.8364V84.859H65.4635V71.0196C65.4635 67.4669 63.6449 64.809 59.4859 64.809C56.236 64.809 53.6037 67.1332 52.3576 69.7854V84.8536H50.9207V54.0557Z" fill="#959595"/>
<path fill-rule="evenodd" clip-rule="evenodd" d="M77.0428 85.2372C81.2524 85.2372 84.1262 82.6794 84.9849 78.9375V78.932H83.5031C82.7791 81.9622 80.3431 83.9082 77.0428 83.9082C72.5413 83.9082 69.3363 80.1662 69.3363 74.189H85.4115V73.6718C85.4115 67.7503 82.5433 63.4357 76.9922 63.4357C71.2503 63.4357 67.8545 68.0785 67.8545 74.3392C67.8545 80.8781 71.5871 85.2372 77.0428 85.2372ZM83.8848 72.9157H69.3869C69.8135 68.034 72.7377 64.7644 76.9978 64.7644C81.7351 64.7644 83.7388 68.7901 83.8848 72.9157Z" fill="#959595"/>
</svg>
